<svg width="78" height="78" viewBox="0 0 78 78" fill="none" xmlns="http://www.w3.org/2000/svg">
<path d="M35.2207 11.5153C58.594 10.3658 69.1412 26.8225 69.8234 34.1729C70.297 39.2753 67.2824 45.1563 67.2824 49.7156C67.2824 52.0429 70.1318 57.0393 68.8053 60.4314C65.8527 67.9812 59.6011 76.3601 51.6347 76.3601C43.6684 76.3601 33.3005 78.5634 24.498 65.9597C23.6721 64.7771 13.2254 58.056 12.2106 51.6691C9.6825 35.7604 18.5428 12.3355 35.2207 11.5153Z" fill="white"/>
<path d="M51.0432 77.454C50.3098 77.454 49.5275 77.4103 48.5811 77.3164C46.5834 77.1397 44.6031 76.8025 42.6596 76.3079L42.3485 76.2253C41.5466 76.0103 40.7042 75.7642 40.0072 75.3309C39.6393 75.103 39.3296 74.7926 39.1028 74.4241C38.8814 74.0531 38.7271 73.6459 38.6471 73.2213C38.6202 73.0923 38.6216 72.959 38.6513 72.8306C38.681 72.7022 38.7382 72.5818 38.819 72.4777C38.8874 72.3909 38.9744 72.3205 39.0736 72.2718C39.1728 72.223 39.2817 72.197 39.3922 72.1958H39.4267C39.4476 72.1958 39.4691 72.1958 39.491 72.1958C39.5768 72.1958 39.6679 72.1926 39.7777 72.1858L39.8664 72.1798H39.8709C39.8759 72.1784 39.8811 72.1778 39.8863 72.1781C39.9134 72.1741 39.9403 72.1681 39.9663 72.1627C39.9893 72.1574 40.0154 72.1516 40.0405 72.1472C40.1947 72.1212 40.3508 72.1081 40.5071 72.1079C40.9137 72.116 41.3163 72.1912 41.6984 72.3304L41.7676 72.3539C42.6911 72.6835 43.6316 72.9636 44.585 73.1929C45.5411 73.4107 46.5542 73.5954 47.5967 73.7417L47.6971 73.7541L47.7279 73.7587L47.7433 73.7602C47.7465 73.76 47.7497 73.7606 47.7526 73.7619L48.0502 73.7988C48.2854 73.8266 48.5225 73.8517 48.7518 73.8759H48.7534C49.1822 73.9188 49.618 73.953 50.0487 73.9777C50.2985 73.9917 50.5516 73.9988 50.8006 73.9988C52.5383 73.9968 54.259 73.6579 55.8676 73.0009C57.4569 72.3494 58.925 71.4348 60.2106 70.2957C62.8442 67.9561 64.7351 64.8966 65.6498 61.4947C65.9809 60.2471 66.1807 58.9684 66.2461 57.6793C66.3096 56.4086 66.2866 55.135 66.1772 53.8674C66.1081 53.6697 66.0737 53.4616 66.0754 53.2522C66.0754 53.1317 66.082 53.0127 66.0893 52.9021C65.9563 51.6009 65.7682 50.277 65.5864 48.9966C65.4245 47.8569 65.2572 46.6783 65.1286 45.5169C64.7919 42.6358 64.6477 39.7354 64.6968 36.835C64.7406 35.4054 64.8694 33.9796 65.0823 32.5652L65.1549 32.0563C64.2503 31.8792 63.4127 31.4538 62.736 30.8279C61.9851 31.2601 61.1341 31.4884 60.2676 31.4902C59.4545 31.4969 58.6556 31.2771 57.9604 30.8555C57.0922 31.3869 56.0934 31.6665 55.0754 31.6632C54.1631 31.674 53.2652 31.434 52.48 30.9693C52.1107 31.2336 51.7037 31.4407 51.2727 31.5835C50.8417 31.7266 50.3907 31.7999 49.9366 31.8005C49.6397 31.8004 49.3437 31.7684 49.0536 31.705C48.4889 31.5765 47.9593 31.3255 47.5023 30.9697C47.2447 31.0155 46.9835 31.0387 46.7218 31.0391C46.6486 31.0391 46.5743 31.0371 46.5013 31.0334L46.4324 31.072C45.7083 31.4765 44.8964 31.698 44.0672 31.717C44.0227 31.717 43.9777 31.717 43.9333 31.7147C43.2698 31.6934 42.6146 31.5607 41.9951 31.3223C41.3369 31.7277 40.6007 31.99 39.8345 32.0921C39.6279 32.118 39.4198 32.131 39.2116 32.1309C38.2629 32.1393 37.3331 31.8649 36.541 31.3426C35.5179 31.9189 34.3625 32.2195 33.1883 32.215C32.3918 32.2158 31.601 32.0802 30.8503 31.814C30.4651 32.4589 29.9461 33.0136 29.3283 33.4409C29.4378 33.8383 29.4744 34.2522 29.4362 34.6626C29.3842 35.2895 29.2135 35.9009 28.9334 36.4642C29.2322 37.1132 29.3069 37.8431 29.1457 38.5392C28.8956 39.5838 28.3229 40.5231 27.5088 41.2238C27.4723 42.0666 27.2249 42.8867 26.7893 43.6091C26.3537 44.3315 25.7438 44.933 25.0154 45.3586C24.9422 45.4008 24.8664 45.4385 24.7886 45.4714C24.7222 45.5621 24.6427 45.6423 24.5525 45.7092C24.0238 46.1708 23.339 46.4134 22.6377 46.3877C22.0371 46.3814 21.4436 46.2574 20.8907 46.0229L20.8649 46.0243H20.8632C20.8503 46.0251 20.8356 46.026 20.8211 46.0263C20.8066 46.0266 20.795 46.0263 20.7819 46.0263C20.6178 46.0355 20.4539 46.0037 20.305 45.9337C20.1562 45.8637 20.0272 45.7577 19.9296 45.6253C19.7548 45.634 19.5807 45.6542 19.4086 45.6856C18.7458 45.8103 18.1037 46.0268 17.5009 46.3288C17.1461 46.5096 16.8182 46.739 16.5267 47.0103C16.2534 47.2676 16.0167 47.5613 15.8235 47.8831C15.4354 48.5596 15.1927 49.3096 15.1108 50.0852C14.9943 50.963 15.0732 51.8557 15.3421 52.6995C15.4776 53.1137 15.6659 53.5088 15.9023 53.875C16.1453 54.2495 16.4389 54.5886 16.775 54.8824C17.112 55.1746 17.4901 55.4157 17.8972 55.598C18.3033 55.7811 18.7308 55.9127 19.1697 55.9897C19.38 56.0236 19.5928 56.039 19.8058 56.0359C19.9056 56.0359 20.0063 56.0339 20.104 56.0319H20.1091C20.2057 56.0299 20.3056 56.0279 20.4021 56.0279C20.6663 56.0199 20.9303 56.0504 21.1857 56.1186C21.4514 56.1974 21.6882 56.3526 21.8666 56.5647C21.944 56.6442 21.9996 56.7424 22.0279 56.8496C22.0562 56.9569 22.0564 57.0697 22.0284 57.177C21.9541 57.4608 21.7931 57.7142 21.5677 57.9019C21.3424 58.0896 21.0641 58.2023 20.7716 58.2241C21.6546 59.2942 22.6005 60.3107 23.6044 61.2682C23.8181 61.4687 24.0371 61.6722 24.2488 61.8687L24.2569 61.8761C25.1616 62.6866 26.0228 63.5446 26.8368 64.4463C27.3634 65.0446 27.8559 65.6721 28.3119 66.3259C28.768 66.9794 29.1635 67.6732 29.4934 68.3986C29.7817 69.0435 30.0306 69.7149 30.2713 70.3643V70.3655C30.3448 70.564 30.421 70.7692 30.497 70.9708L30.555 71.1211C30.5951 71.2223 30.6374 71.3247 30.6784 71.4235C30.8567 71.8103 30.9887 72.2168 31.0719 72.6345C31.1049 72.8376 31.1054 73.0447 31.0733 73.248C31.0359 73.4699 30.9575 73.683 30.842 73.8762C30.7256 74.0654 30.5695 74.2271 30.3846 74.3503C30.2009 74.4814 29.9827 74.5553 29.7571 74.5629C29.7229 74.563 29.6886 74.5608 29.6546 74.5564C28.3253 74.3868 27.8988 73.4615 27.5142 72.362C27.3839 71.9886 27.265 71.6046 27.15 71.2332C26.9977 70.7421 26.8405 70.2341 26.6554 69.7451C26.599 69.598 26.5347 69.4434 26.4586 69.2722C26.2403 69.3325 26.0147 69.3629 25.7881 69.3624C25.2281 69.3556 24.6813 69.1909 24.2107 68.8871C23.5219 69.1911 22.7773 69.3486 22.0244 69.3498C21.9946 69.3498 21.9642 69.3498 21.934 69.349C21.4369 69.3416 20.9432 69.2667 20.4663 69.1263C20.0065 68.9897 19.5681 68.7895 19.1637 68.5315L19.1261 68.5217L19.1171 68.5193H19.1146C19.0675 68.507 19.0187 68.4942 18.9711 68.4806C18.4729 68.6723 17.9438 68.7706 17.41 68.7707C16.6223 68.7781 15.8508 68.546 15.1979 68.1051C14.8526 67.8697 14.5458 67.5823 14.2881 67.2533C14.0444 66.9402 13.8489 66.5925 13.708 66.2216C13.2441 66.2149 12.7851 66.1261 12.3522 65.9595C11.9196 65.7934 11.526 65.5397 11.1959 65.2145C10.8969 64.9183 10.6511 64.5728 10.4691 64.1932C10.2913 63.8223 10.1739 63.4253 10.1212 63.0174C9.71967 62.9391 9.33247 62.7998 8.97317 62.6041C8.6018 62.4004 8.26733 62.1358 7.98377 61.8212C7.7402 61.5499 7.54065 61.2421 7.39238 60.909C7.24403 60.577 7.14342 60.2256 7.09353 59.8654C6.60563 59.7263 6.14754 59.4984 5.7422 59.1933C5.33821 58.8917 5.00374 58.5068 4.76144 58.0647C4.54708 57.671 4.41266 57.2388 4.3659 56.7929C4.32246 56.369 4.35738 55.9407 4.46891 55.5293L4.41247 55.4479C3.91659 55.1993 3.48252 54.843 3.14195 54.4052C2.79812 53.9508 2.59725 53.4044 2.56491 52.8355C2.54222 52.4882 2.57952 52.1397 2.67516 51.8051C2.63757 51.4371 2.66624 51.0654 2.75982 50.7076C2.42411 50.38 2.13927 50.0041 1.91477 49.5923C1.69066 49.1829 1.52615 48.7435 1.42624 48.2876C1.32569 47.8331 1.2926 47.3662 1.32801 46.902C1.36329 46.4352 1.47336 45.977 1.654 45.545C0.999179 44.8299 0.578109 43.932 0.447016 42.9713C0.380343 42.4975 0.388148 42.0163 0.470147 41.545C0.552005 41.0716 0.715756 40.616 0.954051 40.1988C0.62348 39.7997 0.371201 39.3419 0.210461 38.8493C0.0463019 38.3441 -0.0228194 37.8129 0.00659851 37.2825C0.0466848 36.6179 0.205127 35.9657 0.474465 35.3568C0.742659 34.7496 1.06938 34.1701 1.44998 33.6263C1.17225 33.3145 0.957922 32.9516 0.818965 32.5579C0.678394 32.1642 0.61118 31.748 0.620654 31.33C0.641432 30.7466 0.793501 30.1754 1.06554 29.659C1.3386 29.1431 1.68184 28.6675 2.08547 28.2458C1.91534 27.7303 1.82958 27.1906 1.83149 26.6478C1.83341 26.1185 1.91662 25.5927 2.07823 25.0887C2.40546 24.0696 3.0311 23.1721 3.87413 22.5125C3.52333 21.9132 3.39558 21.2092 3.51344 20.5248C3.61291 19.9296 3.87878 19.3747 4.28031 18.9243C4.6821 18.4719 5.14551 18.0783 5.65693 17.7551C5.44352 17.0445 5.50801 16.2794 5.83735 15.6147C6.06004 15.1567 6.37549 14.75 6.76368 14.4205C7.15104 14.0909 7.57071 13.8012 8.01631 13.556C8.06348 13.1388 8.18755 12.734 8.38224 12.3621C8.57496 11.9892 8.82804 11.6508 9.13123 11.3605C9.42699 11.0735 9.77052 10.8403 10.1464 10.6712C10.5123 10.5048 10.9092 10.4174 11.3111 10.4148C11.7501 10.4148 12.1818 10.5272 12.5651 10.7412C12.4586 10.3984 12.4378 10.0347 12.5045 9.68197C12.5714 9.33016 12.7082 8.99535 12.9069 8.69735C13.1535 8.32308 13.4758 8.00456 13.8529 7.76224C14.2293 7.51653 14.6573 7.36082 15.1035 7.30717C15.272 6.80027 15.5255 6.32573 15.8531 5.90388C16.1786 5.48394 16.5664 5.11632 17.0031 4.81378C17.8784 4.20007 18.9194 3.86627 19.9884 3.85646C20.3589 3.85603 20.7281 3.89972 21.0882 3.98661C21.5405 3.37389 22.1348 2.8802 22.8201 2.54801C23.4988 2.21886 24.2432 2.04773 24.9975 2.04745C25.5688 2.04627 26.1357 2.14716 26.6714 2.34538C27.3369 1.83331 28.0841 1.43743 28.8815 1.17448C29.6554 0.922579 30.4644 0.795464 31.2782 0.797903C32.2445 0.802954 33.2037 0.963535 34.1189 1.27348C34.5131 0.835717 35.0105 0.503451 35.5658 0.306905C36.1262 0.101833 36.7185 -0.00207181 37.3152 3.12974e-05C37.4168 3.12974e-05 37.5192 0.00296125 37.6194 0.00897535C38.5212 0.0624855 39.3774 0.369822 40.2067 0.667134C41.0498 0.969536 41.9217 1.28242 42.8364 1.32437C42.9532 1.32977 43.0745 1.33254 43.1971 1.33254C43.9002 1.31765 44.6017 1.25837 45.2973 1.15505H45.3013C45.9936 1.05211 46.6918 0.992878 47.3916 0.977709C47.754 0.975858 48.116 1.00309 48.4741 1.05913C49.0637 1.15272 49.6351 1.33812 50.1673 1.60857C50.6968 1.87465 51.166 2.24663 51.5459 2.70144C52.1159 2.53853 52.7057 2.456 53.2985 2.45625C53.806 2.45662 54.3117 2.51593 54.8054 2.63298C56.314 2.99186 57.6535 3.85826 58.5994 5.08704C58.7984 5.05626 58.9994 5.0408 59.2008 5.04078C60.1408 5.05247 61.0547 5.3512 61.8202 5.89694C62.5933 6.42614 63.1733 7.1926 63.4724 8.08052C64.1193 8.10357 64.7567 8.24364 65.3537 8.49395C65.9527 8.74217 66.5064 9.08802 66.9922 9.51743C67.9838 10.3641 68.6241 11.5501 68.7879 12.8437C69.8359 13.1358 70.727 13.8281 71.2691 14.7713C71.8297 15.7274 72.036 16.897 71.9 18.3458C72.494 18.6573 72.9799 19.1411 73.294 19.7337C73.6216 20.3488 73.8264 21.0217 73.897 21.715C74.4468 22.1345 74.8596 22.7079 75.0828 23.3625C75.3165 24.0303 75.3791 24.7461 75.2648 25.4443C75.6935 25.702 76.0306 26.0876 76.2289 26.5468C76.4425 27.0143 76.5524 27.5225 76.551 28.0366C76.5496 28.3106 76.5271 28.5775 76.5048 28.8357C76.4517 29.4627 76.4016 30.0539 76.6463 30.6874C76.7952 31.0521 76.8976 31.4341 76.951 31.8244C76.9964 32.2132 76.9779 32.6069 76.8963 32.9899L76.879 33.0714C76.8507 33.2004 76.8252 33.33 76.801 33.4678C77.0384 33.678 77.2323 33.9328 77.3716 34.2177C77.6286 34.7442 77.7574 35.324 77.7477 35.9098C77.7385 36.4925 77.6272 37.0691 77.4188 37.6133C77.6055 38.3062 77.5677 39.0405 77.3108 39.7105C77.559 40.0668 77.7454 40.4622 77.8623 40.8804C77.9819 41.3077 78.0241 41.7531 77.9869 42.1953C77.9006 43.1812 77.4567 44.1016 76.7389 44.7829C76.8263 45.485 76.7423 46.1978 76.4941 46.8604C76.2514 47.5301 75.8592 48.1357 75.3474 48.6312C75.5019 49.4826 75.3484 50.3612 74.9146 51.1099C74.615 51.6359 74.1808 52.0727 73.6567 52.3755C73.6731 52.8524 73.6056 53.3285 73.4572 53.782C73.2454 54.4372 72.8863 55.0352 72.4075 55.53C72.4774 55.9852 72.4653 56.4494 72.3718 56.9004C72.28 57.354 72.1117 57.7888 71.8739 58.1859C71.3949 59.0087 70.6126 59.611 69.6946 59.8637C69.5444 59.9037 69.3899 59.9256 69.2345 59.929C69.0471 61.6758 68.6281 63.3898 67.9883 65.0259C67.58 66.066 67.0893 67.0718 66.521 68.0339C65.9531 68.9952 65.3084 69.909 64.5935 70.7666C63.8789 71.6235 63.0939 72.419 62.2466 73.1448C61.397 73.872 60.4849 74.5228 59.5208 75.0894C58.5595 75.652 57.547 76.1224 56.4971 76.4944C55.4478 76.8671 54.3646 77.1366 53.263 77.2992C52.5279 77.405 51.7859 77.4568 51.0432 77.454ZM21.0806 52.2919C20.9154 52.2947 20.753 52.2483 20.6142 52.1586C20.4754 52.0688 20.3665 51.9398 20.3013 51.788C20.1043 51.3459 19.8542 50.9295 19.5564 50.548C19.5073 50.6169 19.4639 50.688 19.4127 50.7737L19.3665 50.8518L19.3577 50.8672C19.3268 50.9193 19.2946 50.9733 19.2679 51.0282C19.258 51.0761 19.2449 51.1233 19.2288 51.1694C19.2257 51.1793 19.2237 51.1858 19.2234 51.187C19.1644 51.3674 19.0628 51.5309 18.9273 51.6638C18.7918 51.7966 18.6263 51.8949 18.4448 51.9503C18.3655 51.9783 18.2821 51.9927 18.198 51.9929C18.0052 51.9893 17.8198 51.9184 17.6737 51.7924C17.5244 51.6688 17.4104 51.5078 17.3436 51.3258C17.2883 51.1707 17.2727 51.0042 17.2982 50.8415C17.3238 50.6788 17.3896 50.5251 17.4898 50.3944C17.6922 50.1229 17.9618 49.9087 18.2721 49.7729C17.9808 49.725 17.6822 49.7511 17.4036 49.8486C17.125 49.9461 16.8753 50.1121 16.6775 50.3312C16.6697 50.3401 16.66 50.3472 16.6491 50.3521C16.6383 50.357 16.6265 50.3595 16.6146 50.3595C16.5894 50.3589 16.5654 50.3488 16.5473 50.3312C16.5292 50.3136 16.5185 50.2899 16.5172 50.2647C16.5047 50.0112 16.5607 49.7591 16.6794 49.5348C16.7975 49.316 16.9604 49.1246 17.1574 48.973C17.5636 48.6624 18.053 48.4799 18.5634 48.4487C18.6118 48.4461 18.6605 48.4447 18.7082 48.4447C19.0618 48.4454 19.412 48.515 19.739 48.6495C20.0625 48.7852 20.3651 48.9659 20.6379 49.1865C21.1832 49.6416 21.6609 50.1721 22.0566 50.7619C22.1538 50.8881 22.2126 51.0397 22.2259 51.1985C22.2393 51.3573 22.2067 51.5166 22.132 51.6573C22.0268 51.8451 21.8745 52.0024 21.6902 52.1136C21.5059 52.2248 21.2958 52.2863 21.0806 52.2919Z" fill="black"/>
</svg>
