<svg width="85" height="81" viewBox="0 0 66 81" fill="none" xmlns="http://www.w3.org/2000/svg">
<path d="M65.2816 29.0699C63.5913 21.8557 59.7296 15.3333 54.2171 10.3821C36.7887 -6.82566 4.78211 2.51452 4.92726 28.4449C4.2883 31.4777 4.06228 34.5829 4.25535 37.6763C4.34093 38.9941 4.912 40.834 4.14465 42.0194C2.41383 44.2383 1.40785 45.8738 1.99705 48.8254C2.48918 51.4025 4.24548 53.2282 6.61573 54.1988C8.03724 54.6061 9.3859 55.4935 9.91249 56.8461C13.0765 62.631 15.4205 67.4427 20.4083 71.385C21.6954 72.4 34.8968 78.4875 39.2469 78.4875C51.9812 78.4875 68.031 73.8811 68.2972 59.6764C68.3434 56.5565 67.7949 53.4003 67.4511 50.305C66.6147 43.2412 66.9093 35.9218 65.2816 29.0699Z" fill="white"/>
<path d="M43.7202 80.0013C42.2284 80.0188 40.7425 79.8121 39.3122 79.388C38.6066 79.1706 37.925 78.8821 37.2778 78.5268C36.6138 78.16 35.9938 77.7187 35.4298 77.2115C35.1643 76.9806 34.9855 76.6661 34.9228 76.3198C34.8696 75.9942 34.9063 75.6601 35.0292 75.3539C35.1708 74.9885 35.4059 74.6668 35.7109 74.4209C36.0004 74.1776 36.3644 74.0406 36.7424 74.0326C37.0687 74.0364 37.3847 74.1479 37.6411 74.3497C38.1153 74.7049 38.6218 75.0149 39.1539 75.2756C39.6663 75.5252 40.1996 75.7293 40.7477 75.8857C41.8393 76.1891 42.9682 76.3368 44.1011 76.3245C45.247 76.3156 46.3899 76.2075 47.5172 76.0015C48.504 75.83 49.5701 75.5889 50.8749 75.2453L51.0079 75.2094C52.9602 74.7071 54.8655 74.0375 56.7027 73.2079C57.6191 72.7884 58.5086 72.3126 59.3663 71.7833C60.222 71.2545 61.0361 70.6613 61.8017 70.0089C63.4369 68.6129 64.7418 66.8714 65.6223 64.9099C66.491 62.9418 66.9758 60.8259 67.0507 58.676C67.1563 56.2598 66.9445 53.8867 66.6782 51.2573L66.6504 50.9835C66.5427 49.9198 66.4304 48.841 66.3224 47.7977C66.143 46.0719 65.9589 44.2874 65.786 42.53C65.481 39.4296 65.2998 37.043 65.1993 34.7918L65.1455 33.4895C65.1313 33.1556 65.1159 32.8102 65.1022 32.5056C65.001 30.2284 64.8964 27.874 64.9946 25.5866C64.9955 25.566 65.0044 25.5466 65.0194 25.5326C65.0344 25.5185 65.0544 25.5108 65.0749 25.5112C65.0914 25.5108 65.1075 25.516 65.1206 25.526C65.1336 25.536 65.1429 25.5501 65.1467 25.5661C65.465 26.6936 65.6946 27.8558 65.9166 28.9797C66.0242 29.5285 66.1371 30.096 66.2585 30.6547C66.6864 32.6236 66.9866 34.1472 67.2317 35.5953C67.6915 38.3123 68.1327 41.2974 68.62 44.9896L68.723 45.7746C68.8421 46.6883 68.9765 47.626 69.1066 48.5327C69.772 53.1744 70.4601 57.9734 69.5924 62.6107C69.1502 64.9196 68.2147 67.1057 66.8499 69.0198C65.4807 70.931 63.8076 72.6048 61.897 73.9747C60.0581 75.3002 58.0701 76.4055 55.9738 77.2679C53.8787 78.1347 51.7108 78.8139 49.4956 79.2974C48.5052 79.5168 47.5477 79.6869 46.6494 79.8026C45.6782 79.9311 44.6998 79.9974 43.7202 80.0013ZM20.083 71.5526C19.9582 71.5522 19.8347 71.5268 19.7198 71.4778C19.1549 71.2206 18.6471 70.853 18.2264 70.3966C17.7853 69.9277 17.3716 69.4337 16.9874 68.9172L16.9847 68.9137C16.8304 68.7144 16.6847 68.5262 16.5374 68.3432L16.4787 68.2714C15.5415 67.1145 14.69 65.8907 13.931 64.6098L13.6798 64.1876C12.3285 61.9178 10.9348 59.4848 10.0377 56.8924C9.98094 56.9517 9.91891 57.0058 9.85237 57.0539C9.41566 57.3514 8.89613 57.5035 8.36789 57.4884C7.85139 57.4771 7.33948 57.3886 6.84914 57.2259C6.37427 57.0733 5.90995 56.8896 5.45921 56.676C4.24724 56.1147 3.17029 55.2991 2.3015 54.2846C1.84037 53.7455 1.43745 53.1593 1.09942 52.5357C0.767708 51.9233 0.505796 51.2757 0.3186 50.605C0.132337 49.9353 0.02675 49.2459 0.00408534 48.5512C-0.0178261 47.8408 0.0484657 47.1305 0.201442 46.4364C0.483655 45.2007 1.01732 44.0363 1.76917 43.0159C2.51344 41.9804 3.47218 41.1176 4.58007 40.4861C3.54287 39.2936 3.1365 37.6684 2.87563 36.2358C2.53886 34.2792 2.42845 32.2904 2.54658 30.3086C2.64811 28.3385 2.94013 26.3828 3.41854 24.469C3.89662 22.5557 4.53379 20.6856 5.32339 18.8784C7.42798 14.0371 10.7288 9.81026 14.9158 6.59512C16.3103 5.5263 17.7951 4.5808 19.3535 3.76933C25.7059 0.477423 32.943 -0.701704 40.0119 0.403504C41.6988 0.669553 43.3589 1.08381 44.9731 1.64147C46.5805 2.19768 48.1384 2.88786 49.6303 3.70474C51.123 4.5225 52.5471 5.45972 53.8886 6.50721C55.2331 7.55754 56.4919 8.71328 57.6529 9.96347C58.8022 11.1945 59.8564 12.5111 60.8063 13.9018C61.7575 15.2913 62.5672 16.7726 63.2232 18.3235C63.5447 19.0912 63.8262 19.875 64.0665 20.6719C64.3064 21.4691 64.4946 22.2809 64.6298 23.1024C64.7848 23.9543 64.8843 24.8153 64.9275 25.6801C64.9289 26.0668 64.8985 26.453 64.8367 26.8348C64.7728 27.2278 64.7424 27.6256 64.7455 28.0238C64.7463 28.0373 64.7442 28.0509 64.7395 28.0636C64.7348 28.0763 64.7275 28.0879 64.7181 28.0977C64.7068 28.1089 64.6933 28.1177 64.6785 28.1237C64.6637 28.1296 64.6479 28.1326 64.632 28.1323C64.608 28.1335 64.5844 28.1262 64.5652 28.1118C64.546 28.0974 64.5324 28.0767 64.5268 28.0534C64.3827 27.5443 64.1757 27.0552 63.9107 26.5972C63.7368 26.2806 63.581 25.9543 63.4442 25.62C63.1843 24.9533 62.8857 24.2995 62.6263 23.739L62.3794 23.207C61.6867 21.7121 60.8515 20.2562 60.044 18.8472L59.96 18.7008C58.2499 15.7175 56.0696 13.0297 53.5034 10.7409C51.2487 8.73438 48.6916 7.09599 45.9265 5.88607C44.547 5.28279 43.1208 4.79281 41.6618 4.42097C40.2005 4.04911 38.71 3.80301 37.2067 3.68537C36.441 3.62616 35.6623 3.59566 34.8923 3.59566C32.1501 3.59556 29.4206 3.96981 26.7797 4.70803C24.1355 5.44416 21.6079 6.54819 19.271 7.98774C13.9332 11.323 9.88747 16.3734 7.79735 22.3103C6.74779 25.2828 6.14855 28.3955 6.01952 31.5451C5.9643 33.1461 6.00024 34.7489 6.12717 36.3458L6.18279 37.1058C6.27454 38.007 6.2657 38.9156 6.15641 39.8149C6.84103 39.5961 7.55479 39.4819 8.27351 39.4764C8.56446 39.4762 8.85504 39.4971 9.14296 39.539C10.6646 39.762 11.557 40.3937 12.2233 41.7194C12.2298 41.7312 12.2331 41.7444 12.2329 41.7578C12.2327 41.7713 12.2291 41.7844 12.2223 41.796C12.2155 41.8075 12.2058 41.8171 12.1941 41.8238C12.1825 41.8305 12.1693 41.834 12.1559 41.8341C12.1427 41.834 12.1297 41.8308 12.118 41.8247C11.7128 41.6455 11.272 41.5611 10.8293 41.578C10.1774 41.5904 9.52924 41.6808 8.89878 41.8472C7.94756 42.0864 7.0478 42.4967 6.24343 43.058C5.47781 43.5789 4.81409 44.2357 4.28511 44.9957C3.75271 45.7543 3.39797 46.6229 3.2472 47.5373C3.17825 47.9769 3.16823 48.4238 3.21741 48.8661C3.26656 49.3051 3.3678 49.7368 3.51901 50.1519C3.82593 50.9873 4.30393 51.7493 4.9224 52.3893C5.23985 52.7206 5.58671 53.0225 5.9587 53.2912C6.33082 53.5605 6.73221 53.787 7.15522 53.9661C7.52241 54.1109 7.89956 54.229 8.28374 54.3196C8.92659 54.4866 9.53301 54.6441 10.1052 55.0911C10.2302 55.1862 10.3299 55.3106 10.3954 55.4534C10.4609 55.5962 10.4903 55.7529 10.4809 55.9097C10.461 56.222 10.3455 56.5205 10.15 56.7648C11.1169 57.8234 12.0439 58.9512 12.9405 60.0419L12.9414 60.0429C13.8205 61.1133 14.7312 62.2201 15.6794 63.2627C16.4845 64.1478 17.4171 65.1792 18.2989 66.2231L18.6164 66.6023C18.8527 66.8871 19.1237 67.172 19.4104 67.4734C20.1553 68.2566 20.9252 69.0659 21.2045 69.9951C21.2509 70.1778 21.2543 70.3689 21.2145 70.5531C21.1746 70.7374 21.0926 70.91 20.9749 71.0572C20.8744 71.203 20.7417 71.3236 20.587 71.4096C20.4323 71.4956 20.2598 71.5447 20.083 71.5531V71.5526ZM11.9788 51.7392C11.7506 51.7419 11.5269 51.6754 11.337 51.5487C11.1182 51.3919 10.9539 51.1706 10.8671 50.9157L10.8476 50.8608C10.6451 50.3053 10.3373 49.7941 9.94118 49.3552C9.82474 49.5432 9.66016 49.6968 9.46447 49.7999C9.39501 49.8333 9.31886 49.8503 9.24182 49.8498C9.14628 49.8568 9.0514 49.8293 8.97442 49.7723C8.89744 49.7152 8.84348 49.6325 8.82234 49.5391C8.75932 49.1914 8.82939 48.8327 9.01863 48.5343L9.04464 48.4963C8.58614 48.1285 8.08806 47.8129 7.55962 47.5554C7.07378 47.315 6.55756 47.1415 6.02508 47.0398C6.00315 47.0349 5.98369 47.0224 5.9702 47.0044C5.95671 46.9865 5.95009 46.9643 5.95152 46.9418C5.94985 46.9191 5.95633 46.8965 5.96981 46.8781C5.9833 46.8598 6.00289 46.8468 6.02508 46.8416C6.58741 46.728 7.15912 46.6671 7.73276 46.6598C8.46947 46.6522 9.19948 46.8004 9.87497 47.0945C10.541 47.3893 11.1554 47.7891 11.6948 48.2787C12.2302 48.7692 12.7188 49.3085 13.154 49.8898C13.2786 50.035 13.3577 50.2136 13.3815 50.4034C13.4052 50.5932 13.3726 50.7858 13.2876 50.9572C13.1581 51.1916 12.9688 51.3876 12.7388 51.525C12.5089 51.6624 12.2466 51.7363 11.9788 51.7392Z" fill="black"/>
</svg>
