<svg width="95" height="95" viewBox="0 0 80 91" fill="none" xmlns="http://www.w3.org/2000/svg">
  <path
    d="M23.6275 14.5326C33.5257 13.9922 42.2954 11.2111 49.2627 17.4354C49.2627 17.4354 60.5342 9.01801 62.4149 12.2238C63.6752 14.372 61.928 17.2557 62.3961 19.9065C65.4516 25.1154 65.2788 33.9319 65.4516 35.998C65.887 41.2056 68.6296 60.8022 68.6296 65.4558C68.6296 67.8312 66.6711 74.0523 65.4516 77.5143C62.7369 85.2199 57.5549 89.1472 49.0568 89.1472C40.5587 89.1472 26.6888 82.0444 22.2396 75.7382C21.8497 75.1856 19.3286 76.7979 16.6916 74.0011C13.8348 70.971 12.25 65.1918 12.25 61.7469C12.25 57.3753 9.42479 54.3436 9.7534 48.7479C10.4874 36.2507 13.036 15.1108 23.6275 14.5326Z"
    fill="white"
  />
  <path
    d="M47.815 90.2314C46.8966 90.2305 45.9799 90.1514 45.0749 89.995C44.0299 89.8574 43.0022 89.6105 42.0087 89.2583C41.212 88.9699 40.4317 88.6379 39.6714 88.264C39.2764 88.073 38.8958 87.8535 38.5326 87.6074C37.9216 87.2101 37.3461 86.7608 36.8126 86.2644C36.6271 86.1057 36.4601 85.9546 36.3021 85.8027C36.2862 85.79 36.2741 85.7731 36.2672 85.754C36.2603 85.7348 36.2589 85.7141 36.2631 85.6942C36.2692 85.6716 36.2813 85.651 36.2981 85.6347C36.3149 85.6185 36.3358 85.607 36.3586 85.6017L36.3869 85.5984L36.3533 85.5679L36.3522 85.5668C36.3275 85.5445 36.3019 85.5215 36.2771 85.4978C36.2694 85.4913 36.2626 85.4839 36.2567 85.4758L36.241 85.4618L36.238 85.4592C36.2265 85.4491 36.215 85.4389 36.2048 85.4289C36.1947 85.4194 36.1872 85.4076 36.1829 85.3945C36.1786 85.3814 36.1776 85.3674 36.1802 85.3538C36.1837 85.3285 36.1926 85.3043 36.2061 85.2826C36.2196 85.261 36.2375 85.2424 36.2587 85.2281C36.2749 85.2202 36.2928 85.2165 36.3109 85.2173C36.3192 85.2173 36.3275 85.2178 36.3358 85.2187L36.3335 85.2165C36.3286 85.2116 36.3234 85.2071 36.3178 85.2031C36.311 85.198 36.3102 85.1843 36.3115 85.1731L36.2879 85.1544C36.2719 85.1417 36.2597 85.1248 36.2526 85.1056C36.2455 85.0864 36.2439 85.0657 36.2479 85.0456C36.254 85.0231 36.2661 85.0027 36.2828 84.9865C36.2995 84.9702 36.3203 84.9587 36.3429 84.9532C36.3628 84.9479 36.3834 84.9454 36.404 84.9458C36.4511 84.9469 36.498 84.9529 36.544 84.9636L36.5738 84.9705L36.5204 84.9202C36.5014 84.9075 36.4863 84.8897 36.4768 84.8689C36.4673 84.848 36.4638 84.825 36.4667 84.8023C36.475 84.7801 36.4893 84.7607 36.5079 84.746C36.5265 84.7314 36.5487 84.7222 36.5722 84.7193C36.6589 84.724 36.745 84.7366 36.8294 84.7569L36.8922 84.7742C36.9194 84.7809 36.9451 84.7888 36.9725 84.7971H36.9737L36.9849 84.8005C36.9656 84.7828 36.9461 84.7654 36.9274 84.7484C36.8939 84.7182 36.8594 84.6871 36.8264 84.6559C36.8178 84.6466 36.8114 84.6355 36.8079 84.6233C36.8044 84.6112 36.8038 84.5984 36.8061 84.586C36.8113 84.5343 36.8366 84.4867 36.8765 84.4534C36.8936 84.4446 36.9127 84.4403 36.9319 84.441C37.0013 84.4458 37.068 84.4696 37.1247 84.5098C37.2671 84.5241 37.4043 84.5714 37.5252 84.648C37.698 84.8141 37.89 84.9862 38.1111 85.1742C38.2289 85.2063 38.339 85.2618 38.4347 85.3376C38.6389 85.5339 38.8694 85.7363 39.1369 85.9563L39.3195 86.082C39.3486 86.1016 39.38 86.1225 39.4117 86.1431L39.7967 86.3683C39.9986 86.4863 40.2273 86.6197 40.447 86.7494L40.863 86.8908C41.9625 87.2631 43.0982 87.6479 44.2293 88.0301L44.3958 88.0803L45.6193 88.231C46.4221 88.3157 47.2318 88.3114 48.0336 88.2184C48.0698 88.2184 48.1059 88.2184 48.1412 88.2184C48.7068 88.2177 49.2707 88.1591 49.8243 88.0434C50.8247 87.8769 51.8079 87.6198 52.7617 87.2753C53.8568 86.8623 54.9168 86.3618 55.9315 85.7785C56.2971 85.5743 56.6618 85.3533 57.0154 85.1235C57.1253 85.045 57.2411 84.9611 57.3594 84.8736C58.0942 84.3221 58.8255 83.7128 59.5333 83.0625C59.8516 82.7703 60.1692 82.4554 60.4774 82.1264L60.4958 82.1068L60.4991 82.1034C60.536 82.0636 60.5708 82.0261 60.6063 81.9866C60.9048 81.6609 61.1875 81.3294 61.4467 81.0018L61.7027 80.7129C62.7303 79.4194 63.6592 78.0505 64.4815 76.6177C65.2976 75.2066 65.9781 73.7214 66.5139 72.1818C66.6889 71.6267 66.8402 71.0666 66.9632 70.5154C67.1946 69.8437 67.3475 69.1474 67.4187 68.4405C67.4416 68.3065 67.4601 68.1703 67.4782 68.0387L67.4799 68.0255L67.4906 67.8076C67.4923 67.7654 67.4934 67.7308 67.4941 67.6988C67.5272 67.4663 67.553 67.2505 67.5726 67.0391C67.586 66.8042 67.5932 66.587 67.5946 66.3746L67.5773 65.0159C67.5726 64.9747 67.5679 64.9306 67.5648 64.8855L67.53 64.5856C67.4923 64.276 67.4584 63.9614 67.4257 63.6572C67.3931 63.3529 67.359 63.0373 67.3213 62.7272C67.3214 62.7229 67.3209 62.7187 67.3197 62.7145C67.2946 62.5103 67.2638 62.2669 67.227 62.0187C67.2142 61.9156 67.1986 61.8123 67.1835 61.7122C67.1781 61.6762 67.1729 61.6402 67.1678 61.6041L67.1286 61.3624C67.0539 60.9317 66.9636 60.5107 66.8599 60.1113L66.8128 59.9344L66.5394 58.56L66.2315 57.2075C66.0315 56.2991 65.8641 55.3774 65.7335 54.4681C65.5023 53.0471 65.2992 51.6044 65.1131 50.0573C65.103 49.981 65.0941 49.9123 65.0865 49.8437C64.9095 48.5035 64.7763 47.1179 64.6905 45.7251C64.5765 44.3753 64.5099 43.0029 64.4928 41.6459C64.4934 41.6168 64.5019 41.5884 64.5174 41.5638C64.5329 41.5391 64.5548 41.5191 64.5807 41.5059L64.5763 41.2441C64.5775 41.2103 64.5755 41.1764 64.5705 41.1429C64.5705 41.1429 64.5694 41.1447 64.569 41.1465C64.5685 41.1484 64.5679 41.1502 64.5675 41.1502C64.5637 41.109 64.5626 41.0676 64.5642 41.0262L64.5613 40.3001C64.5613 40.2372 64.5622 40.1973 64.5633 40.1943C64.2999 40.2126 64.0492 40.2214 63.7969 40.2214C63.4157 40.2214 63.0657 40.2019 62.6605 40.1793H62.6545C62.5562 40.1738 62.4548 40.1681 62.3493 40.1626L62.2118 40.1555C61.4695 40.1199 60.7299 40.0402 59.997 39.9168C59.9956 39.9352 59.9878 39.9526 59.9749 39.9658C59.9619 39.979 59.9447 39.9872 59.9263 39.989C59.8778 39.9911 59.8305 39.9917 59.785 39.9925H59.7818L59.7085 39.9938L59.7352 40.0957C59.7379 40.1183 59.7319 40.141 59.7185 40.1594C59.7051 40.1778 59.6853 40.1904 59.6629 40.1947L59.4534 40.2041C59.356 40.2082 59.2278 40.2129 59.1006 40.2129C58.9383 40.2141 58.7761 40.2044 58.6151 40.1838C58.3664 40.1487 58.1207 40.0951 57.8799 40.0234C57.7257 39.9973 57.5731 39.9627 57.4227 39.9198C57.2037 39.8569 56.9819 39.7808 56.7673 39.7072H56.7661C56.5898 39.6468 56.4076 39.5843 56.2273 39.5293C56.0032 39.4796 55.7745 39.4535 55.545 39.4517C55.3515 39.451 55.1587 39.4734 54.9705 39.5183C54.8606 39.5444 54.7527 39.5758 54.649 39.6062C54.4232 39.6847 54.1873 39.7301 53.9486 39.7409C53.8456 39.7411 53.7431 39.7286 53.6432 39.7036C53.5472 39.6781 53.4532 39.6456 53.362 39.6062L53.2764 39.6003C53.2634 39.599 53.2478 39.5974 53.2318 39.5952C52.9179 39.5324 52.6154 39.4221 52.3347 39.2682C52.1631 39.1815 51.987 39.104 51.8071 39.036C51.7436 39.0204 51.6785 39.0124 51.6131 39.0122C51.5102 39.0124 51.4083 39.0332 51.3134 39.0733L51.273 39.0912L51.1144 39.2091C51.0542 39.2798 50.9923 39.3543 50.9248 39.4368L50.8317 39.5514C50.6722 39.7629 50.4778 39.9456 50.2569 40.0918C49.9973 40.341 49.6537 40.4839 49.2939 40.4923C49.2805 40.4923 49.267 40.4923 49.2535 40.4923C49.0506 40.4884 48.8496 40.4528 48.6577 40.3868C48.2269 40.5226 47.7782 40.5929 47.3266 40.5954C46.9647 40.5968 46.6046 40.545 46.2577 40.4417C45.9462 40.396 45.6424 40.3082 45.3545 40.1808C45.2151 40.1181 45.0797 40.0468 44.9492 39.9672C44.5864 40.1204 44.2312 40.3095 43.8878 40.4923H43.8867C43.7091 40.5866 43.5255 40.6847 43.3437 40.7758L43.2239 40.836C42.7385 41.0778 42.1715 41.3357 41.5859 41.3357C41.5442 41.3357 41.5026 41.3344 41.4619 41.3317C40.6914 41.2778 39.9243 41.1829 39.1639 41.0473C39.1569 41.047 39.15 41.046 39.1433 41.0441L39.0387 41.0265L38.6584 40.9598L38.3516 40.9028L38.1945 40.9628C37.7304 41.1427 37.2555 41.2937 36.7727 41.415C36.2988 41.536 35.8121 41.5999 35.323 41.6052C34.9748 41.6071 34.6279 41.5642 34.2907 41.4775C33.741 41.4135 33.2148 41.2185 32.7562 40.9089C32.7394 40.8973 32.7248 40.8866 32.709 40.8743C32.6376 40.8382 32.5693 40.7961 32.5048 40.7487L32.4916 40.7383L32.4796 40.7279L32.4733 40.7248C32.1408 40.5779 31.8633 40.3295 31.6807 40.0151C31.4982 39.7008 31.4198 39.3367 31.457 38.9751C31.4145 38.7343 31.4167 38.4878 31.4633 38.2478C31.2504 38.4992 31.0259 38.7569 30.7768 39.0362C29.7531 40.2688 28.9962 41.2419 28.3225 42.1916L28.1456 42.4429C27.7262 43.0345 27.3288 43.6587 26.963 44.2979C26.5721 44.9648 26.1996 45.5762 25.824 46.1671C25.3124 46.7326 24.8165 47.3138 24.35 47.895L24.1481 48.1485L23.4664 49.0454C22.9857 49.6147 22.5826 50.2454 22.2679 50.9208C22.0026 51.4145 21.7626 51.9118 21.5547 52.399C21.4947 52.5313 21.4313 52.6774 21.3553 52.8591C21.1314 53.4625 20.9462 54.0795 20.8008 54.7064C20.6836 55.1641 20.5996 55.6298 20.5494 56.0996L20.5337 56.2567C20.5138 56.4524 20.5004 56.6337 20.4929 56.8126C20.5329 56.8351 20.5703 56.862 20.6044 56.8927L20.7191 56.9337L20.8118 56.9612C21.0064 57.0215 21.1231 57.0869 21.1493 57.1497C21.1536 57.1597 21.1556 57.1706 21.155 57.1815C21.1545 57.1924 21.1515 57.203 21.1462 57.2125L20.843 57.7907C20.8787 57.8283 20.8865 57.8617 20.8682 57.8961C20.6629 58.2888 20.4536 58.6864 20.257 59.0601C20.2507 59.0734 20.241 59.0848 20.2288 59.0931C20.4019 59.1722 20.5706 59.2602 20.7345 59.3568C21.0251 59.5317 21.2833 59.7554 21.4979 60.0181C21.7235 60.1512 21.9379 60.3025 22.1389 60.4705C22.3864 60.7307 22.604 61.0178 22.7875 61.3264C22.9563 61.6169 23.0953 61.9237 23.2023 62.2422C23.2492 62.4115 23.2719 62.5865 23.2699 62.7621C23.2536 62.9769 23.1602 63.1785 23.0068 63.3296C22.8791 63.4353 22.7168 63.49 22.5512 63.4833C22.3106 63.4722 22.075 63.4101 21.8601 63.3011C21.7288 63.2498 21.6107 63.1697 21.5145 63.0667C21.4288 62.7072 21.3036 62.3583 21.1415 62.0262C20.9746 61.7045 20.7651 61.4068 20.5187 61.1411L20.5045 61.1316C20.1981 60.9967 19.8811 60.8572 19.5542 60.7499C19.5184 60.7569 19.4812 60.7622 19.4452 60.7674L19.4389 60.7683L19.4048 60.7733C19.4176 60.7882 19.4263 60.8062 19.4301 60.8255C19.4338 60.8448 19.4325 60.8647 19.4262 60.8833C19.4152 60.9023 19.3995 60.918 19.3806 60.929C19.3617 60.9401 19.3403 60.9459 19.3184 60.9461C18.9769 61.0134 18.6297 61.0472 18.2817 61.0473C18.1293 61.0473 17.9743 61.0407 17.8211 61.0278L17.0577 60.9198C16.7408 61.0419 16.4377 61.197 16.1533 61.3827L16.059 61.4455L16.0416 61.4581C15.3105 62.0618 14.7302 62.8277 14.3467 63.6949C14.3104 63.7753 14.2779 63.8508 14.2473 63.9262L14.2002 64.0436L14.197 64.0499C13.9519 65.0567 13.9171 66.1034 14.0949 67.1244C14.2672 68.1473 14.5968 69.1375 15.072 70.0597C15.581 70.8744 16.1157 71.6776 16.6616 72.4488L17.1988 73.1511C17.5205 73.4537 17.834 73.7628 18.1303 74.0699C18.1713 74.111 18.2182 74.1555 18.2779 74.2097C18.4346 74.3132 18.5983 74.4055 18.7679 74.4861C18.8363 74.5094 18.9025 74.5295 18.9642 74.546C19.2798 74.6982 19.6241 74.7818 19.9744 74.791C20.0583 74.7965 20.1429 74.7994 20.2257 74.7994C20.601 74.7994 20.974 74.7417 21.3317 74.6281L21.419 74.5992L21.4834 74.5758C21.7296 74.4158 21.9549 74.2259 22.1542 74.0104C22.1698 73.9962 22.1882 73.9853 22.2082 73.9784C22.2281 73.9716 22.2493 73.9688 22.2704 73.9705C22.3107 73.9713 22.3508 73.9773 22.3896 73.9884C22.4545 73.9216 22.506 73.8643 22.5516 73.8077C22.5607 73.7977 22.5718 73.7898 22.5842 73.7844C22.5966 73.779 22.61 73.7762 22.6235 73.7763C22.6467 73.7765 22.6692 73.7837 22.6882 73.7969C22.6938 73.7963 22.6994 73.7959 22.705 73.7959C22.7912 73.8066 22.8743 73.8344 22.9496 73.8775C23.025 73.9207 23.0909 73.9784 23.1437 74.0473C23.1512 74.0602 23.1544 74.0752 23.1529 74.09C23.1515 74.1049 23.1455 74.1189 23.1357 74.1302C23.1248 74.1475 23.1129 74.1641 23.1002 74.1802C23.093 74.1894 23.0845 74.2001 23.0776 74.2105C23.148 74.2461 23.2162 74.286 23.2818 74.3299C23.5812 74.4129 23.9909 74.6811 24.0532 74.8072C24.0572 74.8135 24.0597 74.8205 24.0608 74.8278C24.0619 74.8351 24.0614 74.8425 24.0594 74.8496L24.0545 74.8575C23.9815 74.9976 23.8798 75.1207 23.756 75.2188L23.7144 75.2502L23.6217 75.3146C23.7458 75.3931 23.8127 75.4577 23.8208 75.5079C23.8222 75.5165 23.8218 75.5254 23.8194 75.5338C23.817 75.5421 23.8128 75.5499 23.8071 75.5565C23.783 75.6047 23.7552 75.651 23.7238 75.6949C23.9621 75.9892 24.2152 76.3056 24.5202 76.6906C24.7833 77.2606 25.1123 77.7979 25.5006 78.2912C25.8242 78.8254 26.2189 79.3132 26.6739 79.7411C26.6995 79.7668 26.7261 79.7919 26.7525 79.8163L26.7555 79.8191L26.7892 79.8505C27.11 80.0876 27.4554 80.3183 27.8453 80.5563L28.0034 80.6516L28.0287 80.6666L28.0305 80.6677C28.1147 80.7164 28.219 80.7776 28.1605 80.8857C28.1537 80.9 28.1441 80.9128 28.1322 80.9234C28.3679 81.0776 28.6093 81.221 28.8484 81.3492L28.8718 81.3637C28.9373 81.4054 29.0153 81.4688 29.016 81.5327C29.0146 81.5508 29.0086 81.5683 28.9985 81.5835C28.9884 81.5987 28.9745 81.611 28.9583 81.6192C28.9394 81.6306 28.9175 81.6361 28.8955 81.6349C28.7623 81.6349 28.5361 81.484 28.4145 81.4028L28.4037 81.3956C28.3732 81.394 28.3431 81.3882 28.3141 81.3784C28.3471 81.396 28.3806 81.415 28.4128 81.4334L28.4547 81.4573L28.526 81.4962C28.5347 81.5014 28.7357 81.6219 28.7284 81.7162C28.7262 81.7447 28.704 81.7677 28.6625 81.7842C28.6512 81.7851 28.6399 81.7856 28.6289 81.7856C28.5494 81.7852 28.4718 81.7605 28.4067 81.7149C28.3176 81.6711 28.2257 81.6224 28.1333 81.5702C28.1415 81.5805 28.1472 81.5924 28.1501 81.6052C28.153 81.6179 28.153 81.6311 28.1502 81.6439C28.1442 81.6573 28.1354 81.6692 28.1243 81.6788C28.1132 81.6884 28.1002 81.6954 28.0861 81.6993C28.079 81.6993 28.0721 81.6993 28.0652 81.6993C28.0454 81.6993 28.0257 81.698 28.0061 81.6956C28.1879 81.8112 28.3748 81.9196 28.5779 82.0269L28.6093 82.0466C28.7062 82.1095 28.7576 82.1668 28.7617 82.2171C28.7624 82.2311 28.7597 82.2452 28.7539 82.258C28.7481 82.2709 28.7394 82.2821 28.7284 82.2909C28.7066 82.3089 28.6789 82.318 28.6508 82.3165C28.5136 82.2909 28.3842 82.2343 28.2722 82.1511L28.2446 82.1337L28.0151 81.997C27.9971 82.0044 27.9779 82.0087 27.9585 82.0097C27.9871 82.0273 28.0163 82.0462 28.0419 82.063C28.0809 82.0883 28.1205 82.1145 28.1627 82.1384L28.2589 82.1907C28.3498 82.241 28.4733 82.3175 28.497 82.4009C28.5007 82.4133 28.5018 82.4264 28.5002 82.4393C28.4987 82.4523 28.4945 82.4647 28.4879 82.4759C28.4782 82.4926 28.464 82.5061 28.447 82.5151C28.43 82.524 28.4108 82.528 28.3916 82.5265C28.2956 82.5151 28.2039 82.4802 28.1246 82.425L27.9973 82.3465L27.9945 82.3448C27.9898 82.342 27.9852 82.3391 27.9804 82.3366L27.9753 82.3555C27.9742 82.3588 27.9727 82.362 27.9708 82.3649C27.9612 82.382 27.947 82.396 27.9299 82.4054C27.9127 82.4148 27.8932 82.4192 27.8737 82.418C27.7977 82.4103 27.7248 82.3839 27.6616 82.341L27.5798 82.2911C27.4315 82.2017 27.2978 82.1213 27.1657 82.0397L26.9615 81.9141H26.9584C26.2556 81.5121 25.5924 81.0445 24.9776 80.5176C24.61 80.1921 24.2627 79.8442 23.9378 79.4761C23.2677 78.721 22.7718 77.8516 22.3214 77.0256C22.3142 77.0126 22.3222 76.9799 22.3434 76.9359C22.2963 76.8371 22.2457 76.7302 22.1911 76.6091C21.8036 76.7129 21.404 76.7642 21.0029 76.7617C20.8919 76.7617 20.7796 76.758 20.6691 76.7507C20.4009 76.7322 20.1351 76.6869 19.8759 76.6155C19.0344 76.4736 18.2346 76.1475 17.5338 75.6605C17.5075 75.6435 17.4826 75.6254 17.4588 75.6078C17.4431 75.5967 17.4264 75.5841 17.4098 75.5727C17.1201 75.4091 16.8456 75.2198 16.5898 75.0072C16.0818 74.5864 15.6051 74.1291 15.1635 73.639C14.8456 73.262 14.5434 72.8667 14.265 72.4656C14.0129 72.1124 13.7545 71.7539 13.5045 71.4074L13.4011 71.264C12.6016 69.9963 12.0857 68.5708 11.8886 67.0851C11.7894 66.5421 11.7437 65.9908 11.7521 65.4389C11.761 65.036 11.804 64.6346 11.8809 64.239L11.8555 64.2143C11.8187 64.1788 11.7812 64.1424 11.7443 64.1056C11.7202 64.1479 11.7011 64.1692 11.6877 64.1692C11.686 64.1692 11.6842 64.1688 11.6827 64.1681C11.6811 64.1674 11.6796 64.1664 11.6784 64.1651L11.3184 63.805C11.0507 63.541 10.8094 63.2517 10.5977 62.941C10.1367 62.2752 9.7743 61.5462 9.52175 60.7766C9.33099 60.2 9.21022 59.6026 9.16204 58.9971C9.14633 58.8993 9.13062 58.7951 9.11805 58.6906C9.0443 57.8859 9.08332 57.0748 9.23398 56.2809C9.23594 56.259 9.24347 56.238 9.25584 56.2199C9.26822 56.2017 9.28502 56.1871 9.30466 56.1772C9.31252 56.1215 9.32194 56.064 9.3309 56.0082L9.33514 55.982C8.81369 55.4455 8.3824 54.8282 8.05793 54.1541C7.73433 53.4657 7.57973 52.7101 7.60696 51.9499C7.62323 51.4451 7.73195 50.9475 7.92771 50.4819L7.95175 50.4294C7.52469 50.3588 7.12248 50.1812 6.78261 49.9131C6.43066 49.6353 6.12506 49.3033 5.87721 48.9296C5.83197 48.894 5.78721 48.8572 5.74417 48.8197C4.91055 48.1078 4.23621 47.0675 3.73765 45.7279C3.42049 45.0376 3.21413 44.3016 3.12614 43.547C3.12174 43.5087 3.11844 43.4701 3.1153 43.4325V43.4319C3.11404 43.4162 3.11263 43.4005 3.11137 43.3848C2.89831 42.1921 2.84102 40.9767 2.94094 39.7693C2.72165 39.0257 2.55087 38.2686 2.42965 37.5028C2.37829 37.1693 2.33729 36.8087 2.30399 36.4001L2.30069 36.3798L2.29598 36.3137L2.28263 36.1489C2.28043 36.1218 2.2787 36.0941 2.27713 36.0673C2.2127 35.2316 2.20745 34.3924 2.26142 33.556C2.31555 32.7243 2.42104 31.8967 2.57731 31.078C2.90002 29.4349 3.37941 27.8266 4.00892 26.275C4.12029 25.9871 4.23323 25.7053 4.34475 25.4378L4.46712 25.1481C5.37519 23.6837 6.62522 22.4121 7.83394 21.1824C8.28224 20.7268 8.74594 20.2546 9.17916 19.7853C9.2642 19.6988 9.32097 19.5885 9.34198 19.469C9.36299 19.3495 9.34724 19.2265 9.29681 19.1161C9.24751 18.9985 9.16602 18.8972 9.06171 18.8238C8.9574 18.7504 8.8345 18.708 8.70714 18.7013C8.62771 18.7029 8.54952 18.7212 8.4777 18.7552C8.40587 18.7891 8.34205 18.8379 8.29041 18.8983C7.87195 19.3513 7.43417 19.8046 7.01069 20.2429V20.2436C6.36541 20.9115 5.6983 21.6021 5.08177 22.3106C4.9561 22.3198 4.84049 22.3243 4.72881 22.3243C4.66457 22.3243 4.60111 22.3227 4.54032 22.3198C4.23123 22.3038 3.92475 22.2548 3.62612 22.1735C2.89599 22.0588 2.2042 21.77 1.60923 21.3316C1.19761 21.1443 0.832321 20.8686 0.53937 20.524C0.244106 20.1804 0.0654729 19.752 0.0291791 19.3004C0.0220512 19.2074 0.0220512 19.1141 0.0291791 19.0211C-0.0435145 18.5537 0.0203026 18.0753 0.212961 17.6434C0.246316 17.5208 0.289387 17.401 0.341765 17.2852C0.501544 16.9239 0.750763 16.6093 1.0659 16.371L1.07171 16.3676H1.07249C1.07728 16.3651 1.08185 16.3622 1.08616 16.3589L1.10658 16.3376C1.13187 16.311 1.1581 16.2834 1.18669 16.259C1.24042 16.2101 1.29707 16.1646 1.35634 16.1225C1.14121 15.7731 0.951345 15.4086 0.788182 15.0321C0.618693 14.6237 0.511113 14.1924 0.468999 13.7522C0.44976 13.578 0.439275 13.403 0.437583 13.2277C0.428473 13.1506 0.421875 13.0751 0.415592 12.9841C0.367164 12.3558 0.457801 11.7246 0.681055 11.1353C0.692364 11.1065 0.705559 11.0783 0.719382 11.0483C0.726608 11.0326 0.733833 11.0169 0.740745 11.0011C0.784107 10.8675 0.834976 10.7364 0.893111 10.6085C1.12127 10.1238 1.45195 9.69454 1.86229 9.35025C2.0837 9.12743 2.33042 8.93127 2.59741 8.76577C2.76509 8.66249 2.94237 8.5757 3.12677 8.50659C3.47497 8.3136 3.8586 8.19301 4.25459 8.15206H4.27328C4.29072 8.15206 4.30784 8.153 4.32433 8.15379C4.34083 8.15457 4.35826 8.15552 4.37554 8.15552C4.41685 7.02345 4.58241 6.1402 4.88133 5.45518C4.98064 5.16465 5.11337 4.88664 5.27686 4.62675C5.43691 4.37362 5.63658 4.14785 5.86826 3.95806C6.15305 3.66014 6.50347 3.43283 6.89162 3.29425L6.96608 3.26849L6.99435 3.26079C7.36424 3.08778 7.7687 3.00134 8.177 3.00805H8.19129C8.24328 3.00538 8.29622 3.00397 8.34837 3.00397C8.7811 2.99954 9.20846 3.10006 9.59385 3.29692C9.68762 3.34761 9.77836 3.40373 9.86559 3.46499C9.9351 3.32505 10.0117 3.18874 10.0951 3.05659C10.3974 2.57672 10.7654 2.14153 11.1883 1.76368C11.2218 1.73336 11.2581 1.70446 11.2933 1.6765C11.3101 1.66315 11.3289 1.64822 11.347 1.63346C11.5524 1.44731 11.7696 1.27468 11.9973 1.11667C12.4816 0.780389 13.0175 0.525201 13.5838 0.361123C14.1728 0.142795 14.796 0.0310447 15.4241 0.0311015C15.4835 0.0311015 15.5438 0.0322011 15.6034 0.034086L15.7447 0.040055C15.7744 0.0428824 15.8038 0.0444532 15.8322 0.0458669H15.8376C16.5213 0.0963707 17.1931 0.252143 17.8293 0.507678C18.4728 0.775238 19.0648 1.15261 19.579 1.62293C19.705 1.44695 19.8504 1.28571 20.0125 1.14227C20.044 1.11463 20.0777 1.08871 20.1101 1.06374C20.1277 1.05007 20.145 1.03656 20.1619 1.02305C20.1962 0.988652 20.2336 0.953781 20.2797 0.913097C20.4657 0.748856 20.6671 0.603131 20.8813 0.47799C21.1233 0.337444 21.3856 0.235231 21.6589 0.174985C21.9375 0.0798942 22.2275 0.0222137 22.5212 0.00345573C22.5589 0.00125663 22.5984 0 22.6384 0C22.7211 0 22.8101 0.00471235 22.9106 0.0146083C23.0546 0.0196668 23.1981 0.0356828 23.3396 0.0625172C24.0638 0.207642 24.7223 0.581456 25.2181 1.12892C25.2262 1.13731 25.2339 1.14612 25.2411 1.15531C25.2459 1.16128 25.2508 1.16741 25.2558 1.17291C25.49 1.35028 25.7077 1.54848 25.9061 1.76509L25.9416 1.73101L25.9426 1.73006C25.9643 1.70917 25.9866 1.68749 26.0098 1.66629C26.1135 1.57518 26.2228 1.488 26.335 1.40711C26.8066 1.00182 27.3617 0.705212 27.9607 0.538308L28.0424 0.516317C28.0579 0.51185 28.0736 0.50818 28.0895 0.505322C28.5108 0.364817 28.952 0.293212 29.3961 0.293266H29.409C29.4525 0.291852 29.4966 0.291224 29.5403 0.291224C30.0365 0.288632 30.5283 0.383856 30.9876 0.571452C31.5776 0.823505 32.106 1.20027 32.5366 1.67587C32.8205 1.91369 33.0877 2.17086 33.3361 2.44555C33.8847 3.02542 34.3091 3.7112 34.5833 4.46087C34.6182 4.55842 34.651 4.66366 34.6838 4.78273C35.3723 4.70309 36.0451 4.64968 36.6834 4.62392C37.2089 4.5925 37.7216 4.57601 38.2071 4.57601C38.4514 4.57601 38.6955 4.58009 38.9323 4.58811C40.9925 4.65337 43.0316 5.02392 44.983 5.68765C45.3758 5.80319 45.7578 5.95239 46.125 6.1336C46.701 6.36327 47.2495 6.65674 47.7601 7.00853L48.1978 7.26802C48.3946 7.38489 48.626 7.52375 48.8503 7.66669C49.3564 7.99309 49.839 8.35474 50.2943 8.74896C50.7743 9.13928 51.2306 9.55785 51.6609 10.0024C51.7658 10.1097 51.8747 10.2252 52.0032 10.3659C52.9995 10.9129 53.9108 11.6022 54.7082 12.4122C56.0984 11.6067 57.5844 10.9793 59.1312 10.5448C59.7977 10.3609 60.4757 10.2218 61.1607 10.1284C61.4447 10.0794 61.7499 10.0362 62.0937 9.99632L62.0812 10.0012C62.2869 9.97904 62.4966 9.95909 62.7409 9.93836L62.7344 9.93679L62.778 9.93333C62.8565 9.92689 62.9385 9.92029 63.0187 9.91495L63.2481 9.8961H63.252C63.3232 9.8961 63.418 10.0551 63.4248 10.1082L63.4327 10.1663C63.4641 10.2024 63.4947 10.2406 63.5212 10.2742C63.537 10.2935 63.5527 10.3131 63.5646 10.3282C63.6064 10.3249 63.6472 10.3218 63.687 10.3202H63.6958C63.7933 10.3202 63.9034 10.4603 63.9761 10.5532C63.9933 10.575 64.0094 10.5956 64.0233 10.6113L64.0886 10.6881C64.1701 10.7724 64.2259 10.8781 64.2495 10.993C64.3322 11.6661 64.4078 12.325 64.4741 12.9516C64.501 13.4432 64.4736 13.9363 64.3924 14.4218C64.3285 14.914 64.262 15.4114 64.2055 15.834C64.1065 16.159 64.0088 16.4844 63.9143 16.7992L63.907 16.8236C63.8767 16.9203 63.8434 17.0174 63.8111 17.1112C63.8011 17.14 63.7912 17.1687 63.7814 17.1974C63.5347 18.0216 63.2353 18.829 62.8849 19.6147C63.1386 19.8955 63.3778 20.1891 63.6014 20.4943L63.6156 20.5091C63.6628 20.558 63.7124 20.6082 63.757 20.6596C63.771 20.6373 63.7905 20.6189 63.8136 20.6062C63.8301 20.5986 63.848 20.5946 63.8662 20.5942C63.8922 20.5968 63.9171 20.6057 63.9389 20.6201C63.9607 20.6346 63.9786 20.6541 63.9911 20.677C64.476 21.1353 64.8453 21.7021 65.0686 22.3309L65.2076 22.6594C65.234 22.7222 65.2559 22.7747 65.2761 22.8241C65.4506 23.3022 65.5934 23.7912 65.7034 24.2881C65.8036 24.6781 65.8771 25.0745 65.9233 25.4745C66.2781 26.6661 66.5536 27.8825 66.7839 28.9291C66.8224 29.0891 66.8095 29.257 66.747 29.4092L66.8948 29.5534L67.1477 29.8047C67.5893 30.2165 67.9829 30.6769 68.3211 31.1771C68.5667 31.5881 68.7876 32.0133 68.9829 32.4505C69.0391 32.5701 69.0969 32.6931 69.1556 32.814L69.2131 32.932L69.3308 33.1676C69.4467 33.3982 69.5471 33.6361 69.6316 33.8799C69.8124 34.3945 69.9249 34.9306 69.9662 35.4744C70.0069 35.8842 70.0109 36.2969 69.978 36.7074C69.9477 37.1191 69.8448 37.5222 69.674 37.898C69.6724 37.9037 69.6698 37.909 69.6663 37.9137C69.5875 38.2744 69.4476 38.6189 69.2529 38.9325C69.0602 39.2454 68.8072 39.5169 68.5086 39.7311C68.3826 39.8516 68.2435 39.9575 68.0938 40.0468C67.8973 40.1684 67.6708 40.2329 67.4397 40.2333C67.3005 40.2316 67.1619 40.2128 67.0272 40.1774L66.9784 40.1647C66.9236 40.1505 66.8819 40.1403 66.8435 40.1317C66.8863 40.167 66.9063 40.1995 66.9025 40.2276C66.8995 40.2514 66.8796 40.2718 66.8435 40.2886C66.7651 40.3283 66.6807 40.3548 66.5937 40.3671C66.602 40.3759 66.6082 40.3865 66.6119 40.3979C66.6156 40.4094 66.6167 40.4216 66.6152 40.4336C66.611 40.4468 66.6039 40.4589 66.5945 40.4691C66.5852 40.4794 66.5737 40.4874 66.5609 40.4928C66.4659 40.5486 66.3584 40.5798 66.2483 40.5836C66.2193 40.5836 66.1904 40.581 66.1619 40.5759L66.1883 40.7944C66.2777 41.5119 66.3623 41.9753 66.4442 42.4234C66.5795 43.1263 66.6783 43.8356 66.7399 44.5487C66.8468 46.3664 67.0184 48.195 67.2504 49.9836L67.331 50.6394C67.5795 52.6384 67.872 54.7752 68.3249 56.8572C68.5467 57.74 68.7421 58.6479 68.9061 59.5574C69.1364 60.2444 69.298 60.9527 69.3883 61.6717C69.518 62.4046 69.6087 63.1439 69.66 63.8865C69.8379 64.3501 69.9275 64.8429 69.9239 65.3395C69.9478 66.0011 69.9247 66.6636 69.8548 67.322C69.8152 68.007 69.7206 68.6877 69.5721 69.3575C69.438 70.2756 69.1944 71.1744 68.8464 72.0345C68.5641 72.9982 68.2264 73.9448 67.8348 74.8696C67.227 76.2855 66.5025 77.6484 65.6687 78.9442C64.9024 80.1795 64.0433 81.3547 63.0989 82.4598C61.8599 83.8959 60.4553 85.1802 58.9143 86.286C58.036 86.9377 57.1068 87.5177 56.1356 88.0203C54.9611 88.6496 53.7286 89.164 52.4552 89.5564C51.6525 89.783 50.8354 89.9552 50.0095 90.0718C49.2829 90.1785 48.5494 90.2318 47.815 90.2314ZM19.0574 43.0491C19.1669 43.0669 19.2712 43.1087 19.3627 43.1715C19.3848 43.1827 19.4043 43.1985 19.4197 43.2179C19.4352 43.2373 19.4463 43.2598 19.4522 43.2839C19.4531 43.3045 19.4495 43.3249 19.4416 43.3439C19.4337 43.3629 19.4218 43.38 19.4067 43.3939C19.3922 43.4096 19.3781 43.4253 19.3643 43.4394C19.4695 43.4841 19.5695 43.54 19.6627 43.6061C19.9232 43.6636 20.2628 43.8796 20.2964 43.9831C20.2991 43.9893 20.3001 43.9962 20.2991 44.0029C20.2982 44.0096 20.2955 44.016 20.2912 44.0212C20.1555 44.1626 20.0127 44.3181 19.8545 44.497C19.9645 44.5743 20.0309 44.6425 20.036 44.6838C20.0367 44.6883 20.0364 44.6929 20.0352 44.6973C20.034 44.7017 20.0318 44.7058 20.0289 44.7092C19.417 45.3539 18.8502 46.0398 18.3324 46.7621C17.9393 47.3009 17.582 47.865 17.2629 48.4507C16.795 49.2751 16.383 50.1299 16.0297 51.0095C15.9761 51.1523 15.9284 51.2833 15.8836 51.4102C15.6211 52.1403 15.3969 52.8835 15.2119 53.637C15.0272 54.3904 14.8921 55.1551 14.8076 55.9262L14.8007 56.0302C14.7895 56.233 14.7807 56.5622 14.7715 56.9106V56.9127C14.7558 57.5176 14.7372 58.2032 14.7008 58.4283C15.0507 58.6008 15.413 58.7468 15.7846 58.8652C15.8519 58.8846 15.9243 58.9036 15.9998 58.9217C16.0409 58.9047 16.0828 58.8899 16.1255 58.8776C16.4705 58.7362 16.832 58.6391 17.2015 58.5885C17.4012 58.5623 17.6024 58.5492 17.8039 58.5493C17.851 58.5493 17.8981 58.5493 17.9452 58.5513L18.0513 58.5554C18.1537 58.5582 18.2611 58.5656 18.3797 58.5775C18.3753 58.534 18.3725 58.491 18.3697 58.4492C18.3684 58.4297 18.367 58.4103 18.3656 58.3905C18.3497 58.3819 18.3362 58.3695 18.3263 58.3544C18.3164 58.3393 18.3105 58.3219 18.309 58.3039C18.2354 57.5991 18.2338 56.8885 18.3042 56.1834C18.3477 55.8433 18.4006 55.482 18.4661 55.0793C18.5222 54.8026 18.5905 54.5097 18.6749 54.1839C18.8812 53.3515 19.1506 52.5361 19.4807 51.7446C20.4451 49.4175 21.8664 47.2836 23.1202 45.4017C23.4896 44.8465 23.8575 44.2779 24.2131 43.7281C24.8088 42.8072 25.4247 41.855 26.0654 40.9406C27.034 39.5583 27.9368 38.3708 28.8254 37.3121C29.7938 36.1451 30.8335 35.0392 31.9387 34.0009C32.1106 33.8426 32.2884 33.6842 32.4822 33.5171C33.5422 32.6011 34.6748 31.7727 35.8688 31.04C35.8813 31.0322 35.8958 31.0283 35.9105 31.0287C35.9678 31.0351 36.0215 31.0599 36.0636 31.0993L36.2556 30.9814C36.2937 30.9581 36.3245 30.9398 36.3525 30.9236C36.3582 30.9199 36.3648 30.9179 36.3716 30.9179C36.3845 30.9204 36.3967 30.9257 36.4072 30.9334C36.4178 30.9412 36.4264 30.9513 36.4326 30.9628C36.5 30.9278 36.5677 30.8939 36.6332 30.8611L36.6776 30.8387C36.712 30.8109 36.7477 30.7835 36.7821 30.7569L36.7838 30.7557L36.7851 30.7547C36.8093 30.7362 36.8342 30.7169 36.8586 30.6977C35.9901 30.6539 35.1001 30.5877 34.2135 30.5018C33.2386 30.6061 32.2854 30.706 31.3809 30.8003C30.7683 30.8708 30.1593 30.9321 29.573 30.9825C29.1251 31.0159 28.7216 31.0323 28.3394 31.0323C27.8437 31.0346 27.3484 31.0028 26.8571 30.9371C26.5388 30.8928 26.2232 30.8314 25.9115 30.7533C25.7132 30.8986 25.4985 31.0431 25.2549 31.1948L22.7603 33.1032C21.0677 34.4037 19.4693 35.8225 17.9773 37.349C16.6887 38.69 15.5289 40.1489 14.5131 41.7067C13.4982 43.2634 12.6525 44.9241 11.9904 46.6605C11.9238 46.7018 11.8674 46.7576 11.8254 46.8238C11.7834 46.89 11.7569 46.9648 11.7479 47.0426C11.6104 47.7605 11.4145 48.4659 11.1621 49.1517C10.9188 49.816 10.7269 50.4979 10.5882 51.1916C10.4649 51.8409 10.485 52.5094 10.6472 53.1502C10.8214 53.7874 11.1282 54.3806 11.5474 54.8911C11.5982 54.9511 11.6621 54.9988 11.7341 55.0303C11.8062 55.0618 11.8845 55.0763 11.9631 55.0728C12.1026 55.0729 12.2391 55.0321 12.3558 54.9555C12.365 54.973 12.3789 54.9877 12.396 54.9978C12.4131 55.0079 12.4327 55.013 12.4525 55.0127C12.5508 55.0127 12.6757 54.8997 12.7313 54.5827C13.1327 54.1728 13.4554 53.6927 13.6834 53.1662C13.7174 53.0948 13.7344 53.0165 13.733 52.9375C13.7316 52.8584 13.7119 52.7808 13.6754 52.7107C13.6268 52.6332 13.5616 52.5675 13.4845 52.5183C13.4074 52.4691 13.3203 52.4377 13.2296 52.4264C13.3727 51.9113 13.5342 51.4027 13.7096 50.914C14.2344 49.4319 14.9241 48.0135 15.7658 46.6855C16.52 45.5454 17.3709 44.4722 18.3089 43.4778C18.3222 43.4642 18.3402 43.4564 18.3591 43.4559L18.5523 43.2421C18.561 43.2339 18.5712 43.2277 18.5825 43.2237C18.5937 43.2198 18.6057 43.2183 18.6175 43.2194C18.6438 43.22 18.6699 43.2239 18.6953 43.231C18.7192 43.2059 18.7434 43.1798 18.7647 43.1568L18.7661 43.1554C18.7997 43.1193 18.8345 43.0819 18.8696 43.0455C18.8792 43.0337 18.8912 43.0241 18.9047 43.0173C18.9182 43.0105 18.933 43.0065 18.9482 43.0057C18.9643 43.0065 18.98 43.011 18.9939 43.0191C19.0079 43.0271 19.0197 43.0384 19.0285 43.0519C19.038 43.0499 19.0476 43.049 19.0574 43.0491ZM40.4192 20.7782C40.2401 20.8774 40.0671 20.987 39.9009 21.1066C39.6828 21.2829 39.478 21.475 39.2883 21.6815C38.8475 22.1725 38.4918 22.7337 38.2359 23.3419C38.1376 23.6719 38.0656 24.0091 38.0207 24.3505C38.0122 24.421 38.0023 24.5046 37.9939 24.5892C37.9216 25.3905 37.9881 26.1982 38.1908 26.9768C38.3938 27.754 38.7009 28.5003 39.1036 29.1954H39.135C39.8505 28.8087 40.5965 28.4813 41.3655 28.2165C41.9824 27.801 42.621 27.4188 43.2787 27.0714C44.6737 26.3354 46.1504 25.766 47.6785 25.3749L47.8545 25.3308C48.205 25.2413 48.5697 25.1596 48.9384 25.0878L49.1567 25.0466H49.1599L49.1363 24.8124C48.8719 23.1517 48.017 21.6421 46.7286 20.5613L46.7255 20.5595C46.4597 20.4098 46.1815 20.2831 45.8941 20.1808L45.786 20.1433L45.2865 20.0302C44.879 19.9482 44.4645 19.9066 44.0489 19.9061C43.7439 19.9063 43.4394 19.9289 43.1378 19.9736C42.8274 20.019 42.5252 20.0734 42.2388 20.1351C42.9277 20.7394 43.4659 21.4964 43.8104 22.3455C43.8568 22.4424 43.8778 22.5494 43.8713 22.6567C43.8648 22.7639 43.831 22.8676 43.7732 22.9581C43.6796 23.0753 43.5574 23.1663 43.4183 23.2223C43.2792 23.2783 43.128 23.2974 42.9793 23.2778C42.8306 23.2581 42.6896 23.2004 42.5698 23.1102C42.45 23.02 42.3556 22.9003 42.2957 22.7629C41.9339 21.8941 41.2663 21.1881 40.4192 20.7782ZM25.9104 28.6651C26.2151 28.7892 26.5314 28.8826 26.8547 28.9439C26.9909 28.9694 27.1405 28.992 27.3117 29.0129L27.3321 29.0264C27.3355 29.0289 27.3392 29.0316 27.3426 29.0344H27.5094C27.7765 29.0601 28.0592 29.0733 28.3462 29.0733C29.2531 29.057 30.1568 28.9613 31.047 28.7873C32.0223 28.6893 33.0138 28.5831 33.9727 28.4813L33.9815 28.4804C34.6496 28.4091 35.3406 28.3354 36.0226 28.2647H36.0309C36.0543 28.2647 36.0666 28.2763 36.0666 28.2982L36.1687 28.2887C36.1733 28.2885 36.1779 28.2885 36.1825 28.2887C36.2326 28.2962 36.2796 28.3173 36.3184 28.3498C36.3572 28.3823 36.3863 28.4249 36.4024 28.4728C36.4138 28.4953 36.4175 28.5208 36.413 28.5456C36.4086 28.5703 36.3961 28.5929 36.3776 28.61C36.4639 28.665 36.5445 28.7287 36.6179 28.8L36.6555 28.7967C36.4286 28.3514 36.2511 27.8826 36.1261 27.3987L35.9659 26.5851C35.9212 26.2717 35.8965 25.9559 35.8919 25.6395C35.8789 25.4649 35.8731 25.341 35.8731 25.2372C35.8731 25.1079 35.8751 25.0001 35.8794 24.898C35.5675 24.7692 35.2493 24.6565 34.9259 24.5602L34.2153 24.4728L34.1964 24.4705C33.5326 24.3888 32.8455 24.3044 32.1701 24.2226C31.6073 24.2433 31.0512 24.284 30.5176 24.3436C29.9077 24.3973 29.2799 24.4681 28.6516 24.554H28.6448C28.5536 24.53 28.4754 24.4712 28.4269 24.3902L28.1616 24.4265C28.1574 24.4268 28.1532 24.4268 28.1491 24.4265C28.0677 24.4265 27.9899 24.3299 27.9772 24.247C27.9704 24.2177 27.9753 24.1869 27.991 24.1613C28.0067 24.1357 28.0318 24.1172 28.0609 24.11C28.1238 24.0852 28.188 24.0607 28.2587 24.0351L28.3578 24L28.3011 24.0063H28.2929C28.2721 24.0054 28.2516 24.0011 28.2322 23.9936L28.185 23.9996H28.1839C28.0561 24.0153 27.924 24.0329 27.7953 24.0481C27.7876 24.0491 27.7797 24.0496 27.7719 24.0497C27.7495 24.052 27.727 24.0458 27.7089 24.0323C27.6908 24.0188 27.6785 23.999 27.6744 23.9768C27.669 23.9358 27.6765 23.8941 27.6958 23.8575C27.7152 23.8209 27.7454 23.7912 27.7823 23.7726L27.844 23.7496C27.8053 23.7259 27.7729 23.6932 27.7493 23.6544C27.7258 23.6156 27.7118 23.5717 27.7086 23.5264C27.7097 23.5067 27.7165 23.4877 27.7281 23.4717C27.7397 23.4556 27.7557 23.4433 27.7741 23.4361L27.792 23.4294C27.8319 23.4136 27.8715 23.3992 27.9098 23.3854C27.9328 23.377 27.9559 23.3689 27.9791 23.3601C27.9739 23.3416 27.9745 23.3219 27.9807 23.3037L27.7213 23.3365C27.7194 23.3365 27.7187 23.3365 27.7183 23.3348C27.7513 23.2599 27.8014 23.1937 27.8644 23.1416L27.8737 23.137L27.9978 23.0993C28.0333 23.0269 28.0862 22.9644 28.1517 22.9173C28.5887 22.78 29.0186 22.6484 29.4743 22.5464C29.4928 22.5208 29.5194 22.502 29.5497 22.493C29.802 22.4328 30.0755 22.3799 30.3854 22.3314C30.4074 22.2981 30.4259 22.2825 30.4451 22.281C30.8943 22.224 31.3467 22.1953 31.7996 22.1952C32.0413 22.1952 32.2865 22.2035 32.5295 22.22C32.674 22.2335 32.805 22.2478 32.9301 22.2638C33.2093 22.2952 33.4602 22.3319 33.6966 22.3771C34.3327 22.4861 34.9574 22.6535 35.5628 22.8771L35.7025 22.9298C35.869 22.9917 36.0166 23.051 36.1549 23.1106C36.231 22.8408 36.3249 22.5764 36.436 22.319C36.4518 22.2718 36.47 22.2247 36.4926 22.1713L36.3402 22.0801C36.3299 22.1039 36.3138 22.1249 36.2934 22.141C36.2729 22.1571 36.2488 22.1679 36.2232 22.1724C36.2135 22.1726 36.204 22.17 36.1957 22.165C35.109 21.4314 33.9481 20.8143 32.7321 20.3239C32.051 20.0234 31.3516 19.7658 30.6383 19.5527C30.3222 19.4512 29.9798 19.3503 29.5607 19.2355C29.36 19.1934 29.1924 19.1589 29.0157 19.1285C28.0738 18.875 27.1104 18.7094 26.138 18.6339C25.433 18.5673 24.698 18.5335 23.9535 18.5335C23.2276 18.5335 22.466 18.5649 21.6895 18.629C20.7302 18.7233 19.7575 18.8582 18.7993 19.028C18.1531 19.1405 17.515 19.2954 16.8892 19.4916L17.2469 20.2141C17.8292 21.426 18.4737 22.607 19.1778 23.7523C19.5488 24.3361 19.9548 24.8968 20.3936 25.4315C20.6897 25.814 21.0182 26.1704 21.3754 26.4966C21.457 26.5961 21.5513 26.7008 21.6722 26.8249C21.9982 27.1067 22.3549 27.3506 22.7357 27.5522C23.042 27.7747 23.3652 27.973 23.7023 28.1455L23.8288 28.2083L25.0069 28.6605C25.0642 28.6763 25.131 28.6956 25.1971 28.713L25.2929 28.7377L25.4718 28.7752L25.6063 28.7023C25.6306 28.6893 25.6534 28.6777 25.6746 28.6668C25.6808 28.6633 25.6879 28.6614 25.695 28.6613C25.7205 28.6613 25.7398 28.6887 25.7469 28.7139C25.7487 28.7288 25.7454 28.7437 25.7374 28.7564L25.9091 28.6637L25.9104 28.6651ZM61.2419 25.017C61.2536 25.0169 61.265 25.0205 61.2746 25.0273L61.3811 25.101C62.2504 25.334 63.0759 25.7076 63.8247 26.207L63.8112 26.1086C63.8089 26.0922 63.8063 26.0757 63.8035 26.0596C63.8161 25.8671 63.8192 25.6726 63.8128 25.4814C63.6651 24.3948 63.3148 23.4039 62.8342 22.2503C62.8308 22.2379 62.8299 22.225 62.8317 22.2123C62.8335 22.1995 62.8379 22.1873 62.8446 22.1763C62.6222 21.812 62.3776 21.4618 62.1121 21.1277C61.9692 21.3749 61.8326 21.5972 61.6955 21.8072C60.9803 22.906 60.1317 23.9121 59.1692 24.8024H59.1903C59.4471 24.8024 59.6929 24.8132 59.9202 24.8346C60.3431 24.8746 60.7625 24.945 61.1753 25.0454C61.1938 25.0289 61.2172 25.0189 61.2419 25.017ZM52.9188 24.691C53.7653 24.6911 54.611 24.741 55.4516 24.8402C55.9439 24.5468 56.4186 24.2247 56.8731 23.8756C57.0036 23.7746 57.1377 23.6673 57.283 23.5472C58.0925 22.8416 58.8278 22.0553 59.4776 21.2004C60.0783 20.4097 60.6021 19.5634 61.0419 18.6732C61.4337 17.8364 61.7532 16.9677 61.997 16.0765C62.1978 15.27 62.3173 14.4454 62.3535 13.6151C62.3735 13.4689 62.3862 13.3234 62.3959 13.2004L62.3947 13.1412L62.3928 13.1124C62.3763 12.7999 62.3438 12.4876 62.3143 12.2234C61.9846 12.2833 61.6585 12.3609 61.3372 12.4559C60.7322 12.5469 60.1397 12.7077 59.5717 12.9349C58.8851 13.1786 58.1754 13.469 57.2706 13.8791C55.8008 14.5423 54.4215 15.3901 53.166 16.402C53.0839 16.4648 53.0034 16.5305 52.9324 16.5886C52.629 16.8512 52.3629 17.1019 52.1183 17.3553L51.831 17.6671L51.8271 17.6713C51.6543 17.8584 51.4763 18.0519 51.3015 18.2428C51.1788 18.3713 51.047 18.4974 50.9196 18.6198C50.6933 18.8272 50.4809 19.0492 50.2836 19.2844C50.223 19.3623 50.1683 19.4448 50.1203 19.5311L50.2977 19.5922C50.3339 19.6083 50.3633 19.6364 50.3811 19.6717C50.399 19.707 50.404 19.7473 50.3955 19.7859C50.3876 19.834 50.359 19.8854 50.3025 19.8854C50.2929 19.8853 50.2834 19.8839 50.2742 19.8813C50.2251 19.8671 50.1768 19.8503 50.1295 19.8312C50.1483 19.8532 50.1612 19.8796 50.1672 19.908C50.1694 19.9296 50.1671 19.9515 50.1607 19.9722C50.1542 19.993 50.1437 20.0123 50.1297 20.0289C50.1206 20.04 50.1093 20.0489 50.0964 20.0551C50.0836 20.0613 50.0695 20.0647 50.0552 20.0649C50.0453 20.0648 50.0355 20.0634 50.026 20.0606C49.9827 20.0487 49.9402 20.034 49.8988 20.0165C49.8854 20.0636 49.8781 20.1121 49.8769 20.161C49.8849 20.1646 49.8933 20.1673 49.9019 20.169C50.0434 20.2304 50.159 20.3393 50.2286 20.4769C50.2334 20.4958 50.2338 20.5155 50.2299 20.5345C50.2259 20.5536 50.2176 20.5715 50.2057 20.5869C50.1953 20.6007 50.1819 20.6119 50.1665 20.6197C50.1511 20.6275 50.1341 20.6316 50.1168 20.6318C50.1062 20.6318 50.0956 20.6304 50.0854 20.6275C50.0156 20.6075 49.9478 20.5812 49.8827 20.549C49.9235 20.5811 49.9523 20.6259 49.9644 20.6764C49.9663 20.7197 49.9511 20.762 49.922 20.7942C49.9127 20.8052 49.9011 20.8141 49.8881 20.8204C49.8751 20.8267 49.8609 20.8302 49.8465 20.8307C49.838 20.8306 49.8296 20.8294 49.8215 20.8272C49.6775 20.7895 49.5428 20.7227 49.4257 20.6308C49.4157 20.6465 49.4026 20.6598 49.3872 20.6701C49.3717 20.6805 49.3544 20.6874 49.3361 20.6907C49.3319 20.6907 49.3276 20.6901 49.3235 20.689L49.2623 20.67C49.2793 20.6857 49.2946 20.7023 49.3094 20.7182L49.3314 20.7421C49.7658 21.2086 50.1405 21.7273 50.4467 22.2865C50.4631 22.2693 50.481 22.2535 50.5001 22.2393C50.6257 22.133 50.7671 22.0194 50.9334 21.8909L50.9777 21.8523L51.0231 21.8136L50.6947 21.922L50.7021 21.9135C50.7074 21.9068 50.7151 21.8964 50.7245 21.884C50.7577 21.8381 50.7933 21.7939 50.8312 21.7518L50.8394 21.7444C51.2867 21.3435 51.7815 20.9991 52.3128 20.7188C52.6557 20.4966 53.0186 20.3067 53.3966 20.1516C54.2958 19.7463 55.2209 19.4011 56.1657 19.1182C56.2213 19.1003 56.2779 19.0816 56.3325 19.0634H56.334C56.4136 19.037 56.5038 19.0071 56.5898 18.9803C56.5976 18.9773 56.6059 18.9756 56.6142 18.9752C56.6171 18.975 56.62 18.9755 56.6228 18.9766C56.6255 18.9776 56.6279 18.9793 56.6299 18.9815C56.6324 18.9861 56.6339 18.9912 56.6343 18.9964C56.6347 19.0016 56.6339 19.0068 56.6321 19.0117L56.7061 18.9897C56.7171 18.9862 56.7286 18.9845 56.7402 18.9845C56.7908 18.9921 56.8388 19.0121 56.8799 19.0427C56.921 19.0732 56.9539 19.1135 56.9758 19.1598C56.9879 19.1792 56.994 19.2017 56.9934 19.2245C56.9929 19.2474 56.9856 19.2695 56.9726 19.2883C57.0221 19.3287 57.0752 19.3767 57.1261 19.4273L57.1596 19.4611L57.1971 19.4501C57.2073 19.447 57.2179 19.4456 57.2285 19.4457C57.3148 19.4457 57.4462 19.5362 57.6193 19.7145L57.7081 19.8087C57.747 19.8505 57.8383 19.9482 57.8209 20.0203C57.8152 20.0371 57.8053 20.0522 57.7922 20.0641C57.779 20.076 57.7631 20.0844 57.7458 20.0885L57.5432 20.1574C57.5502 20.2033 57.5274 20.2349 57.4693 20.2564C57.3958 20.2809 57.3229 20.3074 57.2604 20.3304C57.3009 20.3659 57.3413 20.4029 57.384 20.4435L57.4442 20.5014L57.4549 20.5123C57.5116 20.5697 57.6063 20.6659 57.5934 20.7394C57.5899 20.7542 57.5827 20.768 57.5725 20.7794C57.5623 20.7908 57.5495 20.7995 57.5351 20.8047L57.5164 20.8124L57.3232 20.8815C57.3301 20.8942 57.3343 20.9081 57.3355 20.9224C57.3367 20.9368 57.335 20.9512 57.3303 20.9648C57.3228 20.979 57.3124 20.9914 57.2999 21.0014C57.2874 21.0114 57.2729 21.0187 57.2574 21.0229C56.1309 21.4069 55.0275 21.8554 53.9525 22.3661C53.1493 22.8108 52.2904 23.1462 51.3984 23.3634C51.3911 23.3656 51.3835 23.3668 51.3759 23.3667C51.3183 23.3536 51.2639 23.3289 51.2162 23.2941C51.1685 23.2592 51.1284 23.215 51.0984 23.1641L50.9646 23.2035C50.94 23.2105 50.9174 23.2167 50.8975 23.222L50.8753 23.2269C51.0445 23.6805 51.1656 24.1506 51.2366 24.6294C51.2441 24.6706 51.2506 24.7152 51.2555 24.7586C51.4502 24.7428 51.6226 24.7308 51.7817 24.7224C52.1583 24.7012 52.5405 24.691 52.9188 24.691ZM50.8051 22.7432C50.7621 22.7589 50.7266 22.7698 50.6936 22.7794C50.7143 22.8251 50.7336 22.8697 50.7564 22.9239L50.7588 22.9229L50.9071 22.8061C50.8708 22.7891 50.8366 22.7681 50.8051 22.7434V22.7432ZM23.0803 68.4702C22.9747 68.4644 22.873 68.4286 22.787 68.367C22.6964 68.3086 22.6032 68.2503 22.5022 68.1886L22.3582 68.1017L22.3554 68.1026C22.3564 68.1019 22.3573 68.1011 22.3582 68.1001C20.9476 67.2385 19.4348 66.5568 17.8549 66.0707C17.8456 66.0674 17.8428 66.055 17.8464 66.035C17.9414 65.8006 18.0701 65.5814 18.2285 65.3842C18.4598 65.0701 18.6552 64.8835 18.7514 64.8835C18.7579 64.8834 18.7644 64.8843 18.7707 64.8861C18.7584 64.8813 18.7529 64.8761 18.7539 64.8704C18.7616 64.8221 19.2696 64.7605 19.2939 64.7588C19.3271 64.7588 20.7788 65.3038 21.5013 65.6555L21.537 65.6731C22.1855 65.9967 22.8028 66.3793 23.3811 66.8162L23.5256 66.9187C23.5495 66.936 23.6277 66.9973 23.6277 67.0632C23.6341 67.3822 23.5946 67.7005 23.5105 68.0082C23.4147 68.3145 23.27 68.4702 23.0803 68.4702ZM62.0956 9.99648C62.2366 9.93876 62.3865 9.90587 62.5387 9.89924C62.6062 9.89768 62.6732 9.91059 62.7352 9.9371C62.5346 9.95171 62.3254 9.97103 62.0956 9.99648Z"
    fill="black"
  />
</svg>
