<svg width="95" height="95" viewBox="0 0 70 95" fill="none" xmlns="http://www.w3.org/2000/svg">
<path d="M64.5452 46.8409C64.6394 42.2414 64.2127 37.5278 61.9776 33.4168C60.0368 29.5584 57.1569 26.2132 54.2016 23.1005C52.9684 21.8014 51.3216 20.4922 51.4756 18.5234C51.6374 16.4571 52.8804 11.981 53.0721 9.89596C53.4493 5.79634 50.5151 4.66815 47.0849 2.72007C42.9479 0.370392 38.0042 0.642221 33.5209 1.69709C25.1579 3.69246 15.2212 7.00408 12.0611 15.8654C11.3015 18.0508 11.4911 20.351 11.3398 22.618C11.1982 24.7401 10.3486 26.7605 9.53437 28.7C5.22984 38.2835 5.26869 48.8648 6.05027 59.1513C3.75173 59.6828 1.52926 61.4791 1.02263 63.862C0.173597 68.0342 4.54925 69.9628 7.13374 72.2179C10.2864 74.9674 12.5802 78.5274 15.4455 81.5489C34.038 102.049 75.0642 92.6134 66.5352 60.6822C65.3781 56.1447 64.3723 51.5545 64.5452 46.8409Z" fill="white"/>
<path d="M42.9802 94.6742C42.8574 94.6742 42.7329 94.6733 42.6106 94.6713C40.8747 94.6537 39.146 94.4429 37.4567 94.0428C35.7643 93.6604 34.1556 92.9732 32.7091 92.0149C32.3673 91.7948 32.1053 91.4705 31.9618 91.09C31.8485 90.7671 31.8434 90.4161 31.9472 90.09C32.0621 89.7285 32.2891 89.413 32.5955 89.1892C32.9018 88.9655 33.2714 88.8452 33.6507 88.8457C33.9297 88.8481 34.2053 88.9065 34.4611 89.0177L35.011 89.2495C36.3342 89.8035 37.7566 90.3715 39.3164 90.6956C40.5368 90.9419 41.779 91.0631 43.024 91.0574C43.4857 91.0574 43.9636 91.0422 44.4442 91.012C47.5734 90.816 50.7173 89.8147 53.7886 88.0359C55.0791 87.2835 56.3083 86.4307 57.4648 85.4854C58.6211 84.5393 59.7163 83.5211 60.744 82.4368L60.9733 82.1948C61.9803 81.1462 62.9237 80.0383 63.7985 78.8772C64.6762 77.7239 65.4099 76.4678 65.9834 75.1368C66.2708 74.4593 66.4776 73.7503 66.5996 73.0245C66.7219 72.2992 66.7251 71.5588 66.6091 70.8325C66.41 69.8223 66.127 68.8304 65.763 67.8673C65.5431 67.2305 65.3143 66.5724 65.1398 65.9161C64.731 64.35 64.4369 62.7562 64.26 61.1474C64.0934 59.7049 63.9862 58.1206 63.9325 56.3043L63.9255 56.0564C63.8916 54.7826 63.8826 53.4845 63.8738 52.2291C63.8555 49.5951 63.8371 46.8717 63.586 44.2242C63.466 42.8999 63.2728 41.5833 63.0072 40.2804C62.7389 38.9628 62.3708 37.6676 61.9061 36.4058C61.5129 35.3515 61.0456 34.3262 60.5077 33.3378C59.9741 32.3562 59.3906 31.4024 58.7596 30.4802C57.5037 28.63 56.0707 26.8462 54.6846 25.1212C53.7314 23.9338 52.744 22.7059 51.8266 21.4699L51.7379 21.8732C51.5944 22.5255 51.4459 23.2 51.298 23.8636C51.2271 24.1816 51.1574 24.5051 51.09 24.8176C50.9549 25.4436 50.815 26.0908 50.6609 26.7239L50.6436 26.793C50.6859 26.8925 50.6951 27.0029 50.6697 27.1079C50.6444 27.213 50.5859 27.3071 50.5029 27.3763C50.4886 27.3875 50.4739 27.3977 50.4598 27.4078L50.4414 27.4214C50.3547 27.6358 50.224 27.8298 50.0578 27.9907C49.8704 28.1615 49.6417 28.2804 49.3943 28.3358C49.2954 28.3608 49.194 28.3736 49.092 28.3741C48.9083 28.3747 48.7277 28.3262 48.569 28.2336C48.4103 28.1411 48.2791 28.0079 48.1891 27.8477L45.3753 27.862C44.9231 27.8644 44.4498 27.8803 43.9922 27.8943C43.4758 27.9108 42.9419 27.928 42.4158 27.928C41.5624 27.9433 40.7098 27.8712 39.8711 27.7128C39.8181 27.7036 39.7701 27.6761 39.7354 27.635C39.7008 27.594 39.6816 27.542 39.6814 27.4883C39.6773 27.426 39.6937 27.3641 39.7279 27.3119C39.7621 27.2598 39.8124 27.2201 39.8711 27.199C41.1094 26.8123 42.5009 26.7208 43.8463 26.6326C44.3144 26.6019 44.7563 26.5729 45.1942 26.5322L47.9109 26.2787C48.0373 26.267 48.1649 26.2516 48.2729 26.2382L48.4551 26.2155L49.3994 22.0134C49.4973 21.5775 49.5974 21.1378 49.6941 20.712C49.9702 19.4993 50.2554 18.2454 50.5087 17.0068C51.1208 14.0138 51.8026 10.9841 52.4619 8.05406V8.05241L52.4786 7.97909C50.6649 7.52986 48.8038 7.30025 46.9354 7.29521C46.6217 7.29521 46.3037 7.30199 45.9905 7.31519L45.7371 7.32619C45.3041 7.3392 44.8727 7.38602 44.4469 7.46623C44.0232 7.54405 43.6198 7.70739 43.2614 7.94628C42.5223 8.45951 42.3555 9.43813 42.2083 10.3018C42.1788 10.4747 42.1511 10.638 42.1192 10.7967C41.5308 13.7267 41.138 16.651 40.8616 18.8713C40.7551 19.7262 40.6644 20.5961 40.5764 21.4375V21.4413C40.5299 21.8867 40.4818 22.3472 40.432 22.7999C40.4091 23.0067 40.3891 23.218 40.3697 23.4231C40.333 23.808 40.2963 24.2045 40.2377 24.5898C40.1824 24.913 40.1082 25.2327 40.0154 25.5472C39.9519 25.7787 39.887 26.0179 39.8379 26.2545C39.8665 26.3919 39.8636 26.5339 39.8295 26.67C39.7953 26.8061 39.7308 26.9327 39.6407 27.0403C39.5448 27.1642 39.4229 27.2655 39.2835 27.337C39.1441 27.4085 38.9907 27.4485 38.8342 27.4542C38.7136 27.4537 38.5945 27.4266 38.4855 27.3749C38.3765 27.3231 38.2803 27.248 38.2036 27.1549C37.95 26.8634 37.7025 26.5637 37.4633 26.2739C36.9413 25.6142 36.378 24.9882 35.777 24.3995C34.8695 23.5475 33.8731 22.7953 32.805 22.156C31.7402 21.5222 30.6243 20.9786 29.469 20.5307C28.314 20.0847 27.1366 19.6987 25.9416 19.3745C25.9082 19.3664 25.8772 19.3504 25.8513 19.3276C25.8254 19.3049 25.8055 19.2763 25.7932 19.2441C23.3649 19.9219 21.0192 20.8669 18.7991 22.0616C16.2419 23.4565 13.98 25.3351 12.1394 27.5929C11.2229 28.7172 10.4224 29.9313 9.75013 31.2167C9.07671 32.5048 8.5448 33.8621 8.1637 35.2648C7.70135 37.0209 7.38947 38.8132 7.23145 40.6222C7.07968 42.2229 7.00545 43.9518 6.99793 46.063C6.99243 47.6813 7.02414 49.4104 7.29249 51.089C7.50548 52.4216 7.9047 53.6255 8.3272 54.9001C8.4852 55.3767 8.64852 55.8696 8.79955 56.3648C8.93242 56.7642 8.91693 57.198 8.75593 57.5869L8.89358 57.6076C9.60248 57.7099 10.2974 57.8927 10.9648 58.1525C11.8023 58.5024 12.2706 58.9458 12.3566 59.4708C12.372 59.5465 12.3715 59.6245 12.3551 59.6999C12.3387 59.7754 12.3068 59.8466 12.2615 59.9091C12.2144 59.9664 12.1558 60.0131 12.0895 60.0462C12.0232 60.0794 11.9506 60.0981 11.8766 60.1013C11.8437 60.1041 11.8108 60.1056 11.7783 60.1056C11.3637 60.1056 11.0558 59.8806 10.7299 59.6424C10.6173 59.5601 10.5009 59.4752 10.3796 59.3997C10.3 59.3506 10.2175 59.3044 10.1378 59.2595L10.1092 59.2433C10.0963 59.2523 10.081 59.2572 10.0652 59.2573C10.0499 59.2571 10.0349 59.2528 10.0218 59.245C9.42178 58.8994 8.74134 58.718 8.04895 58.7191C6.92296 58.7191 5.76178 59.185 4.77949 60.0311C4.31475 60.4307 3.91307 60.8982 3.58806 61.4178C3.26697 61.9241 3.03504 62.4817 2.90235 63.0663C2.7511 63.757 2.70169 64.4661 2.75571 65.1711C2.80602 65.8712 2.96276 66.5595 3.22055 67.2123C3.47229 67.8555 3.83678 68.4485 4.29687 68.9636C4.76739 69.4875 5.34163 69.9079 5.9832 70.1982C6.42513 70.3982 6.88319 70.5762 7.3264 70.7481C8.2207 71.0964 9.14525 71.4549 9.9677 72.0077C10.9956 72.7079 11.919 73.5505 12.7102 74.5101C13.7825 75.7952 14.6977 77.2216 15.583 78.6009C16.0533 79.3341 16.5396 80.0917 17.0439 80.8188C17.6686 81.7495 18.4037 82.6013 19.233 83.3555C19.5348 83.6082 19.8565 83.8364 20.1947 84.0379C20.8995 84.4831 21.5651 84.9036 21.8299 85.7687C21.9023 86.0221 21.8849 86.2927 21.7806 86.5347C21.6835 86.7792 21.5077 86.9842 21.281 87.1174C20.9622 87.2995 20.6013 87.3949 20.2342 87.394C19.892 87.3886 19.5537 87.321 19.2357 87.1944C18.8982 87.0614 18.576 86.8925 18.2747 86.6905C17.6897 86.2894 17.1418 85.8368 16.6375 85.338C15.4167 84.1739 14.4262 82.7423 13.6182 81.4954C13.2896 80.9882 12.9657 80.4553 12.6524 79.9399C11.5448 78.1176 10.3994 76.2333 8.7156 74.8905C7.86181 74.2097 6.85203 73.7995 5.87542 73.4028C5.36402 73.1951 4.83521 72.9803 4.33316 72.7287C3.5186 72.3223 2.78803 71.7659 2.17979 71.0887C1.5759 70.4081 1.09241 69.6297 0.750078 68.7867C0.0865575 67.1691 -0.14244 65.4061 0.0858107 63.6727C0.290727 61.9338 1.05709 60.3092 2.26869 59.0452C2.66471 58.6428 3.12005 58.3035 3.61885 58.0391C4.10479 57.7809 4.62604 57.5957 5.16588 57.4892C4.08443 55.597 3.66596 53.2338 3.37507 50.9618C3.11346 48.7919 3.04886 46.6028 3.18206 44.4212L3.20497 43.9969C3.4066 40.4191 3.80985 36.2493 5.27622 32.4476C5.86647 30.9102 6.61641 29.439 7.51373 28.0581C8.41156 26.6773 9.46591 25.4048 10.6558 24.2659C10.8897 24.0428 11.1377 23.8163 11.4137 23.5732C11.3439 23.521 11.2787 23.4627 11.2191 23.3991C10.9289 23.075 10.7543 22.6639 10.7225 22.23C10.693 21.7963 10.7076 21.3607 10.7663 20.9299V20.923C10.7712 20.8741 10.776 20.8258 10.7808 20.7782C10.8768 19.7686 11.0442 18.7671 11.2818 17.7812C11.6997 16.0811 12.3331 14.4414 13.1668 12.9019C15.6773 8.26897 19.8245 4.73815 24.7986 2.99892C25.7727 2.66063 26.7638 2.3738 27.768 2.13962C29.5305 1.45243 31.3502 0.922175 33.2059 0.555023C35.0575 0.189219 36.9402 0.00334667 38.8276 7.93529e-07C39.993 -0.000279815 41.1573 0.0738618 42.3133 0.221973C44.9646 0.5526 47.5487 1.29147 49.974 2.41237C51.1469 2.95837 52.268 3.60922 53.3238 4.35696L53.42 4.4257C53.845 4.71448 54.2295 5.0587 54.5634 5.44923C54.7217 5.62882 54.8426 5.83821 54.9189 6.06511C54.9952 6.29201 55.0255 6.53187 55.0079 6.77061C55.074 6.98746 55.0825 7.21777 55.0327 7.43891C54.3911 10.3143 53.716 13.2289 53.0622 16.0474L53.0604 16.0555C52.8745 16.8567 52.6824 17.6852 52.494 18.5003C52.3043 19.3202 52.1223 20.1373 51.9694 20.8282C53.4469 21.9381 54.8614 23.1295 56.2063 24.3968C57.5729 25.6827 58.8499 27.0606 60.0282 28.521C62.5519 31.6678 64.3207 34.9442 65.2856 38.2592C65.6071 39.3721 65.8642 40.5026 66.0554 41.6452C66.2387 42.7158 66.3784 43.8376 66.4852 45.0743C66.6836 47.3717 66.7318 49.7266 66.7785 52.004C66.8296 54.5108 66.8826 57.1028 67.1361 59.6259C67.2961 61.311 67.5986 62.9795 68.0405 64.6136C68.257 65.3999 68.5431 66.1798 68.8197 66.9339C69.1846 67.8683 69.4907 68.8247 69.7362 69.7974C69.9352 70.6683 70.0223 71.5611 69.9952 72.4541C69.9662 73.3296 69.8418 74.1993 69.624 75.0477C69.1638 76.7624 68.4422 78.3959 67.4847 79.891C65.7192 82.7243 63.5438 85.2807 61.0294 87.4769C59.7714 88.5754 58.4292 89.5736 57.0152 90.4624C55.6087 91.3465 54.1293 92.1091 52.5932 92.7417C49.5432 93.9989 46.2791 94.6551 42.9802 94.6742ZM24.7002 18.0144C25.7884 18.0136 26.8733 18.1319 27.9357 18.3674C27.9712 18.3783 28.0023 18.4002 28.0244 18.43C28.0465 18.4599 28.0585 18.496 28.0585 18.5331C28.0585 18.5703 28.0465 18.6064 28.0244 18.6362C28.0023 18.6661 27.9712 18.688 27.9357 18.6988C27.7158 18.748 27.4911 18.8029 27.2746 18.8561L27.1474 18.8873C29.2767 18.9342 31.5894 19.5752 33.6595 20.692C34.677 21.2377 35.6469 21.868 36.5587 22.5763C37.4876 23.2888 38.3266 24.1116 39.0571 25.0264C39.0136 24.7634 38.9874 24.4979 38.9788 24.2315C38.9618 23.4449 38.9845 22.6714 39.0063 22.0854C39.058 20.6951 39.1502 19.221 39.2965 17.4462L39.3526 16.7735C39.5762 14.1269 39.8586 11.3123 40.4063 8.66205C40.5355 7.97578 40.8257 7.32998 41.2532 6.77776C41.6492 6.29097 42.1506 5.9004 42.7195 5.63546C41.6131 4.95588 40.3929 4.48207 39.1177 4.2369C37.8596 3.98207 36.5807 3.84297 35.2971 3.82137C35.0865 3.81605 34.8724 3.81349 34.6607 3.81349C33.2797 3.81387 31.9009 3.9242 30.5374 4.14342C29.1563 4.36428 27.7963 4.70152 26.4719 5.15155C25.155 5.59778 23.8843 6.17038 22.6777 6.86135C20.3351 8.18973 18.334 10.0452 16.8327 12.2809C16.1035 13.3649 15.4499 14.4979 14.8766 15.6719C14.3289 16.8192 13.9273 18.0306 13.6811 19.2779C13.5314 19.9489 13.4259 20.6291 13.3653 21.3139C13.3611 21.3634 13.3587 21.4147 13.3563 21.4644C13.3539 21.5487 13.347 21.6329 13.3356 21.7164C13.3217 21.8055 13.3041 21.8506 13.2834 21.8506C13.2814 21.8506 13.2795 21.8502 13.2777 21.8495C13.3052 21.905 13.339 21.9571 13.3783 22.005C15.0349 20.8006 16.8479 19.8277 18.7672 19.1131C20.665 18.4012 22.6733 18.0293 24.7002 18.0144ZM38.384 1.87256C38.2271 1.87256 38.0676 1.87403 37.9098 1.87659C38.8726 2.11523 39.8003 2.47821 40.6694 2.95639C41.6727 3.5149 42.4818 4.2677 43.2925 5.39754C44.0007 5.16416 44.7364 5.02447 45.4809 4.98201C46.0007 4.94535 46.5334 4.92702 47.0642 4.92702C48.3466 4.92933 49.6268 5.03217 50.8931 5.23459C50.5544 5.026 50.2121 4.82712 49.8758 4.64401C48.5511 3.92865 47.156 3.35211 45.7128 2.92358C43.334 2.2187 40.8652 1.86463 38.3842 1.87256H38.384ZM11.4297 67.0827C11.2409 67.0883 11.0534 67.05 10.882 66.9709C10.7105 66.8918 10.5597 66.7741 10.4413 66.6269C10.2599 66.3895 10.0988 66.1553 9.94277 65.9289C9.7395 65.6336 9.54777 65.3552 9.32671 65.0894C9.27608 65.1377 9.22921 65.1898 9.18649 65.2452L9.15588 65.2877C9.07936 65.4152 8.97434 65.5232 8.84907 65.6032C8.7238 65.6833 8.58169 65.7332 8.43388 65.7491C8.40935 65.749 8.38486 65.7474 8.36056 65.7441L8.27276 65.7326C8.07425 65.706 7.60079 65.598 7.49265 65.1724L7.48367 65.1321L7.47157 65.0676C7.43247 64.8703 7.44664 64.6661 7.51263 64.4761C7.58047 64.2842 7.71667 64.1242 7.89517 64.0265C7.91075 64.0178 7.92651 64.0101 7.94191 64.0026L7.94374 64.0017L7.97233 63.9874C7.4372 63.7269 6.876 63.5238 6.2981 63.3814C5.99328 63.2949 5.67819 63.2055 5.36017 63.0949C5.33909 63.0879 5.32044 63.0751 5.30639 63.0579C5.29233 63.0407 5.28346 63.0198 5.28081 62.9978C5.27837 62.9768 5.28205 62.9555 5.29142 62.9365C5.30078 62.9175 5.31543 62.9016 5.3336 62.8908C5.83437 62.5979 6.40812 62.4536 6.98785 62.4747C7.73931 62.4876 8.4821 62.6375 9.17971 62.9171C9.87508 63.1891 10.5243 63.5668 11.1043 64.0369C11.6907 64.4959 12.1472 65.0999 12.4288 65.7892C12.4921 65.9261 12.5201 66.0768 12.51 66.2273C12.4999 66.3778 12.4522 66.5234 12.3713 66.6507C12.2596 66.792 12.1161 66.9049 11.9524 66.98C11.7887 67.0551 11.6096 67.0903 11.4297 67.0827Z" fill="black"/>
</svg>
