<svg width="77" height="77" viewBox="0 0 63 77" fill="none" xmlns="http://www.w3.org/2000/svg">
<path d="M53.2778 26.5648C52.6857 22.9826 54.6291 22.2392 53.2778 18.834C50.2748 12.5243 42.0909 12.7962 36.0855 12.3111C29.3872 12.0539 22.6076 12.9386 16.4326 15.6233C14.9596 16.2649 13.5376 17.0178 12.1789 17.8753C11.003 18.6162 11.1638 20.0249 11.9061 20.7934C6.55932 28.3649 9.6174 38.5282 5.35164 46.4978C4.56354 47.9225 3.52118 49.1999 2.83659 50.6823C1.7953 52.9355 1.72859 56.1642 4.08997 57.66C7.41582 59.4451 9.27174 55.9107 10.9059 61.0338C19.0663 78.8994 35.4753 79.9056 51.0519 70.5916C52.3996 69.842 53.775 68.9947 54.7927 67.817C57.1027 65.2174 56.8307 61.5617 56.8817 58.3153C56.9102 56.4128 56.9154 54.5102 56.8971 52.6074C56.8245 44.9 54.2701 34.2086 53.2778 26.5648Z" fill="white"/>
<path d="M32.741 76.9067C31.8437 76.9173 30.9491 76.8042 30.0826 76.5705C29.0801 76.29 28.2041 75.8108 27.6163 75.221C27.2937 74.9071 27.046 74.5244 26.8917 74.1015C26.7358 73.6461 26.7054 73.1572 26.8037 72.686C26.8341 72.5137 26.931 72.3603 27.0735 72.2589C27.2108 72.1658 27.3734 72.117 27.5393 72.1192C27.6818 72.116 27.8228 72.1488 27.9491 72.2147C28.0755 72.2806 28.1832 72.3774 28.2621 72.496L28.34 72.6207C28.7041 73.1984 29.1545 73.8435 29.894 74.1904C30.3124 74.3817 30.7549 74.5151 31.2093 74.5872C31.6633 74.6604 32.1223 74.698 32.5822 74.6997C32.6388 74.6997 32.6958 74.7007 32.7518 74.7007C35.2118 74.7007 37.7609 74.0926 40.161 73.4698C42.4777 72.8772 44.7401 72.0897 46.9241 71.1156C49.1119 70.148 51.1759 68.9216 53.072 67.4628C53.8583 66.862 54.5565 66.154 55.1464 65.3594C55.4332 64.9647 55.6817 64.5436 55.8888 64.1019C56.0994 63.6501 56.261 63.1771 56.3708 62.691C56.8231 60.6875 56.5671 58.5412 56.3196 56.4647C56.2656 56.0125 56.21 55.5446 56.1638 55.0931C55.7135 50.6688 55.1635 45.9713 54.3803 39.8619L54.2499 38.848C54.2051 38.501 54.1602 38.1539 54.1151 37.8068L54.1142 37.7999C53.6181 33.9739 53.1049 30.0176 52.8544 26.1057C52.7397 25.9511 52.664 25.7712 52.6335 25.5812L52.5907 25.3036C52.5538 25.0867 52.5481 24.8657 52.5737 24.6472C52.5753 23.8544 52.5973 23.1003 52.641 22.3421C52.6487 22.2041 52.6548 22.065 52.6596 21.9298C51.9123 22.0945 51.1217 22.2383 50.2427 22.3699C46.4423 22.941 42.6047 23.228 38.7617 23.2287C36.8571 23.2287 34.9288 23.1572 33.03 23.0161C30.3809 22.8188 27.5883 22.4794 24.4926 21.9778C23.0087 21.7379 21.5583 21.4758 20.1818 21.1987C19.3383 21.03 18.4961 20.809 17.6811 20.5953L17.6732 20.5931C17.4901 20.5451 17.3008 20.4954 17.1145 20.4473C16.5866 21.2149 16.1851 22.0622 15.9254 22.9569C15.6624 23.8482 15.5547 24.7781 15.607 25.7059C15.6588 26.5855 15.9378 27.4442 16.2075 28.2744C16.4096 28.8551 16.5755 29.4476 16.7044 30.0488C16.8315 30.6519 16.8442 31.2736 16.7418 31.8814C16.6699 32.3158 16.5082 32.7304 16.2671 33.0988C16.0259 33.4672 15.7106 33.7812 15.3412 34.0208C14.6324 34.5036 13.7294 34.791 12.9389 35.0224L12.2135 35.2321C11.9622 35.2896 11.7237 35.393 11.5099 35.5371C11.4071 35.6216 11.3223 35.7258 11.2603 35.8436C11.1984 35.9614 11.1605 36.0903 11.1491 36.2229C11.0264 37.0335 11.0966 37.9166 11.1644 38.7705C11.1934 39.1385 11.2207 39.4851 11.2339 39.8286C11.2504 40.2493 11.2685 40.6738 11.2862 41.0843C11.3263 42.0188 11.3678 42.9859 11.3903 43.9367C11.3947 44.1255 11.4001 44.3177 11.4056 44.5041V44.5081C11.4197 45.0191 11.4345 45.5473 11.4335 46.0659C11.4572 46.4744 11.3629 46.881 11.1621 47.2374C11.3137 47.4291 11.449 47.633 11.5667 47.8472C11.5727 47.8578 11.5757 47.8699 11.5755 47.8821C11.5753 47.8944 11.5718 47.9063 11.5654 47.9168C11.5587 47.928 11.5493 47.9373 11.5381 47.9438C11.5269 47.9504 11.5142 47.9541 11.5012 47.9545C11.4923 47.9544 11.4836 47.9525 11.4755 47.9489C11.4674 47.9454 11.4601 47.9402 11.4541 47.9337C11.3048 47.7782 11.1432 47.6351 10.9709 47.5056C10.8763 47.6207 10.7754 47.7303 10.6686 47.834L10.6596 47.8217C10.5692 47.9128 10.4617 47.9851 10.3432 48.0345C10.2248 48.0839 10.0978 48.1093 9.96945 48.1094C9.70794 48.1057 9.45657 48.0076 9.26156 47.8334L9.14286 47.7305C8.8317 47.4578 8.58633 47.2103 8.49201 46.7183V46.7172C8.48741 46.693 8.48281 46.6686 8.4799 46.6447C8.42776 46.6429 8.37347 46.6419 8.31841 46.6419C7.51612 46.6424 6.72698 46.8459 6.02451 47.2334C4.88419 47.8428 3.98608 48.8232 3.47879 50.0124C3.68204 50.251 3.91908 50.4587 4.18239 50.6287C4.18912 50.6328 4.1943 50.639 4.19708 50.6463C4.19986 50.6537 4.20009 50.6617 4.19773 50.6692C4.19552 50.6768 4.19097 50.6834 4.18475 50.6882C4.17852 50.693 4.17093 50.6957 4.16307 50.6959C4.1571 50.6958 4.15123 50.6944 4.14589 50.6918C3.87632 50.5655 3.62467 50.4041 3.39751 50.2118C3.21505 50.6881 3.08695 51.1835 3.01565 51.6886C2.87205 52.6508 2.94488 53.633 3.22882 54.5636C3.37157 55.0234 3.58454 55.4585 3.86019 55.8533C4.13705 56.248 4.48895 56.5842 4.8958 56.8429C5.61474 57.2989 6.44753 57.5434 7.2989 57.5483H7.31102C7.70668 57.5414 8.09991 57.4847 8.48143 57.3796C8.54538 57.3643 8.6104 57.3462 8.67328 57.3292H8.67497C8.88252 57.2627 9.09798 57.2242 9.31569 57.2145C9.55562 57.2134 9.79141 57.277 9.99828 57.3985L9.94001 57.4036C9.90991 57.4038 9.87999 57.4081 9.85106 57.4165C9.90797 57.4242 9.9655 57.4263 10.0228 57.4227C10.1601 57.4257 10.2942 57.464 10.4124 57.5338C10.5306 57.6036 10.6288 57.7027 10.6976 57.8215C10.7658 57.9421 10.8022 58.0781 10.8036 58.2167C10.805 58.3552 10.7712 58.4919 10.7054 58.6139L10.6684 58.6974L10.6588 58.7183L10.649 58.7395L10.6267 58.883L10.6241 58.8983V58.9019C10.6229 58.9094 10.6217 58.9172 10.6203 58.9247L10.6117 58.9539C10.6102 58.9586 10.6085 58.9633 10.6065 58.9678L11.5266 60.3707C12.6115 62.0213 13.7827 63.7665 15.1199 65.3643C16.039 66.4735 17.0157 67.5336 18.046 68.5403C18.6471 69.1231 19.3115 69.5009 20.0148 69.9015C20.3828 70.111 20.7631 70.3277 21.1313 70.5755C21.274 70.6696 21.3941 70.794 21.4832 70.9398C21.5724 71.0855 21.6284 71.2491 21.6472 71.419C21.6622 71.5694 21.6429 71.7213 21.5907 71.8633C21.5386 72.0052 21.455 72.1335 21.3462 72.2385C21.1328 72.4595 20.8768 72.6349 20.5936 72.7541C20.3104 72.8733 20.0061 72.9338 19.6988 72.932C19.0926 72.9124 18.5008 72.742 17.977 72.4362C17.4408 72.1389 16.948 71.7695 16.5124 71.3382C15.4871 70.3277 14.4978 69.0545 13.4882 67.446C12.719 66.2352 12.0444 64.9668 11.4705 63.6521C11.1885 62.9985 10.9398 62.3311 10.7253 61.6523C10.5106 60.9708 10.336 60.2773 10.2024 59.5754C9.96982 59.771 9.70015 59.9176 9.40955 60.0065C8.82255 60.1965 8.2107 60.2989 7.59381 60.3101C7.52403 60.3124 7.45302 60.3137 7.38279 60.3137C6.28515 60.3018 5.20382 60.0466 4.21674 59.5664C3.30567 59.1328 2.51306 58.4852 1.90658 57.6788C1.31373 56.8857 0.886675 55.9814 0.650897 55.0196C0.346201 53.797 0.301895 52.524 0.520851 51.2831C0.727236 50.0501 1.21057 48.8799 1.93449 47.8607C1.68121 47.0752 1.4759 46.275 1.31969 45.4646C1.26969 45.2303 1.22246 45.0095 1.17369 44.7935L1.07661 44.3721C0.763308 43.0034 0.538947 41.8698 0.371175 40.8046C0.175948 39.6115 0.0558381 38.4073 0.0115542 37.1992C-0.0735586 34.5349 0.310906 32.2119 1.18657 30.0972C1.4281 29.5013 1.7115 28.9232 2.03463 28.3672C2.11975 28.2224 2.22265 28.0774 2.33168 27.9237C2.55605 27.6076 2.78792 27.281 2.87181 26.9379C3.05706 26.1897 2.34457 25.4091 1.7158 24.7205C1.42745 24.4298 1.16987 24.1101 0.947182 23.7665C0.655719 23.2688 0.499495 22.7034 0.494014 22.1267C0.49756 21.7626 0.581169 21.4037 0.738914 21.0755C0.896658 20.7473 1.12467 20.4579 1.40679 20.2277C1.02748 19.5481 0.836366 18.7797 0.853175 18.0017C0.872979 17.2041 1.13745 16.4318 1.61076 15.7895C2.27246 14.893 3.25272 14.2843 4.3497 14.0888C4.60305 14.0462 4.85958 14.0253 5.11648 14.0262C5.60022 14.0266 6.08167 14.0925 6.54776 14.2219C8.54959 12.3615 10.6932 10.6598 12.9593 9.13216C15.2248 7.60583 17.6131 6.27001 20.0994 5.13845C23.8849 3.42909 27.8455 2.13751 31.9109 1.2866C37.9971 0.00669806 44.2451 -0.320885 50.4318 0.315544C55.5015 0.816606 60.4832 1.98251 65.2488 3.78324L65.6656 3.94426L65.8728 4.0237C66.996 4.4531 68.1578 4.89784 68.9971 5.7643C69.2529 6.02715 69.4668 6.3277 69.6314 6.65545C69.7925 6.97557 69.903 7.31879 69.9587 7.67282C70.0753 8.39406 69.9434 9.13352 69.5846 9.76997C69.2905 10.2822 68.8955 10.7294 68.4236 11.0847C67.951 11.4438 67.4254 11.7272 66.8656 11.9246C67.2634 12.2506 67.6332 12.6091 67.9713 12.9966C68.2534 13.3102 68.4147 13.7139 68.4262 14.1356C68.4294 14.3387 68.3929 14.5404 68.3188 14.7295C68.2394 14.9299 68.1213 15.1128 67.9713 15.2676C67.364 15.9005 66.6714 16.4456 65.9136 16.8872C65.1571 17.3301 64.3432 17.6665 63.4948 17.887C63.6866 18.8475 63.5746 19.8439 63.1743 20.7379C62.9367 21.2753 62.5842 21.7541 62.1415 22.1405C61.7092 22.5097 61.2163 22.8013 60.6846 23.0023C59.7445 23.3704 58.5746 23.5561 57.2072 23.5561C56.8749 23.5561 56.5256 23.5451 56.169 23.5231L56.0923 23.5184L55.9512 25.1332C55.9252 25.5369 55.774 25.9224 55.5186 26.236C55.2543 26.5415 54.8871 26.7394 54.4867 26.7925C54.456 26.7971 54.4253 26.8002 54.3947 26.8031C55.7922 31.857 56.6383 37.1262 57.3851 42.0899C57.7378 44.4318 58.0798 46.9121 58.4944 50.1326L58.6089 51.0275C58.6925 51.6852 58.7825 52.3561 58.8696 53.0048V53.0068C59.1664 55.2195 59.4731 57.5074 59.5962 59.7596C59.6331 60.4118 59.6258 61.0658 59.5744 61.717C59.5238 62.3535 59.4203 62.9847 59.2651 63.6041C59.1096 64.2205 58.8946 64.8205 58.6233 65.3954C58.3428 65.9861 58.0012 66.5458 57.6043 67.0655C56.2701 68.8102 54.3853 70.2946 52.0006 71.4776C49.5872 72.6825 47.0936 73.7199 44.5377 74.5824C43.2473 75.0135 41.9434 75.3923 40.6619 75.708C39.3406 76.0338 38.0041 76.3023 36.69 76.5055L36.3323 76.5606C35.1457 76.7662 33.9452 76.8819 32.741 76.9067ZM11.4092 54.2533C11.1927 54.2529 10.9824 54.1809 10.8111 54.0486C10.5476 53.8514 10.3085 53.646 10.0774 53.4474C9.50815 52.9584 8.97049 52.4966 8.17027 52.2374C7.37318 51.9736 6.54072 51.8321 5.70123 51.8176C5.41444 51.8162 5.12806 51.8397 4.84535 51.888C4.83805 51.8892 4.83067 51.8898 4.82327 51.8898C4.79319 51.8892 4.76394 51.8799 4.73915 51.8628C4.71437 51.8458 4.69514 51.8218 4.68387 51.7939C4.67572 51.7725 4.67465 51.7491 4.68081 51.727C4.68696 51.7049 4.70002 51.6854 4.71806 51.6713C5.1682 51.2621 5.68264 50.9298 6.24074 50.6878C6.79348 50.4544 7.38794 50.3359 7.98793 50.3395C8.13071 50.3395 8.27762 50.346 8.42484 50.3584C9.20753 50.4247 9.97435 50.6171 10.6956 50.9282C11.0581 51.0862 11.4011 51.2858 11.7174 51.5231C12.0249 51.7531 12.2935 52.0309 12.5132 52.3459C12.6261 52.5163 12.6888 52.7149 12.6942 52.9192C12.6996 53.1236 12.6475 53.3253 12.5438 53.5014C12.4378 53.7157 12.277 53.8981 12.0777 54.0301C11.8785 54.1622 11.6478 54.2392 11.4092 54.2533Z" fill="black"/>
</svg>
