<svg width="126" height="126" viewBox="0 0 130 115" fill="none" xmlns="http://www.w3.org/2000/svg">
<path d="M22.926 114.862H22.9236C22.7441 114.867 22.5657 114.833 22.4012 114.761C22.2368 114.689 22.0903 114.581 21.9725 114.445C21.8334 114.271 21.7329 114.069 21.6777 113.852C21.6225 113.636 21.6138 113.41 21.6522 113.19C21.8147 112.113 21.9725 111.017 22.1248 109.957V109.955V109.951C22.2089 109.367 22.2958 108.763 22.3826 108.168C19.0725 109.068 15.6603 109.537 12.2303 109.564C10.7827 109.566 9.33681 109.468 7.9028 109.271C6.46204 109.07 5.03905 108.758 3.64674 108.337C3.58012 108.269 3.55513 108.214 3.57275 108.172C3.60318 108.099 3.75628 108.066 4.05479 108.066C4.16689 108.066 4.283 108.07 4.40263 108.075L4.43034 108.076C4.53299 108.08 4.62988 108.084 4.70851 108.084C4.76184 108.087 4.81525 108.082 4.86754 108.072C3.71278 107.29 2.77173 106.232 2.12999 104.993C1.82078 104.396 1.57145 103.769 1.38563 103.122C1.19572 102.458 1.0559 101.782 0.967324 101.097C0.795714 99.6715 0.752835 98.233 0.839206 96.7994C0.90903 95.3456 1.06021 93.9061 1.20626 92.5141V92.5117C1.28634 91.7427 1.36321 91.0157 1.42342 90.3114C1.93589 87.0052 2.40272 83.5713 2.85417 80.25V80.2472C4.00723 71.7666 5.19952 62.9975 7.3402 54.6494C7.89319 52.4929 8.49854 50.4118 9.13961 48.4637C9.82664 46.3758 10.5824 44.3563 11.3855 42.4613C12.2364 40.4539 13.1716 38.5125 14.1653 36.6911C15.1963 34.7994 16.3324 32.9671 17.5681 31.2025C18.8681 29.453 20.3103 27.814 21.8801 26.3022C23.4518 24.7868 25.1575 23.4169 26.9763 22.2094C28.7873 21.0066 30.7176 19.9941 32.7366 19.1881C34.7645 18.3804 36.8805 17.8148 39.0408 17.5028L39.2826 17.4698C39.7002 17.414 40.1349 17.3634 40.5553 17.3145C42.7584 17.0582 45.036 16.7929 46.8988 15.6336C47.8677 14.8599 48.6124 13.8438 49.3342 12.8619C49.9024 12.0877 50.4392 11.3559 51.0391 10.8111C51.3227 10.5449 51.6453 10.3238 51.9958 10.1552C52.3441 9.99117 52.7237 9.90417 53.1087 9.90016H53.1223C53.4732 9.92478 53.8125 10.0361 54.1098 10.2241C54.469 10.421 54.8533 10.6863 55.2601 10.9672C55.6404 11.2298 56.0336 11.5012 56.4377 11.7383C56.4926 10.7887 56.806 9.93957 57.1082 9.11832C57.3316 8.57284 57.5014 8.00684 57.6149 7.42838L57.6309 7.31928C57.6698 7.0357 57.6914 6.75468 57.7123 6.48312C57.8015 5.32061 57.8857 4.22283 59.287 3.07298C59.9689 2.56971 60.7067 2.14703 61.4856 1.81338C62.3891 1.41922 63.3215 1.09517 64.2746 0.844084C65.3023 0.569722 66.3466 0.361657 67.401 0.221174C68.4652 0.0766279 69.5379 0.00298106 70.6119 0.000719735C71.8797 -0.0108677 73.1449 0.117492 74.3845 0.38347C75.591 0.655833 76.6003 1.06758 77.3845 1.60654C78.103 2.10629 78.7543 2.69639 79.3223 3.36232C79.8545 3.99039 80.3198 4.67232 80.7104 5.39703C81.4944 6.8287 82.0262 8.36275 82.5895 9.98699C82.9978 11.1646 83.42 12.382 83.9478 13.5598C84.3808 13.3647 84.8516 13.268 85.3264 13.2768C86.1992 13.291 87.0542 13.5264 87.8113 13.9613C88.1679 14.1612 88.4925 14.4135 88.7743 14.7098C89.0286 14.9718 89.2209 15.2877 89.3368 15.634C89.7211 16.102 89.8918 17.0664 90.0574 17.999V17.9999C90.1775 18.6786 90.2909 19.3196 90.48 19.7685C91.6988 19.9625 92.8811 20.2088 93.9941 20.5C95.0598 20.7774 96.1097 21.1127 97.1389 21.5043C98.096 21.8693 99.0307 22.2907 99.938 22.7663C100.794 23.2161 101.621 23.7187 102.415 24.2712C103.176 24.8026 103.904 25.3813 104.593 26.0039C105.267 26.6132 105.903 27.2627 106.498 27.949C107.088 28.6321 107.64 29.3478 108.15 30.0928C108.664 30.8441 109.14 31.6207 109.576 32.4198C110.468 34.0702 111.225 35.7905 111.839 37.5636C112.489 39.4313 113.035 41.3332 113.476 43.261C114.356 47.0245 114.973 51.0111 115.629 55.8392C116.506 60.7861 117.714 65.8177 118.882 70.6836V70.6844C119.64 73.8406 120.423 77.1051 121.112 80.3249C121.884 83.9371 122.451 87.1055 122.846 90.0111C123.3 93.2429 123.546 96.5005 123.583 99.7638C123.595 101.43 123.54 103.082 123.42 104.672C123.294 106.34 123.093 108 122.82 109.604C123.22 110.178 123.561 110.791 123.838 111.433C124.009 111.727 124.093 112.063 124.082 112.403C124.07 112.734 123.978 113.057 123.813 113.345C123.665 113.621 123.446 113.853 123.178 114.016C122.91 114.179 122.604 114.267 122.29 114.272H122.289C122.263 114.272 122.237 114.272 122.21 114.271C121.69 114.225 121.163 114.174 120.654 114.124H120.652C119.357 113.998 118.019 113.868 116.69 113.819C113.993 113.725 111.09 113.679 107.813 113.679C105.903 113.679 103.827 113.694 101.28 113.727L100.58 113.737C90.1884 113.866 79.6266 114.049 69.4126 114.226C54.1777 114.489 38.4228 114.762 22.926 114.862ZM79.6463 56.8226C79.2914 58.354 79.8639 59.5999 80.4699 60.9187C80.8125 61.6155 81.0969 62.3394 81.3204 63.0831C81.4646 63.6084 81.4096 64.4197 81.3611 65.1354C81.3413 65.4273 81.3225 65.7029 81.3204 65.9267C81.3474 66.3558 81.5767 66.829 81.7991 67.2866C82.0819 67.8694 82.3742 68.4722 82.2746 69.0146C82.0406 70.2891 81.4169 71.5689 80.8136 72.8066C80.2997 73.861 79.7683 74.9512 79.4929 76.0165C79.3512 76.536 79.2843 77.0731 79.2943 77.6115C79.3078 78.1596 79.4275 78.6997 79.6466 79.2022C80.6075 81.0927 83.5029 82.0623 85.4189 82.7035L85.4285 82.7067C85.9724 82.9109 86.5359 83.0585 87.1101 83.1471C87.7319 83.2445 88.3606 83.2924 88.99 83.2903C90.9063 83.2812 92.8039 82.9128 94.5844 82.2041C95.4264 81.8723 96.2256 81.4407 96.9649 80.9185C97.634 80.4525 98.2151 79.8713 98.6812 79.202C99.4547 78.051 100.319 75.7656 101.014 73.9294C101.441 72.7999 101.81 71.825 102.085 71.2871L102.249 69.0052C102.439 66.3258 102.641 63.2673 102.626 60.8808C102.61 58.2302 102.33 56.7535 101.773 56.3664C100.535 55.5061 98.7587 54.8684 96.4931 54.4716C94.367 54.126 92.2153 53.9628 90.0614 53.9837C87.6499 53.9837 85.5334 54.1454 84.1826 54.2809C82.6132 54.4386 81.6222 54.606 81.5378 54.6614C81.3456 54.7882 81.1822 54.8838 81.0384 54.9682C80.6395 55.2025 80.3988 55.3439 80.1117 55.7977C79.7297 55.8485 79.3401 55.902 78.9536 55.9569C78.6974 56.0409 78.5629 56.2145 78.5957 56.4215C78.6222 56.5537 78.6983 56.6707 78.8084 56.7484C78.9431 56.8466 79.1062 56.8981 79.2728 56.8948C79.4006 56.8936 79.5271 56.8691 79.6461 56.8226H79.6463Z" fill="white"/>
<path d="M23.2344 113.831C23.0469 113.831 22.8622 113.786 22.6959 113.699L22.657 113.678L22.5916 113.64C22.3568 113.497 22.1731 113.284 22.0668 113.03C21.9495 112.78 21.9323 112.494 22.0188 112.232C22.2489 111.562 22.4392 110.879 22.5887 110.187C22.7297 109.591 22.8752 108.976 23.0732 108.387L22.7369 108.537L22.2944 108.729C20.4901 109.533 18.6335 110.213 16.7373 110.766C14.6382 111.355 12.74 111.642 10.9342 111.642C9.60023 111.647 8.27147 111.475 6.98244 111.132C5.82691 110.83 4.73207 110.332 3.74619 109.658C2.75857 108.985 1.94504 108.087 1.37282 107.038C0.826554 105.982 0.461467 104.842 0.29279 103.665C0.122262 102.488 0.0305071 101.301 0.0181381 100.112C-0.0564027 97.1934 0.0988855 94.2731 0.482563 91.3785C0.723384 89.422 1.07305 87.4804 1.52992 85.5628C1.26326 85.3268 1.0937 85.0001 1.05413 84.6462C0.870278 83.1616 1.09833 81.6217 1.31869 80.1323V80.1283C1.36865 79.7904 1.42038 79.4411 1.4657 79.1015C1.71745 77.2153 1.97721 75.4776 2.26019 73.7895C2.8758 70.1148 3.58236 66.5318 4.36019 63.1402C5.0682 60.0527 5.90737 56.9167 6.85448 53.8195C7.78045 50.7914 8.83357 47.7206 9.98503 44.6927L10.1854 44.1688C11.3761 41.0718 12.5205 38.4212 13.6838 36.0659C14.9721 33.4188 16.466 30.8769 18.1519 28.4637C18.9434 27.3201 19.8038 26.2257 20.7281 25.1866C21.6532 24.1493 22.6858 23.2131 23.8084 22.3939C25.7745 20.9723 28.0978 19.8145 30.9109 18.8532C32.165 18.4263 33.4402 18.0643 34.7315 17.7687C35.9837 17.4803 37.2982 17.2427 38.6391 17.0601C39.0366 17.0059 39.4438 16.9542 39.8378 16.904C42.1295 16.6123 44.499 16.3112 46.6203 15.3777C46.546 15.2375 46.501 15.0836 46.4882 14.9254C46.4754 14.7672 46.4951 14.608 46.546 14.4577C46.6414 14.1484 46.839 13.8808 47.1065 13.6988C48.659 12.6734 50.1104 11.3776 51.5141 10.1251C51.7196 9.94177 51.9319 9.75224 52.1422 9.56591C52.2265 9.48816 52.3366 9.44449 52.4513 9.44334C52.5308 9.44427 52.6088 9.46532 52.678 9.50454C52.7472 9.54376 52.8053 9.59987 52.847 9.66764C52.8871 9.73463 52.9084 9.81115 52.9088 9.88921C52.9092 9.96727 52.8887 10.044 52.8494 10.1114C52.3289 11.1419 51.711 12.1201 51.0042 13.0328C50.5463 13.6004 50.0574 14.1338 49.5971 14.6256C50.8143 15.6785 51.8477 16.9647 52.8481 18.2083L52.9095 18.2846C53.2208 18.6716 53.5316 19.0675 53.8324 19.4504C54.7798 20.6567 55.7594 21.9038 56.8544 23.0138C57.5388 23.7147 58.3004 24.3357 59.1247 24.8649C59.9494 25.3894 60.832 25.8167 61.7548 26.1382L62.1392 26.2717C63.1229 26.5969 64.0709 27.0215 64.9685 27.539C65.9598 28.1408 66.6806 28.8348 67.1721 29.6609C67.2091 29.7225 67.2287 29.7931 67.2287 29.865C67.2287 29.9369 67.2091 30.0074 67.1721 30.0691C67.1354 30.1359 67.0819 30.192 67.0169 30.2319C66.9519 30.2718 66.8777 30.2941 66.8015 30.2966C66.7289 30.2963 66.6578 30.2754 66.5965 30.2363C65.4025 29.4966 64.0502 29.1269 62.7417 28.7693C61.9954 28.5653 61.2238 28.3543 60.4854 28.0767C59.5146 27.7105 58.5858 27.2414 57.7148 26.6774C56.845 26.1109 56.0309 25.4631 55.2835 24.7426C54.0274 23.5383 52.9189 22.172 51.847 20.8509L51.8416 20.8441C51.6227 20.5743 51.3964 20.2954 51.1722 20.0221C49.8734 18.4635 48.4435 17.0193 46.898 15.7051C45.7141 16.4827 44.4343 17.1034 43.0907 17.5514C41.806 17.9986 40.4757 18.3386 38.9946 18.705L38.6913 18.7801C37.0695 19.1818 35.7529 19.5482 34.5482 19.9337C33.18 20.3632 31.8394 20.8761 30.5339 21.4696C29.374 21.9939 28.2457 22.5856 27.1548 23.2416C26.0632 23.8958 25.0386 24.656 24.096 25.5112C22.0471 27.3922 20.4642 29.8219 19.1413 31.9518C17.573 34.5048 16.1917 37.1681 15.008 39.9208C13.9511 42.34 12.9252 45.0053 11.7808 48.3064C10.7694 51.2242 9.8236 54.2227 8.9697 57.2189C8.123 60.19 7.34437 63.2363 6.65574 66.2729C5.97816 69.2612 5.4098 72.3155 4.91815 75.6101C4.69554 77.1015 4.49344 78.6284 4.31728 80.1485C4.27179 80.5407 4.23432 80.9425 4.19797 81.3312V81.3346C4.0841 82.5522 3.96639 83.8111 3.59053 84.9897C3.51116 85.2683 3.34456 85.5141 3.11521 85.6909C2.91677 85.836 2.67687 85.9133 2.43107 85.9114C2.41137 85.9114 2.39151 85.9114 2.37197 85.9099L2.2698 87.1883C2.13944 88.8274 2.0086 90.5733 1.96552 92.3124C1.88817 95.4306 1.94246 98.2243 2.13191 100.852L2.1609 101.24C2.22379 102.313 2.39675 103.376 2.67705 104.414C3.02089 105.577 3.53304 106.479 4.24297 107.17C4.98861 107.897 5.97447 108.445 7.17269 108.8C8.26326 109.108 9.3909 109.266 10.5242 109.269C10.5937 109.27 10.6629 109.27 10.73 109.27C11.9258 109.264 13.1181 109.14 14.2896 108.9C15.4699 108.658 16.6322 108.335 17.7683 107.934C20.057 107.141 22.2744 106.1 24.4189 105.092L24.974 104.832C27.2461 103.767 29.549 102.615 31.8186 101.407C34.0286 100.23 36.2726 98.9662 38.4876 97.6501C40.6996 96.3363 42.9307 94.9514 45.119 93.5356C46.1817 92.8478 47.2555 92.136 48.3107 91.4208C48.5213 91.2779 48.7312 91.1279 48.9343 90.9828C49.3122 90.7128 49.703 90.4337 50.1034 90.1966C49.9529 90.0598 49.8482 89.88 49.8036 89.6815C49.7823 89.5798 49.7816 89.4749 49.8016 89.373C49.8215 89.271 49.8617 89.1741 49.9197 89.0879C49.4729 88.6935 49.0867 88.2354 48.7735 87.7284C48.451 87.2079 48.1853 86.6544 47.9809 86.0772C47.5819 84.9427 47.3565 83.7544 47.3122 82.5525C47.252 81.0024 47.4424 79.4344 47.6265 77.9182L47.6275 77.9101C47.657 77.6674 47.6874 77.4164 47.7164 77.1698C47.8251 76.2423 47.9592 75.3273 48.0876 74.4756C48.11 74.3271 48.1296 74.1789 48.1504 74.0222C48.1787 73.8085 48.2079 73.5874 48.2442 73.3697C45.8673 74.6764 43.4078 75.9379 40.934 77.1197C38.4934 78.2855 35.9669 79.408 33.4246 80.4558C30.9092 81.4927 28.3242 82.4472 25.5223 83.3739L24.9812 83.5521C23.4498 84.0535 22.267 84.4161 21.1461 84.7272C19.7319 85.1199 18.4565 85.4173 17.247 85.6363C17.2392 85.6377 17.2313 85.6384 17.2233 85.6384C17.1884 85.6369 17.1549 85.6239 17.1281 85.6014C17.1013 85.5788 17.0827 85.5481 17.0752 85.5139C17.069 85.4884 17.0724 85.4615 17.085 85.4385C17.0975 85.4154 17.1182 85.3979 17.1429 85.3892C18.8342 84.6426 20.5923 83.9633 22.2925 83.3053C23.1534 82.9724 24.0438 82.6281 24.9142 82.28L25.3392 82.1068C25.2879 82.104 25.2369 82.0966 25.1869 82.0847C24.114 81.8254 23.0322 81.4624 21.9866 81.1112L21.984 81.1104C21.555 80.9662 21.1114 80.8174 20.6774 80.6788C20.2434 80.5402 19.7841 80.4154 19.3395 80.2943C18.3565 80.0272 17.3399 79.7512 16.4545 79.2944C16.4356 79.2857 16.4203 79.2707 16.4111 79.252C16.402 79.2333 16.3996 79.212 16.4043 79.1917C16.4094 79.1672 16.4221 79.1449 16.4407 79.1281C16.4593 79.1113 16.4827 79.1009 16.5076 79.0985C16.6531 79.0884 16.8054 79.0832 16.9604 79.0832C17.9514 79.0832 18.9821 79.2869 19.9788 79.4838C20.3169 79.5506 20.6354 79.6137 20.9557 79.6695L21.49 79.763C22.3088 79.9072 23.2604 80.0809 24.1905 80.3121C24.2078 80.1605 24.2553 80.0138 24.3302 79.8809C24.4051 79.748 24.5059 79.6314 24.6266 79.5381C26.7969 77.9302 26.9788 74.9645 27.1395 72.3479V72.3464C27.1724 71.8103 27.2035 71.3041 27.2504 70.8193L27.4575 68.6814C27.8087 65.0724 28.2009 61.235 28.7918 57.4842C28.7964 57.4484 28.8144 57.4158 28.842 57.3927C28.8697 57.3697 28.9051 57.358 28.9411 57.36C28.9887 57.358 29.0351 57.3746 29.0706 57.4064C29.1061 57.4381 29.1278 57.4825 29.131 57.53C29.1519 60.6843 28.9925 63.8818 28.8385 66.9741C28.7677 68.3952 28.6943 69.8647 28.6395 71.3127L28.6126 72.0668L28.6086 72.1857C28.514 74.9846 28.4165 77.8786 26.6549 80.0306C26.764 79.9664 26.8881 79.9319 27.0147 79.9306C27.0963 79.9291 27.1771 79.9458 27.2514 79.9795C27.3257 80.0131 27.3916 80.0629 27.4444 80.1251C27.6842 80.3861 27.8218 80.725 27.8319 81.0793C29.3854 80.4277 31.0068 79.7281 32.6504 78.9998C35.1747 77.881 37.7402 76.6655 40.2758 75.3873C42.7429 74.1434 45.2477 72.8069 47.7205 71.414C47.8265 71.35 47.9441 71.3078 48.0665 71.2896C48.1889 71.2715 48.3137 71.2779 48.4336 71.3084C48.5536 71.3389 48.6663 71.393 48.7651 71.4674C48.864 71.5418 48.9472 71.6351 49.0097 71.7419L49.0474 71.7365C49.0537 71.7356 49.0601 71.735 49.0666 71.7349L49.1039 71.7331H49.1081C49.3298 71.6139 49.5782 71.5533 49.8298 71.5569C50.3888 71.5717 50.9226 71.7926 51.3288 72.1771C51.3431 72.1908 51.3562 72.2059 51.3679 72.2192L51.3767 72.2293C52.1386 71.8863 52.8417 71.4252 53.46 70.863C54.1127 70.2647 54.7169 69.6155 55.267 68.9215C55.7745 68.2896 56.2821 67.5852 56.819 66.7681C57.2586 66.0987 57.6889 65.3989 58.1051 64.722C58.7366 63.6952 59.3895 62.6336 60.0968 61.6398C60.7924 60.6386 61.5887 59.7113 62.4733 58.8724C63.4376 57.9879 64.5189 57.2402 65.6869 56.6504C66.8543 56.063 68.0775 55.5939 69.3383 55.2502C69.3336 55.2132 69.3374 55.1756 69.3492 55.1402C69.361 55.1048 69.3807 55.0725 69.4066 55.0457C69.4354 55.0075 69.4717 54.9756 69.5133 54.9518C69.5548 54.9281 69.6008 54.913 69.6483 54.9076C69.6999 54.9097 69.7504 54.9233 69.796 54.9475C69.8073 54.953 69.8167 54.9618 69.8227 54.9728L70.0687 54.5523C70.2476 54.2479 70.3493 54.0835 70.389 54.0337C70.6732 53.6754 70.9694 53.3159 71.2698 52.9647C71.7679 52.3461 72.36 51.8096 73.0244 51.3746C73.5617 51.0428 74.1825 50.871 74.814 50.8795C75.7108 50.8795 76.6289 51.1795 77.5163 51.4695L77.5367 51.476C78.13 51.6699 78.7318 51.8713 79.3143 52.0659L79.3303 52.0712C79.6362 52.1734 79.9525 52.2795 80.2636 52.3827L80.3573 52.4134C80.4134 52.4314 80.4694 52.4492 80.5325 52.4687C80.8551 52.5576 81.1677 52.6795 81.4654 52.8324C81.7468 52.9744 81.973 53.206 82.1084 53.4907C82.2439 53.7755 82.2808 54.0972 82.2134 54.4052C84.6812 53.7941 87.2155 53.4923 89.7578 53.5069C91.8577 53.513 93.9538 53.687 96.0261 54.0271C98.0725 54.3609 100.094 54.8337 102.076 55.4421C102.204 55.477 102.32 55.5444 102.413 55.6378C102.506 55.7312 102.574 55.8473 102.609 55.9747C102.973 57.8216 103.223 59.6892 103.358 61.5669C103.492 63.4448 103.48 65.3303 103.323 67.2064C103.188 68.822 102.929 70.4248 102.549 72.001C102.168 73.5768 101.64 75.1133 100.972 76.5903L100.895 76.7577C100.091 78.4967 99.2718 79.8732 98.3906 80.9662C97.8818 81.6098 97.2955 82.1881 96.645 82.688C96.013 83.1733 95.2962 83.5365 94.5311 83.7589C93.7202 83.9717 92.8838 84.0709 92.0456 84.0539C91.3176 84.0539 90.5779 84.0012 89.8623 83.9504C89.4868 83.9236 89.0984 83.896 88.7235 83.8771C88.3097 83.8563 87.8863 83.8392 87.4768 83.8225H87.4758C86.0568 83.765 84.5895 83.7057 83.1756 83.4811C82.3846 83.3631 81.6204 83.1075 80.9175 82.726C80.2178 82.3394 79.6068 81.8104 79.1239 81.1732C78.2522 80.0256 77.7937 78.6258 77.4281 77.2847C77.2314 77.3473 77.0698 77.4039 76.9199 77.4625C76.228 77.7496 75.6007 78.1729 75.0755 78.7072C74.5589 79.2079 74.0869 79.7661 73.6304 80.306C73.0849 80.9836 72.4911 81.6207 71.8537 82.2125C70.769 83.1561 69.5421 83.9223 68.2184 84.4826C67.0959 84.9571 65.9388 85.3448 64.7571 85.6422C63.581 85.9487 62.3676 86.1993 61.1943 86.4417L61.1844 86.4438C60.6795 86.5481 60.1572 86.6561 59.6449 86.7669L59.4428 86.811C58.53 87.0112 57.3354 87.2894 56.1809 87.6657C55.1114 88.0014 54.082 88.4533 53.1109 89.0134C53.0793 89.343 52.9242 89.6485 52.6769 89.8685C52.8473 90.0253 52.9634 90.2322 53.0086 90.4594C53.0514 90.7052 52.9989 90.9581 52.8619 91.1665C52.1649 92.2731 51.0362 92.987 49.9458 93.6776L49.9443 93.6785C49.7333 93.8121 49.5148 93.9509 49.3038 94.0887L49.2198 94.1441C47.9582 94.9809 46.6676 95.8127 45.3842 96.6162C42.8699 98.1906 40.2507 99.7202 37.3744 101.292C35.1412 102.512 32.9156 103.679 30.7596 104.759C28.4874 105.896 26.2178 106.977 24.0139 107.968C24.1445 108.707 24.2195 109.455 24.2381 110.206C24.2584 110.82 24.3095 111.432 24.3912 112.041L24.4232 112.233C24.4748 112.455 24.4673 112.688 24.4015 112.907C24.3356 113.125 24.2136 113.323 24.0477 113.48L24.0112 113.514V113.509L23.9791 113.539L23.9682 113.548L23.9719 113.545C23.9334 113.581 23.8924 113.614 23.8494 113.644L23.7961 113.679C23.6263 113.78 23.4321 113.833 23.2344 113.831ZM49.264 73.6781C49.2656 73.7891 49.266 73.9034 49.2664 74.0041C49.2664 74.168 49.2677 74.3228 49.2719 74.4769C49.2903 75.1766 49.2998 75.9225 49.2998 76.694C49.2998 77.2528 49.2889 77.8208 49.2783 78.37C49.2596 79.3431 49.2402 80.3491 49.2813 81.3374C49.3034 82.0306 49.3798 82.7209 49.51 83.4021C49.6381 84.084 49.8667 84.7431 50.1884 85.3578C50.4132 85.7784 50.6941 86.1665 51.0234 86.5114C51.3459 86.8433 51.697 87.1462 52.0727 87.4164C53.0207 86.846 54.0219 86.3692 55.0621 85.9928C56.1092 85.6123 57.1774 85.2928 58.2614 85.036C59.1161 84.8277 59.9919 84.6393 60.8398 84.4568H60.8409C62.5905 84.08 64.3997 83.6905 66.1241 83.108C67.3613 82.707 68.5361 82.1343 69.6142 81.4066C70.6603 80.6857 71.4937 79.713 72.2994 78.7731L72.3085 78.7623C72.3784 78.6807 72.4485 78.5992 72.5186 78.5177L72.6584 78.3562C73.5472 77.3363 74.5504 76.3131 75.8602 75.7367C76.31 75.5543 76.7726 75.4054 77.2442 75.2913C78.0141 75.0841 78.8097 74.8699 79.4099 74.4023C79.9083 74.0136 79.9582 73.4612 80.0111 72.8762L80.0141 72.8419C79.8732 72.8615 79.731 72.871 79.5888 72.8703C79.2337 72.8616 78.8796 72.8283 78.5291 72.7708H78.5268C78.3899 72.7516 78.2485 72.7317 78.1116 72.7157L77.79 72.6781C77.2048 72.6187 76.6242 72.5198 76.0522 72.3821C76.029 72.375 76.0086 72.3606 75.9942 72.3411C75.9797 72.3215 75.9719 72.2978 75.9719 72.2735C75.9719 72.2492 75.9797 72.2255 75.9942 72.2059C76.0086 72.1864 76.029 72.172 76.0522 72.1649C76.7024 72.0115 77.3623 71.9034 78.0273 71.8413L78.1117 71.8313L78.2762 71.8108C78.3563 71.8002 78.4389 71.7889 78.5187 71.7778H78.5206C78.8714 71.7209 79.2257 71.6881 79.5809 71.6794C79.7877 71.6774 79.9941 71.6984 80.1962 71.7421C80.3092 71.311 80.4766 70.896 80.6944 70.5072C80.7905 70.3346 80.9105 70.1576 81.0378 69.9701C81.3318 69.5375 81.6356 69.0889 81.6921 68.6253C81.7135 68.4154 81.6733 68.2038 81.5764 68.0165L81.5443 67.9566C81.5087 67.883 81.4557 67.8192 81.3901 67.7705C81.3734 67.7852 81.3533 67.7954 81.3316 67.8002C81.123 67.8683 80.8971 67.8612 80.6932 67.78C80.4893 67.6989 80.3203 67.5488 80.2154 67.3559C79.58 67.422 78.9415 67.4536 78.3026 67.4506C77.9758 67.4549 77.667 67.4591 77.3693 67.4724L76.4784 67.5155C76.1852 67.5289 75.7991 67.5443 75.4131 67.5445C74.817 67.555 74.2216 67.5018 73.6368 67.3859C73.6051 67.3768 73.577 67.358 73.5566 67.3321C73.5362 67.3063 73.5244 67.2746 73.5229 67.2417C73.5183 67.2126 73.5232 67.1829 73.5369 67.1568C73.5507 67.1308 73.5725 67.11 73.5991 67.0975C74.5541 66.6889 75.665 66.525 76.738 66.3668C76.894 66.3437 77.0552 66.32 77.2104 66.2961C77.6479 66.2288 78.0949 66.1713 78.5273 66.1157L78.538 66.1143C78.7518 66.0867 78.9728 66.0583 79.1898 66.029C79.3305 66.0101 79.4768 65.9866 79.6186 65.964H79.6198C79.9276 65.9091 80.2381 65.8706 80.55 65.8486C80.8288 65.5015 81.0152 65.0894 81.0916 64.6507C81.1659 64.2267 81.1461 63.7914 81.0336 63.3759C80.9273 62.9772 80.7361 62.6062 80.4731 62.2884C80.2112 61.97 79.8718 61.7243 79.4876 61.5751C79.2581 61.6746 79.01 61.7238 78.76 61.7193C78.5518 61.7148 78.344 61.6979 78.1378 61.6685H78.1356C78.0137 61.6538 77.8879 61.6385 77.7575 61.6273C77.0553 61.5671 76.4739 61.539 75.9278 61.539H75.8614C75.3356 61.5511 74.8109 61.5896 74.289 61.6544C73.7503 61.7217 73.2083 61.7605 72.6655 61.7709C72.4403 61.7718 72.2152 61.7598 71.9914 61.735C71.93 61.7258 71.8724 61.6996 71.825 61.6596C71.7776 61.6195 71.7423 61.567 71.723 61.508C71.7099 61.4657 71.7103 61.4203 71.7242 61.3783C71.7381 61.3362 71.7648 61.2995 71.8005 61.2734C72.3003 60.8852 72.8727 60.6009 73.484 60.4374C74.0997 60.2664 74.7274 60.1419 75.3617 60.0648L75.6147 60.031C75.7252 60.0165 75.8437 60 75.9584 59.984C76.2872 59.9384 76.6592 59.8866 77.0381 59.8523C77.0992 59.7306 77.1898 59.6263 77.3018 59.5489C77.4137 59.4715 77.5434 59.4236 77.6787 59.4095C77.7633 59.3979 77.8491 59.3906 77.9322 59.3835L77.9601 59.3811L77.9586 59.3718C78.0549 59.3685 78.1487 59.3406 78.2312 59.2908C78.3137 59.2411 78.3822 59.1711 78.4301 59.0875C78.6916 58.6709 78.6369 57.906 78.4823 57.5406C78.2954 57.0987 77.9103 56.7775 77.3374 56.5859C76.8074 56.4275 76.2558 56.3539 75.7028 56.3678C75.4626 56.3678 75.2124 56.3771 74.9181 56.397C73.49 56.4925 72.0736 56.7189 70.6869 57.0734C69.2991 57.4197 67.9562 57.9256 66.6848 58.581C65.4524 59.2389 64.3402 60.1006 63.3952 61.1297C62.4541 62.1599 61.608 63.2731 60.8671 64.4557L60.7951 64.5679C60.5477 64.9524 60.2961 65.3582 60.0528 65.7504L60.0512 65.7528C59.4229 66.7657 58.7734 67.813 58.0374 68.7716C57.3286 69.7348 56.4709 70.5788 55.4966 71.272C54.0744 72.2434 52.7122 72.8786 51.4481 73.1601C51.3986 73.2501 51.3309 73.3288 51.2494 73.3912C51.168 73.4537 51.0744 73.4986 50.9747 73.523L50.8762 73.5456C50.4651 73.6384 50.0455 73.6887 49.624 73.6959C49.5038 73.6964 49.3836 73.6905 49.264 73.6781ZM25.9427 81.8C25.9291 81.8208 25.9144 81.8408 25.8985 81.8599L25.8741 81.8881L26.0003 81.837L25.9427 81.8ZM86.395 54.502C84.9747 54.502 83.5284 54.5403 82.1689 54.5794C82.0236 55.0189 81.7494 55.4045 81.3819 55.686C81.0284 55.9777 80.5914 56.1496 80.1339 56.177C80.4722 56.7034 80.6699 57.3077 80.7082 57.9323C80.7539 58.5485 80.6513 59.1667 80.409 59.735C80.9199 59.9362 81.3925 60.2234 81.8063 60.5842C82.231 60.9562 82.5814 61.4053 82.8389 61.9079C83.0187 62.257 83.1532 62.6277 83.2393 63.0109C83.3216 63.3794 83.3572 63.7568 83.3455 64.1342C83.3182 64.8858 83.1143 65.6205 82.7504 66.2786C83.0682 66.5735 83.3158 66.9359 83.4752 67.3391C83.6421 67.7463 83.7204 68.1845 83.7049 68.6243C83.6685 69.4757 83.2178 70.2146 82.7821 70.929C82.7259 71.0211 82.6679 71.1161 82.6125 71.2089C82.1937 71.91 82.1039 72.542 81.9998 73.2737C81.9758 73.4424 81.9517 73.6167 81.9213 73.7979C81.8215 74.4456 81.5317 75.0489 81.0885 75.5315C80.6424 75.9954 80.1046 76.3613 79.5093 76.6059L79.5745 76.8622C79.7242 77.4893 79.9203 78.1044 80.1611 78.7024C80.3966 79.2949 80.7456 79.8357 81.1885 80.2943C82.2651 81.3677 83.902 81.4379 85.3462 81.5002C85.4702 81.5055 85.5818 81.5105 85.6921 81.5162L85.7663 81.5198C86.9126 81.5771 88.0775 81.6436 89.2041 81.7078H89.2065H89.2152L89.9861 81.7517L91.041 81.8107C91.3719 81.829 91.7617 81.8476 92.146 81.8476C92.7422 81.8595 93.3373 81.794 93.9166 81.6527C94.5096 81.5024 95.0627 81.2249 95.5378 80.8393C96.5296 80.036 97.4533 78.927 98.2832 77.5428C99.0141 76.301 99.6265 74.9931 100.112 73.6365C100.599 72.2968 100.975 70.9198 101.238 69.519C101.5 68.1198 101.664 66.7043 101.731 65.2824C101.798 63.8568 101.783 62.4286 101.686 61.0047C101.596 59.6351 101.432 58.2076 101.199 56.762C98.1669 55.7782 95.0421 55.1072 91.8735 54.7593C90.0533 54.5746 88.2245 54.4887 86.395 54.502ZM75.6373 54.2214C76.2843 54.214 76.9298 54.2863 77.5591 54.4369C78.1626 54.5816 78.731 54.8462 79.2304 55.2149C79.2324 55.2116 79.2342 55.208 79.236 55.2047C79.2377 55.2013 79.2414 55.1943 79.2448 55.1887C79.4012 54.9646 79.579 54.7563 79.7757 54.5667L79.7819 54.5601C79.8 54.543 79.8181 54.5251 79.8373 54.505L79.9445 54.391L79.6996 54.3062C79.3266 54.1742 78.9078 54.0162 78.6575 53.9217C78.5566 53.8836 78.4839 53.8562 78.4556 53.8461L78.4488 53.8438L78.1074 53.7283H78.1063C77.5618 53.5439 76.9973 53.3532 76.4454 53.1576C76.3469 53.1227 76.2499 53.0863 76.1471 53.0476C75.702 52.8805 75.2417 52.7076 74.7772 52.7076C74.686 52.7074 74.5949 52.7145 74.5049 52.7289C74.0397 52.8216 73.6005 53.0155 73.2185 53.2969C72.8082 53.59 72.4159 53.9074 72.0436 54.2476L72.0425 54.2485C71.8373 54.4286 71.6436 54.5986 71.4517 54.7542L71.9041 54.6662C73.108 54.4356 74.393 54.2216 75.6373 54.2214ZM106.168 113.68C106.058 113.68 105.952 113.644 105.866 113.576C105.819 113.539 105.78 113.492 105.752 113.439C105.724 113.387 105.707 113.329 105.702 113.269L105.63 112.575C105.562 111.696 105.396 110.827 105.133 109.985C104.811 108.99 104.6 107.962 104.502 106.921C104.316 105.281 104.234 103.599 104.165 102.016L104.117 100.884C103.964 97.3455 103.899 93.8875 103.923 90.606C103.95 87.0832 104.08 83.6271 104.311 80.3334L104.346 79.8452C104.492 77.8671 104.633 76.3525 104.806 74.9331C105.027 73.1159 105.296 71.5056 105.628 70.0102C106.436 66.3724 107.631 63.3823 109.283 60.869C109.294 60.8517 109.309 60.8374 109.327 60.8276C109.344 60.8177 109.365 60.8126 109.385 60.8126C109.404 60.8126 109.422 60.8167 109.439 60.8248C109.456 60.8329 109.471 60.8448 109.483 60.8594C109.494 60.8737 109.501 60.8904 109.505 60.9082C109.508 60.9259 109.508 60.9442 109.503 60.9616C108.672 64.367 107.828 68.0263 107.288 71.712C107.075 73.16 106.912 74.6423 106.79 76.2434C106.681 77.6693 106.607 79.1581 106.563 80.7935C106.483 83.8308 106.523 86.9222 106.562 89.9118V89.9409C106.569 90.4456 106.576 90.9674 106.582 91.4802L106.586 91.8212C106.622 94.9756 106.675 98.708 106.799 102.474C106.814 102.907 106.831 103.348 106.849 103.775C106.904 105.121 106.961 106.513 106.912 107.875C106.881 108.424 106.811 108.971 106.705 109.512C106.637 109.909 106.565 110.32 106.526 110.732C106.477 111.433 106.48 112.137 106.535 112.838C106.542 112.972 106.551 113.123 106.557 113.27C106.562 113.323 106.556 113.377 106.539 113.427C106.523 113.478 106.495 113.525 106.46 113.565C106.421 113.603 106.376 113.633 106.325 113.653C106.275 113.672 106.221 113.682 106.167 113.68H106.168ZM123.851 113.383C123.66 113.386 123.47 113.35 123.292 113.277C123.115 113.205 122.954 113.098 122.819 112.962C122.72 112.857 122.644 112.733 122.596 112.598C122.548 112.462 122.53 112.318 122.541 112.175C122.788 108.426 122.991 104.398 122.807 100.351C122.63 96.4459 122.258 92.472 121.704 88.5392C121.359 86.095 120.881 83.6328 120.419 81.2517C120.258 80.4209 120.091 79.5618 119.932 78.7099L119.836 78.1931C119.356 75.5944 118.854 72.9541 118.369 70.4016L118.368 70.3968L118.264 69.8479L117.474 65.6842C116.395 60.0024 115.127 53.4055 113.72 47.0149L113.64 46.6504C112.842 43.0872 112 40.2502 110.988 37.7218C110.416 36.2762 109.744 34.8718 108.978 33.5186C108.214 32.1726 107.33 30.899 106.335 29.7136C105.833 29.1202 105.298 28.5547 104.734 28.0196C104.192 27.5053 103.605 27.0015 102.99 26.5221C101.78 25.5887 100.5 24.7486 99.1629 24.0092C97.9618 23.3363 96.6114 22.6648 95.0333 21.9575C93.5861 21.3086 92.0943 20.694 90.7782 20.1517C90.7321 20.1345 90.6936 20.1014 90.6696 20.0584C90.6457 20.0153 90.6379 19.9651 90.6477 19.9168C90.6543 19.8748 90.6759 19.8366 90.7085 19.8092C90.7411 19.7818 90.7824 19.7672 90.825 19.768C90.844 19.7681 90.8629 19.7704 90.8813 19.7749L91.3379 19.8838C94.5202 20.6464 97.8948 21.518 101.093 23.0464C102.64 23.7876 104.091 24.7156 105.413 25.8096C106.733 26.905 107.925 28.1458 108.967 29.5087C110.837 31.9469 112.34 34.7957 113.559 38.2156C114.719 41.4668 115.491 44.8741 116.093 47.7783C116.803 51.2059 117.495 54.697 118.164 58.073C118.897 61.7763 119.656 65.6056 120.442 69.3644L120.721 70.7028C121.556 74.7213 122.171 77.8207 122.715 80.7527C123.395 84.4147 123.944 87.7219 124.392 90.8621L124.462 91.3532C125.034 95.4372 125.356 98.7951 125.476 101.921C125.547 103.765 125.544 105.551 125.468 107.231C125.392 108.996 125.222 110.756 124.96 112.503C124.943 112.635 124.899 112.762 124.832 112.877C124.764 112.992 124.673 113.092 124.566 113.171C124.356 113.315 124.106 113.389 123.851 113.383H123.851ZM75.6006 107.503C75.4398 107.504 75.2827 107.455 75.1519 107.361C75.0211 107.268 74.9232 107.135 74.8723 106.983C74.6298 106.141 74.5139 105.268 74.5285 104.392C74.5245 103.499 74.6018 102.599 74.6768 101.729V101.727C74.6987 101.471 74.7195 101.23 74.7384 100.988L74.8544 99.4957C74.9572 98.1571 75.0744 96.5781 75.1649 95.0158C75.285 92.9491 75.3854 90.8456 75.476 88.8796C75.5052 88.2476 75.5375 87.5955 75.5747 86.8863L75.6287 85.8901C75.6348 85.7806 75.64 85.6682 75.6447 85.5594C75.6796 84.8131 75.7156 84.0414 76.0162 83.3717C76.0394 83.3231 76.0765 83.2825 76.1228 83.255C76.169 83.2276 76.2224 83.2144 76.2761 83.2172C76.333 83.2155 76.3893 83.2289 76.4393 83.256C76.4893 83.2832 76.5312 83.3231 76.5607 83.3717C76.9319 84.0571 77.0072 84.9318 77.0732 85.7036V85.7074C77.0804 85.7904 77.0878 85.8761 77.0953 85.9591L77.1035 86.0476C77.2228 87.3088 77.2969 88.2793 77.3437 89.1945C77.4454 91.1903 77.4939 93.2019 77.4878 95.1733C77.4806 97.4655 77.4289 99.4704 77.3299 101.303L77.3001 101.85C77.2606 102.767 77.1678 103.68 77.0224 104.586C76.8853 105.482 76.6035 106.349 76.1881 107.155C76.1319 107.261 76.0472 107.351 75.9434 107.412C75.8397 107.474 75.7209 107.505 75.6003 107.503L75.6006 107.503ZM6.49735 93.29C6.48871 93.29 6.48012 93.2886 6.47189 93.286C6.36684 93.2606 6.26852 93.2127 6.18365 93.1458C6.09877 93.0789 6.02933 92.9944 5.98008 92.8981C5.8699 92.6561 5.90721 92.3191 6.09106 91.8966C6.53803 90.87 7.27438 89.9305 7.98656 89.0219L7.99889 89.0059C8.06871 88.9168 8.13811 88.8284 8.20708 88.7406C8.95862 87.7777 9.77594 86.868 10.6532 86.0181L10.9104 85.7694C11.0098 85.6722 11.111 85.5696 11.2183 85.461C11.5796 85.0756 11.9717 84.7202 12.3906 84.3983C12.8786 84.0458 13.3274 83.8754 13.7626 83.8754C13.7972 83.8754 13.8321 83.8765 13.8667 83.8787C13.9724 83.8809 14.0762 83.9069 14.1705 83.9548C14.2647 84.0027 14.3469 84.0713 14.4109 84.1555C14.475 84.2396 14.5191 84.3372 14.5402 84.4408C14.5613 84.5444 14.5587 84.6515 14.5326 84.754C14.3713 85.5193 13.7299 85.9947 13.1095 86.4545C12.9324 86.5859 12.7653 86.7096 12.6079 86.8405C11.8166 87.4985 11.0819 88.1915 10.3362 88.903C9.69644 89.513 9.07267 90.1463 8.4292 90.8395L8.19843 91.0896C8.15935 91.1324 8.07624 91.2136 7.97118 91.3165L7.96974 91.3179C7.47056 91.8063 6.43233 92.8225 6.57214 93.1268L6.58143 93.1428C6.59038 93.1563 6.59538 93.172 6.59586 93.1882C6.59635 93.2044 6.59229 93.2204 6.58415 93.2344C6.57585 93.2506 6.56336 93.2643 6.54798 93.2741C6.53261 93.2838 6.5149 93.2893 6.49671 93.2899L6.49735 93.29ZM67.344 73.475C66.9623 73.4711 66.5976 73.3163 66.3296 73.0445C66.0464 72.7582 65.8434 72.4026 65.7407 72.0132C65.654 71.6183 65.6238 71.2132 65.651 70.8098C65.66 70.3365 65.6691 69.8471 65.4947 69.4281C65.3967 69.2117 65.2793 69.0046 65.1442 68.8092C65.0126 68.6181 64.8973 68.4163 64.7994 68.2058C64.6198 67.7794 64.5159 67.3248 64.4924 66.8626C64.4973 66.4743 64.568 66.0897 64.7015 65.7251C64.8671 65.1698 65.0378 64.5956 64.7808 64.123C64.7565 64.0731 64.745 64.018 64.7475 63.9626C64.75 63.9073 64.7663 63.8534 64.7949 63.8059C64.8153 63.7679 64.8456 63.736 64.8825 63.7137C64.9194 63.6914 64.9617 63.6795 65.0049 63.6792H65.0108L65.0345 63.6808C65.3516 63.7183 65.6455 63.8656 65.8653 64.0973C66.0871 64.3323 66.2436 64.6212 66.3193 64.9354C66.3894 65.2316 66.4418 65.5318 66.4761 65.8342C66.5546 66.4251 66.6286 66.9826 67.0083 67.5427C67.6116 68.4319 67.9543 69.1128 68.038 70.1606C68.0488 70.2957 68.054 70.433 68.0606 70.5652V70.5671C68.0649 70.8687 68.0962 71.1694 68.1543 71.4654L68.2251 71.766C68.3147 72.0822 68.3482 72.4116 68.3242 72.7394C68.319 72.8877 68.268 73.0307 68.1782 73.1487C68.0884 73.2667 67.9641 73.354 67.8226 73.3984C67.668 73.4485 67.5065 73.4743 67.344 73.475ZM36.9103 57.7117C36.2937 57.7168 35.6775 57.674 35.0675 57.5835C35.0311 57.579 34.9975 57.5615 34.973 57.5342C34.9485 57.5068 34.9347 57.4716 34.9341 57.4348C34.93 57.3896 34.9409 57.3442 34.965 57.3057C34.989 57.2672 35.0251 57.2376 35.0675 57.2214C36.2526 56.8624 37.5379 56.7158 38.7802 56.5742C39.0643 56.5421 39.3578 56.5083 39.645 56.4728C40.9742 56.3077 42.7212 56.0836 44.4561 55.8127C46.187 55.5422 47.7513 55.2761 49.2384 54.9991C49.9522 54.8663 50.6762 54.7255 51.3901 54.5805C51.5421 54.5496 51.6944 54.5108 51.8573 54.4698C52.2185 54.3621 52.5915 54.2987 52.9681 54.2812C53.1692 54.278 53.3691 54.3131 53.5571 54.3847C53.6484 54.419 53.7299 54.4753 53.7944 54.5484C53.8589 54.6216 53.9044 54.7095 53.927 54.8045C53.9436 54.8848 53.9393 54.968 53.9146 55.0461C53.8899 55.1243 53.8455 55.1948 53.7858 55.251C53.3534 55.6848 52.749 55.7765 52.1649 55.8651C52.0528 55.8822 51.9362 55.8998 51.8237 55.9195L51.7623 55.9306C50.9515 56.0807 50.12 56.2265 49.2911 56.364C47.7119 56.6256 46.141 56.8536 44.6223 57.0415C42.8255 57.2641 41.2485 57.4302 39.801 57.5497L39.1775 57.601C38.4538 57.6582 37.6784 57.7117 36.9103 57.7117ZM75.7222 50.2893C75.623 50.2898 75.5255 50.2641 75.4394 50.2146C75.3534 50.1652 75.282 50.0939 75.2325 50.008C74.6031 48.9623 74.2826 47.7557 73.9729 46.5887C73.8169 46.001 73.6557 45.3938 73.4571 44.8148C73.198 44.0594 72.9167 43.2976 72.645 42.5609V42.5598C72.3106 41.6533 71.965 40.7174 71.6572 39.7841C71.2856 38.6877 71.0056 37.5624 70.8199 36.4196C70.6328 35.2814 70.5984 34.1233 70.7179 32.976L70.7107 32.964C70.7049 32.9549 70.6995 32.9456 70.6947 32.9359L70.5117 32.5354C70.0198 31.4669 69.5381 30.5116 68.6229 29.6405C68.3924 29.421 68.1533 29.2042 67.9222 28.9945C67.2067 28.3455 66.467 27.6745 65.9033 26.8485C65.6114 26.424 65.3873 25.9568 65.239 25.4634C65.1017 24.9982 65.023 24.5177 65.0047 24.033C64.9599 23.0673 65.1089 22.0613 65.2531 21.0885C65.3428 20.4838 65.4353 19.859 65.4815 19.246L65.5037 18.9281C65.5442 18.3142 65.5405 17.6391 65.2071 17.2856C64.9256 16.987 64.376 16.8471 63.891 16.7238C63.6952 16.6739 63.5107 16.6276 63.3597 16.5735C61.9983 16.1006 60.6733 15.5288 59.3952 14.8626C58.1791 14.2342 57.0163 13.5075 55.9183 12.6899L55.3645 12.2734C54.4875 11.6112 53.5824 10.8901 52.9993 9.99592C52.9859 9.97377 52.9789 9.9484 52.9789 9.92254C52.9789 9.89668 52.9859 9.87131 52.9993 9.84916C53.0107 9.82548 53.0282 9.8053 53.0501 9.79072C53.072 9.77615 53.0973 9.76773 53.1236 9.76633C53.139 9.76596 53.1543 9.76857 53.1687 9.77402C53.9018 10.0983 54.6055 10.4851 55.2723 10.9301L55.2743 10.9314C55.4966 11.0706 55.7266 11.2148 55.9538 11.3513C55.9687 11.3167 55.9852 11.2829 56.0035 11.2499C56.5611 10.2427 56.9659 9.15809 57.2044 8.0317C57.4395 6.90451 57.5122 5.74948 57.4203 4.60169C57.4064 4.48646 57.417 4.3696 57.4513 4.25873C57.4857 4.14786 57.543 4.04548 57.6195 3.95827C57.7081 3.86878 57.8142 3.79843 57.931 3.75158C58.0479 3.70474 58.1732 3.68238 58.299 3.68591C58.5435 3.68394 58.7815 3.7648 58.9742 3.91533C59.0778 3.9986 59.1627 4.10274 59.2234 4.22099C59.2841 4.33925 59.3192 4.46896 59.3265 4.60169C59.5255 7.24847 58.9426 9.8954 57.6501 12.2134C57.6439 12.2247 57.6371 12.2351 57.6306 12.2455L57.6202 12.2615C58.5546 12.7481 59.3326 13.1228 60.0683 13.4404C61.2105 13.9335 62.2732 14.3366 63.3174 14.6724C63.5996 14.7632 63.8939 14.8369 64.2052 14.9148C64.9804 15.1088 65.7809 15.3092 66.3821 15.7883C66.7779 16.1069 67.0815 16.5254 67.2616 17.0006C67.4423 17.4864 67.5397 17.9992 67.5499 18.5174C67.592 19.5857 67.3798 20.7408 67.2093 21.6689C67.1883 21.7833 67.1665 21.9012 67.1462 22.015L67.0932 22.3141C66.9269 23.2714 66.7991 24.2847 67.2122 25.2253C67.6146 26.1421 68.3857 26.834 69.1315 27.5033L69.14 27.5108C69.2041 27.5679 69.2674 27.6249 69.3299 27.6816L69.4901 27.8258C70.2396 28.5089 71.0025 29.2582 71.5071 30.108C71.9227 29.2483 72.476 28.5219 73.062 27.7538L73.0641 27.7511C73.139 27.6529 73.2165 27.5512 73.2934 27.4496C73.684 26.9337 73.5314 26.6939 73.2784 26.2961C73.2191 26.203 73.152 26.0974 73.0862 25.9785C72.921 25.6882 72.7995 25.375 72.7255 25.0493C72.6541 24.7229 72.6432 24.3862 72.6935 24.0559C72.7415 23.7483 72.8376 23.4501 72.9782 23.1724C73.1184 22.8982 73.2909 22.6418 73.4921 22.4088C73.9055 21.9436 74.3788 21.5354 74.8997 21.1949C75.5966 20.7368 76.3161 20.3141 77.0554 19.9284C77.5791 19.644 78.1204 19.35 78.6362 19.0332C81.1804 17.4865 83.5843 15.72 85.8206 13.7539C85.8343 13.7415 85.8522 13.7347 85.8707 13.7348C85.8854 13.7348 85.8999 13.7387 85.9127 13.7461C85.9254 13.7534 85.936 13.764 85.9434 13.7768C85.9491 13.7875 85.9516 13.7995 85.9507 13.8116C85.9499 13.8236 85.9456 13.8352 85.9384 13.8449C84.2362 16.4838 82.1026 18.8175 79.6269 20.7487C78.756 21.423 77.8278 22.0121 76.93 22.5818C76.7606 22.6893 76.608 22.7863 76.4552 22.8838L76.145 23.083C75.6466 23.406 75.1598 23.7671 74.9759 24.2171C74.8257 24.5834 75.0372 24.886 75.2416 25.1784C75.3056 25.2699 75.3715 25.3642 75.4254 25.4593C75.5932 25.7481 75.7109 26.0634 75.7734 26.3915C75.8269 26.6886 75.8273 26.9928 75.7744 27.29C75.6423 27.9124 75.3574 28.492 74.9455 28.9767L74.9059 29.0261C74.0474 30.0845 73.4135 31.0589 73.1108 32.3736C72.812 33.6713 72.8128 35.0892 73.1132 36.7074C73.3834 38.1626 73.8582 39.5871 74.3304 40.9098L74.3683 41.0157C74.4945 41.3681 74.6245 41.7245 74.7509 42.0699L74.7525 42.074C75.1453 43.1504 75.5511 44.2627 75.8929 45.3762L76.0172 45.7833C76.4284 47.1451 76.7596 48.4808 76.3026 49.8673C76.2627 49.99 76.1851 50.0968 76.0808 50.1726C75.9765 50.2484 75.8509 50.2893 75.722 50.2893H75.7222ZM80.8434 30.8778C80.7178 30.8778 80.5897 30.873 80.4625 30.8637C79.7084 30.8189 78.9734 30.608 78.3102 30.2461C78.0371 30.0707 77.7827 29.8678 77.5511 29.6405C77.0665 29.2009 76.5655 28.7464 76.0113 28.7464C75.9058 28.7465 75.801 28.7633 75.7007 28.7962C75.6918 28.7991 75.6824 28.8006 75.673 28.8007C75.6502 28.7992 75.6284 28.7909 75.6104 28.7769C75.5923 28.7629 75.5788 28.7439 75.5717 28.7222C75.5645 28.7046 75.5632 28.6852 75.568 28.6669C75.5728 28.6485 75.5834 28.6322 75.5982 28.6204C75.8316 28.4232 76.1273 28.3153 76.4328 28.316C76.987 28.316 77.5554 28.6449 78.105 28.9631C78.4292 29.1683 78.774 29.3389 79.1338 29.472C79.9214 29.7231 80.7674 29.7245 81.5558 29.4759C82.3442 29.2273 83.0365 28.7408 83.5378 28.0832C84.6472 26.657 85.6691 25.1647 86.5979 23.6147C87.0733 22.8445 87.5001 22.0453 87.8756 21.2218C88.0713 20.7517 88.2227 20.2643 88.3277 19.7661C88.4129 19.3849 88.5193 19.0087 88.6462 18.6393C88.7297 18.409 88.8884 18.2136 89.0967 18.0846C89.2935 17.9634 89.5201 17.8992 89.7512 17.8991C89.8899 17.8956 90.0278 17.9202 90.1568 17.9714C90.2857 18.0226 90.403 18.0994 90.5015 18.1971C90.5891 18.2949 90.6555 18.4099 90.6964 18.5347C90.7373 18.6595 90.7518 18.7915 90.7391 18.9222C90.6895 19.8138 90.3341 20.6381 89.9906 21.4353C89.9578 21.5114 89.9252 21.5874 89.8926 21.6635L89.8522 21.7583C89.4668 22.674 89.0045 23.5553 88.4702 24.3929C87.4251 26.0023 86.2436 27.5188 84.9388 28.9256C84.4159 29.5113 83.788 29.9938 83.0875 30.3482C82.3904 30.6961 81.6222 30.8774 80.8432 30.8778H80.8434ZM90.156 17.256C89.9021 17.2486 89.661 17.1422 89.4844 16.9594C88.7453 16.2649 88.063 15.5122 87.4441 14.7086C86.8167 13.9128 86.3243 13.0193 85.9868 12.0636C85.9788 12.0388 85.977 12.0124 85.9814 11.9866C85.9859 11.9609 85.9965 11.9366 86.0124 11.9159C86.03 11.8914 86.053 11.8712 86.0796 11.8571C86.1063 11.843 86.1358 11.8353 86.166 11.8345C86.1964 11.8344 86.2261 11.8433 86.2515 11.86C86.7551 12.2056 87.234 12.5857 87.685 12.9975C87.9004 13.1853 88.123 13.3793 88.3461 13.5618C89.1197 14.1945 89.9035 14.8172 90.6759 15.4127C90.8672 15.5515 91.0089 15.748 91.0801 15.9735C91.1355 16.1652 91.1299 16.3694 91.0641 16.5578C91.0026 16.7533 90.8825 16.9251 90.72 17.05C90.5576 17.1749 90.3607 17.2468 90.156 17.256ZM84.757 14.1432C84.5299 14.1417 84.3102 14.062 84.1349 13.9176C83.1161 13.0953 82.3641 11.9891 81.974 10.739C81.7775 10.1217 81.6676 9.48002 81.6475 8.83245C81.6265 8.17872 81.6989 7.52535 81.8625 6.8921C81.9043 6.69596 82.0136 6.52071 82.1712 6.39687C82.3289 6.27303 82.525 6.20845 82.7254 6.2144C82.8821 6.2141 83.0369 6.24825 83.179 6.31441C83.321 6.38058 83.4468 6.47715 83.5474 6.59731C83.6323 6.70363 83.6911 6.8283 83.7193 6.96139C83.7475 7.09448 83.7443 7.23232 83.7098 7.36393L83.7012 7.39918C83.4592 8.32804 83.4968 9.30773 83.8094 10.2153C84.1248 11.1197 84.6847 11.9189 85.4269 12.5241L85.4826 12.5694C85.6252 12.6762 85.7305 12.8253 85.7834 12.9954C85.8238 13.1427 85.8174 13.2988 85.7652 13.4423C85.6851 13.6456 85.5466 13.8207 85.3672 13.9455C85.1878 14.0702 84.9755 14.139 84.757 14.1432Z" fill="black"/>
</svg>
