<svg width="128" height="128" viewBox="0 0 128 120" fill="none" xmlns="http://www.w3.org/2000/svg">
<path d="M98.4436 41.3424C97.0601 40.8456 95.7266 40.2732 94.5117 39.4302C91.0095 36.808 88.7258 32.8617 86.5681 29.1227C83.5286 23.6847 81.3634 17.8902 79.8666 11.8453C79.2235 9.24822 79.005 6.23637 77.5438 3.93445C74.2313 -0.886859 64.518 -0.262181 59.3602 0.584132C55.9062 1.19888 55.1923 5.08733 54.4079 7.96409C53.7812 10.3517 53.3004 12.7756 52.9681 15.2223C52.0979 15.7742 51.1822 16.2503 50.2313 16.6452C40.2168 19.7341 38.4567 25.4607 34.6317 34.3065C28.1713 47.1634 10.6411 52.1978 7.99309 67.414C6.28698 77.4597 11.1386 86.9105 16.1406 95.2617C20.799 104.384 27.3024 108.762 37.6594 106.607C47.3736 104.415 56.7095 100.748 66.2528 97.9145C70.875 96.7713 75.4899 93.7979 80.3522 94.8346C90.3803 97.1204 100.653 98.1395 110.931 97.8685C125.347 98.4548 125.345 84.5374 123.865 73.7597C122.829 56.9871 114.418 46.2171 98.4436 41.3424Z" fill="white"/>
<path d="M62.2578 124C53.3013 124 44.9581 123.726 37.4601 123.185C29.0305 122.578 21.8572 121.643 16.1392 120.406C15.8895 120.693 15.581 120.923 15.2348 121.078C14.8886 121.234 14.513 121.313 14.1338 121.308C13.7285 121.311 13.3286 121.216 12.9673 121.031C12.5916 120.837 12.2787 120.54 12.0651 120.173C11.8295 119.737 11.6827 119.257 11.6332 118.763C11.5724 118.244 11.5389 117.722 11.5329 117.2V117.198C11.5266 116.974 11.5207 116.763 11.5102 116.565C11.4732 115.865 11.3424 112.672 11.2036 109.291V109.281C11.0595 105.764 10.9103 102.127 10.8407 100.645C10.8186 100.172 10.794 99.674 10.7744 99.2736C10.657 96.878 10.5355 94.4009 10.5573 91.9619C10.5713 90.3754 10.6419 88.9599 10.7732 87.632C10.7842 87.5216 10.7932 87.3999 10.8028 87.2711C10.8434 86.728 10.8938 86.0531 11.1348 85.5724C10.3302 83.2307 9.32897 80.9622 8.14192 78.7913C6.19502 78.2868 4.3091 77.5687 2.51808 76.6499C2.4405 76.61 2.36195 76.5698 2.28612 76.5322C1.91809 76.3602 1.56618 76.1553 1.23464 75.92C0.904744 75.6816 0.647345 75.3555 0.491273 74.9783C0.15011 74.1961 -0.0170847 73.3483 0.00137853 72.4943C0.0764161 70.7173 0.346456 68.9046 0.607733 67.1506C0.670662 66.7285 0.735185 66.2921 0.796521 65.865C1.11961 63.599 1.49926 61.3243 1.92463 59.104C3.17128 52.5987 4.69879 45.6984 7.41209 39.3099C10.1979 32.7518 14.3104 27.6697 19.6338 24.2047C22.6751 22.2252 26.17 20.5689 30.0212 19.2819C33.6717 18.0788 37.4259 17.221 41.2349 16.7196C41.3839 16.6994 41.5338 16.6758 41.6786 16.6529C42.0559 16.5834 42.4379 16.5431 42.8214 16.5324C43.1294 16.5281 43.4358 16.5774 43.7272 16.6779C43.775 16.6951 43.8258 16.7141 43.8744 16.7326C44.0645 16.8186 44.2681 16.8703 44.476 16.8853H44.4835C44.7311 16.8741 44.9773 16.8412 45.2192 16.787C45.3763 16.7569 45.5386 16.7257 45.6924 16.7069C46.5208 16.6096 47.3652 16.5539 48.1815 16.5H48.192C48.4237 16.484 48.6633 16.4689 48.8988 16.452C49.0292 16.4428 49.164 16.4348 49.2945 16.427H49.2975C50.05 16.3821 50.8281 16.3356 51.5225 16.0584C52.9564 15.4843 53.8375 11.3045 54.2608 9.29555C54.3529 8.85853 54.4256 8.5135 54.4764 8.33802C54.5009 8.25373 54.5256 8.16366 54.5497 8.07664C54.7348 7.40581 54.9652 6.57024 55.5296 6.21767C55.676 6.13137 55.8431 6.08713 56.0127 6.08979C56.1384 6.08586 56.2636 6.10868 56.38 6.15676C56.4964 6.20484 56.6014 6.27709 56.6882 6.36879C56.9103 6.62729 57.0176 6.99027 57.0164 7.47809C57.0005 7.91562 56.9476 8.35101 56.8583 8.77953C56.818 9.00389 56.7801 9.21559 56.7575 9.40613C56.7498 9.47023 56.7415 9.5603 56.7307 9.6643C56.6883 10.0928 56.6095 10.8903 56.4301 11.8265C56.2381 12.8783 55.9329 13.9061 55.5199 14.8915C55.013 16.0665 54.3653 17.0103 53.5952 17.696C53.1587 18.0874 52.6624 18.4054 52.1254 18.6378C51.5296 18.89 50.8957 19.039 50.2506 19.0786C48.4184 19.2024 47.1098 19.3435 46.2498 19.5098C45.5452 19.646 45.1423 19.7983 44.982 19.9878C44.9409 20.0417 44.9122 20.104 44.898 20.1703C44.8837 20.2366 44.8842 20.3053 44.8995 20.3713C44.9033 20.4117 44.9073 20.4532 44.9073 20.4936C45.5423 21.6314 46.6287 23.3733 47.5997 24.5404C48.8122 26.0012 50.1473 27.3546 51.5902 28.5854C52.7536 29.5722 53.9998 30.4558 55.3147 31.2263C56.6314 31.9979 58.011 32.6552 59.4386 33.1912C60.8654 33.7269 62.3357 34.1369 63.833 34.4167C65.3291 34.696 66.8475 34.8375 68.3692 34.8393C68.4981 34.8393 68.6287 34.8381 68.7576 34.8361C70.5513 34.8071 72.0677 34.5559 73.3937 34.0681C74.1147 33.8052 74.801 33.4544 75.4372 33.0234C76.1015 32.5684 76.7021 32.0259 77.2231 31.4104C78.0796 30.4018 78.8513 28.9854 79.5826 27.0806C80.2119 25.4412 80.6989 23.7396 81.1279 22.2382C81.1756 22.0716 81.2225 21.9083 81.2685 21.7483C79.2061 19.1625 78.3371 15.7167 79.1067 13.1746C79.3298 12.4374 79.6552 12.0637 80.0741 12.0637C80.2679 12.0724 80.4556 12.1342 80.617 12.2425C81.1217 12.5508 81.2361 13.6723 81.328 14.5736C81.3503 14.8704 81.3907 15.1657 81.4488 15.4576C81.794 16.847 82.52 17.668 83.4391 18.7074C83.5232 18.8024 83.6185 18.9103 83.7141 19.0193C83.7778 19.0141 83.8416 19.0116 83.9037 19.0116C84.2367 19.0154 84.5655 19.0872 84.87 19.2228C85.1746 19.3584 85.4485 19.5548 85.6753 19.8002C88.5522 20.5088 90.6921 21.1816 92.6138 21.9814C94.8675 22.8891 96.9711 24.1359 98.8526 25.6792C100.359 26.9534 101.745 28.3654 102.992 29.8973C104.08 31.2114 105.201 32.7234 106.519 34.6569C108.411 37.4321 110.27 40.2998 112.067 43.0732L112.073 43.082C112.736 44.1058 113.422 45.1642 114.1 46.2027C114.598 46.9653 115.096 47.728 115.593 48.4907L115.667 48.6038C117.938 52.0848 120.286 55.6841 122.615 59.2254C123.319 60.2969 124.025 61.3673 124.712 62.4065C125.037 62.8984 125.381 63.4181 125.763 63.995C125.843 64.1145 125.928 64.2331 126.018 64.3588L126.02 64.3609C126.288 64.7325 126.565 65.1169 126.686 65.5373C126.803 65.9421 126.717 66.3782 126.648 66.7286C126.632 66.8088 126.616 66.8927 126.603 66.9681C126.542 67.4626 126.405 67.9446 126.196 68.3966C125.895 69.0064 125.486 69.5564 124.99 70.0201C125.365 70.8634 125.687 71.7286 125.957 72.6112C126.227 73.4941 126.452 74.3904 126.63 75.2964C126.981 77.1113 127.194 78.9506 127.265 80.7982C127.399 84.3118 127.199 87.3666 126.652 90.1368C126.428 91.32 126.07 92.4735 125.585 93.5751C125.098 94.6757 124.442 95.6924 123.641 96.5879C122.967 97.3265 122.196 97.9691 121.349 98.498C120.502 99.0266 119.6 99.4593 118.658 99.7884C116.696 100.482 114.483 100.819 111.892 100.819C110.772 100.819 109.573 100.757 108.226 100.629C108.28 100.861 108.328 101.093 108.374 101.318L108.376 101.328C108.395 101.42 108.415 101.515 108.434 101.607C108.52 102.015 108.61 103.77 108.713 105.802V105.803C108.867 108.811 109.058 112.555 109.329 113.789C109.374 113.994 109.413 114.214 109.455 114.447C109.587 115.19 109.737 116.032 110.134 116.596C110.379 116.934 110.565 117.31 110.685 117.71C110.8 118.113 110.817 118.538 110.735 118.948C110.577 119.67 110.231 120.336 109.731 120.877C109.625 120.983 109.559 121.06 109.511 121.116C109.378 121.27 109.378 121.27 109.052 121.29C108.796 121.306 108.321 121.335 107.407 121.467C104.942 121.821 102.023 122.154 98.7302 122.458C95.3898 122.766 91.7387 123.037 87.8781 123.262C79.631 123.744 70.7716 123.998 62.2575 123.998L62.2578 124ZM30.6771 69.1613C28.4562 69.1657 26.2386 69.3333 24.0421 69.6628C21.9957 69.9673 19.8643 70.3987 17.5261 70.9833C15.6329 71.4567 13.5983 72.031 11.1232 72.7908C11.1973 73.0653 11.2854 73.3895 11.3781 73.7113C11.5779 74.4105 11.7899 75.1097 12.0083 75.7895C12.4823 77.2631 13.012 78.7256 13.5832 80.1365C14.7311 82.9634 16.1057 85.6918 17.6935 88.2945C19.0408 90.5427 20.5442 92.6924 22.1926 94.7275C23.0259 95.7465 23.9125 96.7201 24.8488 97.6441C25.7745 98.5575 26.7615 99.4059 27.8027 100.183C28.7101 100.861 29.7186 101.39 30.7907 101.75C31.8582 102.101 32.9748 102.279 34.0982 102.276H34.0993C34.2558 102.276 34.4159 102.273 34.5752 102.266C37.0062 102.164 39.4107 101.519 41.7363 100.896L41.7394 100.895C42.0837 100.803 42.4404 100.707 42.7887 100.616C48.4101 99.1382 54.0279 97.3837 59.4861 95.401C61.8599 94.5388 64.3554 93.5701 67.5777 92.26C69.0351 91.6671 70.3622 91.1091 71.6351 90.553C72.0255 90.3825 72.4214 90.1932 72.8043 90.0102C73.0502 89.8927 73.3044 89.7711 73.5592 89.6538C72.3278 88.9091 71.0955 88.1228 69.9037 87.3621L69.8996 87.3594C68.7453 86.623 67.5519 85.8618 66.3608 85.139C64.8916 84.2475 63.5771 83.5204 62.3421 82.9166C60.9702 82.2363 59.549 81.6616 58.0908 81.1974C56.5235 80.7072 54.9251 80.3241 53.3064 80.0509C51.6877 79.7788 50.0533 79.612 48.4133 79.5514C47.7504 79.5265 47.0751 79.5248 46.4211 79.523C45.4912 79.5205 44.5299 79.5181 43.5907 79.4493C42.9368 79.4145 42.2927 79.2747 41.6827 79.0354C41.3859 78.914 41.1047 78.7571 40.8452 78.5682C40.5773 78.3714 40.3378 78.1383 40.1334 77.8754C39.4324 76.9741 39.1009 75.816 38.7806 74.6959C38.7115 74.4543 38.6401 74.2044 38.567 73.9657C38.1333 72.5498 37.7132 71.1131 37.3243 69.7706C37.1994 69.7485 37.0734 69.7225 36.9515 69.6974H36.9495C36.8128 69.6692 36.6713 69.64 36.5353 69.6173C35.9217 69.5142 35.2886 69.4285 34.6536 69.3621C33.5142 69.2432 32.3293 69.1764 31.1318 69.1634C30.982 69.1623 30.8294 69.1613 30.6771 69.1613ZM47.5188 75.6163C50.7382 75.6221 53.9453 76.0153 57.0718 76.7874C58.7742 77.2077 60.4443 77.7511 62.0689 78.4134C63.6929 79.0767 65.2721 79.8458 66.7967 80.7156C68.493 81.681 70.1603 82.7568 71.7728 83.7971L71.7748 83.7985H71.7758C73.0142 84.5974 74.2946 85.4235 75.5796 86.1942C81.6492 89.8269 88.2241 92.5272 95.0868 94.2057C96.7942 94.6256 98.5999 95.0119 100.454 95.3544C102.182 95.6735 104.005 95.9634 105.874 96.2183C107.771 96.4967 109.683 96.6457 111.599 96.6642C112.319 96.6642 113.021 96.6369 113.688 96.5829C114.834 96.5029 115.967 96.2884 117.063 95.9438C118.161 95.6045 119.176 95.0367 120.042 94.2772C121.065 93.3477 121.79 92.1199 122.26 90.5227C122.688 89.0643 122.843 87.4866 122.938 86.1353C123.059 84.3959 123.085 82.6511 123.016 80.9088C122.95 79.1662 122.724 77.4335 122.342 75.7325C121.962 74.126 121.399 72.5692 120.663 71.0935C120.545 70.8532 120.4 70.5967 120.248 70.3251L120.247 70.3235C119.863 69.6439 119.429 68.8737 119.307 68.127C118.977 68.1096 118.641 68.1006 118.308 68.1006C116.995 68.1037 115.685 68.2362 114.397 68.4963C113.112 68.7579 111.851 69.1249 110.626 69.5935L110.696 69.5979L110.717 69.5992C111.027 69.6182 111.347 69.6378 111.662 69.6588C112.642 69.724 113.448 69.7998 114.2 69.8972C114.333 69.9144 114.47 69.928 114.614 69.9424H114.619C115.189 69.9992 115.835 70.0636 116.304 70.3637C116.504 70.492 116.672 70.6649 116.795 70.869C116.918 71.0731 116.992 71.3029 117.012 71.5407C117.04 71.8179 117.006 72.0978 116.914 72.3605C116.821 72.6285 116.669 72.8715 116.468 73.0709C116.225 73.2997 115.927 73.4613 115.603 73.5402C115.252 73.6282 114.89 73.6693 114.528 73.6624C114.011 73.6523 113.495 73.6124 112.982 73.5429C112.763 73.5173 112.557 73.4931 112.37 73.477C105.022 72.8464 99.4121 72.252 94.1805 71.5498C87.9156 70.7086 81.6209 69.6189 75.752 68.5665C72.8047 68.0376 69.6454 67.4905 66.5117 67.0653C63.4211 66.6299 60.3104 66.353 57.1918 66.2355C56.487 66.2125 55.7871 66.2008 55.1117 66.2008C53.8823 66.2008 52.676 66.2397 51.5262 66.3163C50.305 66.3977 49.1046 66.5246 47.9596 66.6936C45.6218 67.0384 43.3541 67.7044 41.1611 68.3487L41.1559 68.3503C40.6843 68.4887 40.1965 68.632 39.7141 68.7705C39.9295 69.2873 40.1442 69.8109 40.3529 70.3173C40.846 71.5166 41.3558 72.7567 41.89 73.962C41.9378 74.069 41.9856 74.1915 42.035 74.3213C42.24 74.8514 42.4949 75.511 42.9953 75.7081C43.2365 75.794 43.4914 75.8339 43.7471 75.8259C44.0751 75.8185 44.4022 75.791 44.7268 75.7434C44.9412 75.7165 45.1434 75.6911 45.325 75.6804C46.0483 75.6379 46.7861 75.6163 47.5188 75.6163ZM97.8518 65.1488C97.1765 65.1718 96.513 65.333 95.9017 65.6226C95.2728 65.9101 94.6606 66.2336 94.0683 66.5913C93.912 66.6819 93.7647 66.7676 93.6184 66.8501C93.2158 67.0815 92.7879 67.344 92.2716 67.6759C95.6102 68.1362 99.0307 68.5506 102.438 68.907C101.503 67.4365 100.483 66.3278 99.4073 65.6123C99.1723 65.4551 98.9147 65.3352 98.6435 65.2567C98.3858 65.184 98.1193 65.1477 97.8516 65.1488H97.8518Z" fill="black"/>
</svg>
