<svg width="122" height="122" viewBox="0 0 125 122" fill="none" xmlns="http://www.w3.org/2000/svg">
<path d="M85.6203 24.8153C81.6547 21.1331 82.9279 17.5815 81.6025 13.0947C79.0402 7.54333 73.7544 2.07594 67.6337 0.891671C64.5775 -0.895766 60.5833 0.117355 58.4945 2.92047C56.5332 3.43887 56.4675 6.1481 55.8127 7.75047C54.6234 10.8869 53.6549 14.1025 52.914 17.3737C29.3066 22.2825 11.1988 38.337 7.4237 62.6869C6.77831 66.2255 6.25014 69.7877 5.75401 73.35C5.46334 76.4188 3.92433 81.2886 7.08803 83.2744C7.17851 85.4757 7.44308 87.6989 8.28224 89.7712C8.60446 91.8361 8.86486 93.9147 9.5458 95.9053C11.047 99.3518 11.2784 103.133 12.9643 106.568C14.1423 109.103 15.8718 111.138 18.0105 112.91C18.9141 113.701 20.155 114.559 20.3448 115.796C20.2881 117.661 21.7049 120.357 23.9427 119.481C25.5308 120.077 27.2364 120.233 28.9187 120.22C57.4282 118.989 85.9974 118.885 114.508 120.262C115.508 120.308 116.457 119.35 116.415 118.356C115.958 107.515 114.842 96.7111 113.073 86.0049C109.133 63.8386 104.923 39.0452 85.6203 24.816V24.8153Z" fill="white"/>
<path d="M20.7035 121.503C20.5381 121.509 20.3733 121.481 20.2192 121.421C20.0652 121.36 19.9254 121.268 19.8084 121.151C19.722 121.054 19.6573 120.94 19.6186 120.816C19.58 120.692 19.5682 120.561 19.5842 120.432L19.615 120.096C19.7463 118.68 19.927 117.044 20.4092 115.55C20.3366 115.552 20.2725 115.553 20.2133 115.553C19.8898 115.562 19.567 115.518 19.2575 115.424C18.7303 115.229 18.232 114.964 17.7762 114.635C17.2757 114.297 16.8055 113.917 16.3707 113.498C15.9367 113.078 15.5356 112.626 15.1708 112.145C14.4513 111.187 13.8331 110.158 13.3262 109.073C12.8174 107.989 12.3739 106.876 11.9981 105.739C11.2368 103.481 10.5039 101.107 9.7578 98.4794L9.01455 95.8428C8.05079 92.4215 7.1394 89.067 6.58033 85.6431C6.51364 85.7296 6.42609 85.7978 6.32585 85.8413C5.83202 86.0679 5.29571 86.1875 4.75225 86.1921C4.19006 86.19 3.63614 86.0566 3.13477 85.8026C2.62665 85.5441 2.16967 85.1956 1.78601 84.7743C1.38525 84.3392 1.04963 83.8485 0.789581 83.3174C0.525943 82.7879 0.337505 82.2243 0.229708 81.6428C-0.0377369 80.1773 -0.0105119 78.661 0.0162326 77.1946V77.1874C0.0194355 77.0126 0.0226384 76.8318 0.0253609 76.6544L0.0279233 76.4764C0.0322472 76.1583 0.0360908 75.8268 0.039614 75.5343C0.0583512 73.9593 0.0777289 72.3307 0.159564 70.7294C0.239637 69.1558 0.392737 67.5533 0.616302 65.9663C0.834422 64.4186 1.12493 62.8425 1.48013 61.2815C1.82557 59.7617 2.24195 58.2126 2.71871 56.679C3.18185 55.1873 3.71402 53.6676 4.30064 52.1623C5.50718 49.0692 6.70572 46.3336 7.96495 43.7993C8.66528 42.3899 9.39218 41.0311 10.1257 39.7606C10.9059 38.4084 11.7194 37.1128 12.5435 35.9068C13.3522 34.7115 14.2309 33.5649 15.1751 32.4731C16.1186 31.3808 17.1577 30.3745 18.2798 29.4661C20.4465 27.7358 23.0096 26.2604 26.116 24.9555C29.0252 23.7332 32.0555 22.7701 34.8968 21.9117C38.1605 20.9045 41.481 20.0914 44.841 19.4766C44.8848 19.4688 44.9292 19.4648 44.9737 19.4648C45.0714 19.4615 45.1682 19.4843 45.2541 19.5308C45.34 19.5773 45.4119 19.6459 45.4623 19.7295C45.5695 19.9075 45.6763 20.0991 45.7987 20.3325C46.1538 20.1463 46.5366 20.0186 46.9325 19.9544C47.1112 19.9149 47.2797 19.8777 47.4243 19.8334C47.8407 19.7047 48.3546 19.5905 48.8986 19.4696C50.2557 19.1681 51.7931 18.8264 52.6065 18.1028C53.2297 17.5366 53.7468 16.8639 54.1336 16.1164C54.5163 15.3691 54.8458 14.596 55.1198 13.8025L55.2265 13.509C55.5799 12.5333 55.955 12.0967 56.1699 12.0967C56.1934 12.0967 56.2165 12.1023 56.2374 12.1129C56.2583 12.1235 56.2765 12.1389 56.2903 12.1578C56.4141 12.3117 56.4111 12.736 56.2819 13.3219L56.2242 13.5821C56.0658 14.2912 55.8852 15.0508 55.6368 15.8006C55.4059 16.5292 55.0881 17.2273 54.6902 17.88C53.4891 19.7994 50.6027 20.6828 48.2832 21.3928C47.9027 21.5092 47.5433 21.6193 47.2033 21.7298C47.2109 21.7845 47.2114 21.8399 47.2047 21.8947C47.9705 22.0206 48.7175 22.2415 49.4285 22.5521C50.7532 23.1284 51.9845 23.8986 53.0818 24.8373C53.5833 25.2709 54.0302 25.7635 54.4129 26.3045L58.1733 24.673C58.3871 24.5804 58.6057 24.483 58.8163 24.3888L58.8213 24.3866C59.8429 23.9302 60.8992 23.4589 62.0135 23.2799C62.2413 23.2444 62.4716 23.2269 62.7021 23.2276C63.3138 23.2285 63.9207 23.3354 64.4958 23.5435C65.0635 23.7372 65.5765 24.0639 65.9919 24.4963C66.227 24.7477 66.405 25.047 66.5136 25.3735C66.6222 25.7001 66.6588 26.0462 66.6209 26.3882C66.6076 26.534 66.556 26.6738 66.4714 26.7934C66.3868 26.913 66.2721 27.0083 66.1389 27.0696C66.2774 27.058 66.4155 27.0523 66.5492 27.0523C66.6036 27.0523 66.6584 27.0532 66.712 27.0552C67.163 27.0793 67.6036 27.1999 68.0038 27.409C68.4165 27.6063 68.7686 27.9107 69.0231 28.2905C69.151 28.4896 69.2296 28.7162 69.2525 28.9517C69.2722 29.2106 69.2248 29.4703 69.1147 29.7055C69.0946 29.7615 69.0578 29.8099 69.0093 29.8444C68.9608 29.8789 68.903 29.8977 68.8434 29.8984C68.7396 29.8922 68.641 29.8511 68.5634 29.7819C68.4859 29.7127 68.4341 29.6193 68.4163 29.517C68.2896 28.4574 67.6649 27.9424 66.5063 27.9424C65.8373 27.9424 65.0838 28.1139 64.4785 28.2518C63.1117 28.5596 61.7637 28.9457 60.4412 29.408C59.0239 29.8967 57.6688 30.5494 56.4036 31.3529C55.0913 32.2019 53.888 33.2187 53.9679 34.8941C53.9683 34.8985 53.9677 34.9028 53.9663 34.9069C53.9649 34.9111 53.9626 34.9148 53.9596 34.918C53.9556 34.9221 53.9508 34.9255 53.9455 34.9277C53.9402 34.93 53.9344 34.9312 53.9287 34.9312C53.9225 34.9314 53.9164 34.9298 53.9111 34.9266C53.9058 34.9234 53.9016 34.9187 53.8989 34.9132C53.7409 34.5783 53.6829 34.205 53.7317 33.838C53.7848 33.473 53.9092 33.122 54.0978 32.8049C54.49 32.1653 54.9983 31.6045 55.5966 31.1512C56.9543 30.0988 58.641 29.21 60.7533 28.4336C61.6928 28.0972 62.6501 27.8127 63.6209 27.5814L63.8443 27.5267C63.9577 27.4993 64.0743 27.4704 64.187 27.4426H64.188C64.6468 27.3292 65.1207 27.2119 65.5945 27.1351C65.4744 27.1046 65.3649 27.042 65.2777 26.9541C65.1905 26.8661 65.1288 26.7562 65.0994 26.6359L65.0885 26.5961C64.986 26.0846 64.7025 25.6271 64.2898 25.3074C63.9038 25.0514 63.4467 24.9236 62.9837 24.9421C62.3657 24.9421 61.6267 25.1046 60.7256 25.4389C59.9547 25.7247 59.192 26.0902 58.5796 26.384L58.5776 26.385C58.2781 26.5289 58.0196 26.6524 57.7948 26.7514C57.4037 26.9234 57.0043 27.0963 56.6182 27.2633L56.6037 27.2695C55.6834 27.6678 54.7318 28.0796 53.8103 28.5139L53.6412 28.5939C53.12 28.8347 52.6164 29.1121 52.1344 29.4239C51.6524 29.7332 51.2273 30.1232 50.8779 30.5766C50.5496 31.0168 50.3168 31.5204 50.194 32.0554C50.0783 32.5808 50.043 33.1207 50.0891 33.6568C50.1673 34.7497 50.4938 35.8666 50.8098 36.9469C50.978 37.5228 51.1367 38.0651 51.2528 38.5853C51.433 39.3053 51.5403 40.0416 51.5731 40.783C51.5569 41.2804 51.4721 41.7731 51.3211 42.2473V42.2488C51.2971 42.338 51.2731 42.4303 51.2488 42.5215L51.162 42.8607C51.1839 42.8621 51.2052 42.8683 51.2244 42.8789C51.2435 42.8895 51.2601 42.9043 51.2728 42.9222C51.2838 42.9364 51.2912 42.9531 51.2944 42.9708C51.2977 42.9885 51.2967 43.0067 51.2915 43.0239C50.9687 44.044 50.5674 45.0376 50.0912 45.9959C49.6346 46.9358 49.1404 47.8371 48.5881 48.8336C47.3146 51.1322 46.3026 52.8582 45.3068 54.4299C43.2763 57.6343 41.0564 60.8154 38.7088 63.8844C36.3987 66.9041 33.9132 69.8825 31.3214 72.7377C30.2418 73.9271 29.1056 75.1004 28.0064 76.235C26.5844 77.7035 25.1139 79.2221 23.7508 80.7909C22.6097 82.0718 21.5875 83.4536 20.6968 84.9193C20.2198 85.7176 19.7992 86.5482 19.438 87.405L19.3672 87.575C19.0766 88.2684 18.7907 88.8886 18.2369 89.4571C18.1693 89.5222 18.0861 89.5688 17.9952 89.5925C17.9043 89.6161 17.8089 89.6159 17.7181 89.592C17.6273 89.568 17.5443 89.5211 17.4769 89.4557C17.4096 89.3903 17.3603 89.3087 17.3337 89.2188C17.1607 88.4094 17.2911 87.5046 17.7321 86.4517C18.1317 85.5689 18.603 84.7203 19.1414 83.9145L19.1574 83.8896L19.2326 83.7704C20.2912 82.1203 21.4823 80.5588 22.7941 79.1013C23.1417 78.7071 23.5074 78.3046 23.9119 77.8712C22.8005 78.1495 21.6722 78.3556 20.5341 78.4881H20.5323C19.9348 78.5706 19.317 78.656 18.7167 78.7621C16.9487 79.0516 15.202 79.4582 13.4881 79.9793C11.9233 80.4699 10.4157 81.1268 8.99117 81.9387C8.30105 82.3279 7.63818 82.7634 7.00712 83.2423C6.96067 83.2773 6.91471 83.3146 6.87019 83.3509L6.85994 83.3592L6.83224 83.3817C7.71048 85.5857 8.42521 87.8934 9.11625 90.1254V90.1268C9.23123 90.4982 9.35022 90.8823 9.46857 91.2593C10.0702 93.1897 10.6439 95.0821 11.1256 96.6796L12.3472 100.752C12.511 101.296 12.6729 101.859 12.8296 102.404L12.831 102.409C13.5323 104.851 14.2582 107.375 15.5271 109.549C16.2108 110.709 17.0996 111.735 18.1501 112.577C18.6564 112.968 19.2004 113.308 19.7739 113.591C20.029 113.732 20.275 113.889 20.5105 114.061H20.5115C20.5999 114.123 20.6912 114.186 20.7823 114.248C20.8783 114.136 20.9974 114.047 21.1312 113.986C21.2651 113.925 21.4106 113.893 21.5577 113.894C21.6196 113.894 21.6813 113.899 21.7424 113.909L21.788 113.917C22.0367 113.965 22.2894 113.989 22.5426 113.988C23.0688 113.981 23.5912 113.897 24.0932 113.74C24.5951 113.584 25.0834 113.387 25.5531 113.151C26.9864 112.444 28.0651 111.761 28.9482 111.001C30.886 109.331 32.5034 107.255 34.0687 105.248L34.1899 105.093C39.9114 97.7099 44.8003 89.7195 48.7679 81.2664C50.699 77.1704 52.6086 72.786 54.4435 68.235C55.4177 65.8218 56.271 63.6622 57.0523 61.6326L57.1644 61.3372C57.3036 60.9667 57.4416 60.5854 57.5752 60.2159C58.1854 58.5289 58.8163 56.7844 59.8172 55.3224C59.8264 55.307 59.839 55.2939 59.8541 55.2842C59.8574 55.2343 59.8729 55.1859 59.8991 55.1433C60.2026 54.6588 60.7339 54.4454 61.2478 54.2392H61.2488C61.3769 54.1879 61.509 54.1348 61.6351 54.0785C62.3397 53.7621 63.0551 53.4422 63.7469 53.1329L63.7601 53.127C63.8994 53.0646 64.0535 53.0051 64.2163 52.9422C64.6956 52.7573 65.2387 52.5478 65.5521 52.1928C65.9015 51.8002 66.082 51.1729 66.2407 50.6193C66.299 50.4169 66.354 50.2259 66.4147 50.0524C66.9311 48.5794 67.4995 47.0985 68.0481 45.6663V45.6647L68.0659 45.6186C68.1822 45.3147 68.2965 45.0026 68.407 44.7002C68.7744 43.6946 69.1543 42.6547 69.6882 41.7304C69.9647 41.2533 70.3267 40.8311 70.7562 40.4849C71.1861 40.1461 71.6402 39.8392 72.1149 39.5666L72.3282 39.4386C72.7316 39.1931 73.1757 38.8916 73.3394 38.4215C73.3983 38.2424 73.4162 38.0523 73.3917 37.8654C73.3672 37.6784 73.301 37.4993 73.198 37.3414C72.9958 37.0187 72.7171 36.7508 72.3865 36.5613C72.0228 36.3525 71.6098 36.2446 71.1902 36.2489C70.6304 36.2662 70.0798 36.3957 69.5711 36.6298C69.0643 36.8544 68.5722 37.1108 68.0978 37.3975C67.7255 37.6144 67.3504 37.8479 66.9877 38.0736C66.1488 38.6265 65.268 39.1131 64.3534 39.5292C64.3504 39.5303 64.3473 39.5309 64.3441 39.5309C64.3384 39.5306 64.3329 39.5285 64.3283 39.5249C64.3238 39.5214 64.3204 39.5166 64.3187 39.5111C64.3162 39.5056 64.3154 39.4995 64.3165 39.4936C64.3175 39.4877 64.3204 39.4823 64.3246 39.478C65.2658 38.6168 66.3943 37.89 67.4857 37.187L67.4889 37.1849C67.6199 37.1006 67.7552 37.0135 67.8872 36.9279L68.1889 36.7315C68.9118 36.2591 69.8705 35.6979 70.8826 35.5495C70.8444 35.5396 70.811 35.5164 70.7884 35.4842C70.7658 35.452 70.7554 35.4127 70.7591 35.3735C70.7639 35.3285 70.784 35.2865 70.8161 35.2544C70.8481 35.2224 70.8902 35.2024 70.9353 35.1976C71.7308 35.1164 72.5303 35.0809 73.3299 35.0912C74.4308 35.0846 75.5691 35.0778 76.6719 34.8183C77.5053 34.6192 78.3015 34.2885 79.0305 33.8388C79.7605 33.3892 80.4271 32.8443 81.0125 32.2183C81.5636 31.6265 82.0702 30.9949 82.5281 30.3285C82.9317 29.7492 83.3321 29.1176 83.8263 28.2812C84.0167 27.9584 84.2081 27.6299 84.3931 27.3122C84.673 26.8324 84.9624 26.3349 85.2532 25.8496C85.3197 25.7377 85.3909 25.6068 85.4713 25.4498C85.0204 25.3329 84.5913 25.1442 84.2005 24.891C83.8272 24.6567 83.472 24.3947 83.1378 24.1073C82.6834 23.7165 82.2832 23.2669 81.9479 22.7704C81.6123 22.275 81.3265 21.7477 81.0945 21.1962C80.5619 19.9183 80.2873 18.5478 80.2867 17.1636C80.2817 16.4724 80.3327 15.7819 80.4393 15.0989C80.5455 14.4176 80.7019 13.745 80.9071 13.0866C80.9182 13.0504 80.9408 13.0187 80.9715 12.9965C81.0023 12.9743 81.0394 12.9628 81.0774 12.9636C81.1145 12.9626 81.1508 12.9742 81.1804 12.9965C81.2101 13.0189 81.2311 13.0507 81.2402 13.0866C81.4789 13.9422 81.6374 14.8403 81.7907 15.709C82.0397 17.1204 82.2972 18.5796 82.9056 19.9037C83.2991 20.7587 83.8484 21.5333 84.5253 22.1879C84.8544 22.5173 85.2273 22.7999 85.6335 23.0276C85.7796 23.1049 85.9297 23.1743 86.0832 23.2356C86.3983 23.3408 86.685 23.517 86.9211 23.7504C86.9417 23.7722 86.9609 23.7952 86.9788 23.8192C87.0273 23.8126 87.0763 23.8091 87.1253 23.809C87.2613 23.8057 87.3955 23.841 87.5122 23.9109L87.5425 23.9312L87.5489 23.9218C86.8963 23.4771 86.2536 23.046 85.5679 22.6628C85.5357 22.6475 85.5099 22.6215 85.4949 22.5892C85.48 22.5569 85.4768 22.5204 85.4861 22.486C85.4977 22.4402 85.5264 22.4004 85.5662 22.3748C85.606 22.3491 85.654 22.3394 85.7006 22.3477L86.1526 22.4277C87.7049 22.7039 89.2114 23.007 90.5803 23.6722C92.1065 24.4168 93.572 25.2794 94.9635 26.2522C97.7096 28.1723 100.205 30.4269 102.393 32.9637C104.4 35.3049 106.136 37.8656 107.567 40.5967C108.998 43.3265 110.161 46.1886 111.039 49.1426C111.536 50.7987 111.975 52.5079 112.383 54.3677C112.747 56.0232 113.077 57.7597 113.392 59.6764C113.978 63.235 114.421 66.8729 114.849 70.391L114.863 70.508C114.916 70.9433 114.971 71.3932 115.025 71.8343C115.466 75.4414 115.869 79.1205 116.223 82.7696L116.319 83.7651C116.421 84.8413 116.529 85.9341 116.634 86.991L116.636 87.0081C116.709 87.7469 116.792 88.5844 116.87 89.3914C117.019 89.6307 117.111 89.9013 117.137 90.182C117.164 90.4626 117.125 90.7455 117.024 91.0086C117.178 92.6916 117.297 94.1836 117.388 95.5702C117.641 99.501 117.804 103.478 117.874 107.392C117.922 110.13 117.869 112.91 117.816 115.6V115.606C117.792 116.843 117.767 118.123 117.752 119.382C117.756 119.56 117.722 119.736 117.651 119.899C117.58 120.063 117.475 120.208 117.342 120.327C117.094 120.535 116.78 120.646 116.456 120.642C116.13 120.646 115.814 120.534 115.563 120.326C115.429 120.209 115.322 120.063 115.249 119.901C115.176 119.738 115.139 119.561 115.14 119.383C115.068 116.28 114.888 113.126 114.713 110.076C114.639 108.784 114.562 107.449 114.495 106.131C114.45 105.251 114.405 104.371 114.356 103.396C114.187 100.057 114.013 96.604 113.805 93.2084C113.78 92.8173 113.757 92.4149 113.732 91.9782C113.429 92.0807 113.117 92.1557 112.801 92.2022C112.698 92.2204 112.602 92.2377 112.508 92.2564L112.412 92.2761C111.628 92.4426 110.835 92.5628 110.037 92.6363L109.778 92.6582C109.485 92.6783 108.78 92.7001 107.924 92.7001C106.777 92.7001 104.631 92.6595 103.139 92.388C103.307 95.095 103.487 97.9775 103.683 100.837C103.816 102.759 103.885 104.714 103.952 106.604C103.996 107.872 104.043 109.184 104.108 110.475C104.181 111.919 104.277 113.599 104.492 115.272C104.583 115.976 104.681 116.723 104.796 117.45L104.854 117.812C104.864 117.869 104.873 117.926 104.883 117.982V117.983C104.978 118.539 105.06 119.018 104.821 119.522C104.886 119.712 104.906 119.914 104.88 120.113C104.854 120.312 104.782 120.502 104.67 120.669C104.576 120.797 104.453 120.899 104.311 120.968C104.168 121.037 104.011 121.07 103.853 121.063C103.819 121.063 103.783 121.062 103.748 121.059C98.0944 120.636 92.1405 120.417 85.5467 120.387C84.9793 120.383 84.399 120.383 83.8207 120.383C76.208 120.383 68.4717 120.616 60.9903 120.843H60.9711C58.7202 120.911 56.3927 120.981 54.1034 121.044L51.271 121.12L50.9139 121.13C46.6561 121.247 42.2532 121.367 37.9215 121.367C31.7078 121.367 26.5915 121.12 21.8188 120.591C21.8187 120.724 21.7866 120.856 21.725 120.975C21.6634 121.094 21.5741 121.196 21.4647 121.274C21.2414 121.428 20.9751 121.509 20.7035 121.503ZM5.96472 84.3197C6.13149 84.3224 6.29083 84.3891 6.40977 84.5059C6.37966 84.2923 6.35083 84.071 6.32169 83.8293L6.30984 83.8405C6.11446 84.0185 5.91235 84.2024 5.70528 84.3745C5.78722 84.3391 5.87544 84.3205 5.96472 84.3197ZM101.096 70.7448C101.103 70.7446 101.111 70.7475 101.116 70.7527C101.122 70.7579 101.125 70.765 101.125 70.7726L101.132 70.8158C101.602 70.9126 102.067 70.9917 102.514 71.0525C103.336 71.1611 104.165 71.2153 104.994 71.2149C105.051 71.2149 105.108 71.2149 105.164 71.2149C105.383 71.2129 105.605 71.2008 105.819 71.1891H105.821C106.052 71.1765 106.292 71.1635 106.527 71.1635C106.623 71.1635 106.713 71.1656 106.799 71.1701C104.618 69.2072 102.255 67.1032 99.5748 64.7385C94.7264 60.4582 89.8781 56.2401 85.775 52.6783C84.9472 51.9595 84.1021 51.2325 83.2848 50.5295C82.0788 49.4921 80.8315 48.4192 79.6154 47.3517L77.6509 45.6188C75.8901 44.0636 74.1855 42.5228 72.6863 40.775L72.5138 40.5719C72.2007 40.7558 71.9005 40.961 71.6154 41.1859C70.7506 41.9007 70.3805 42.9941 70.0231 44.0517V44.0527C69.9665 44.22 69.9081 44.3931 69.8492 44.5591L69.8224 44.6346C69.326 46.0151 68.794 47.4836 68.24 48.926C68.1226 49.2322 68.0128 49.5465 67.8963 49.8792C67.8444 50.0278 67.791 50.1807 67.7371 50.332C69.6611 52.1788 72.2116 54.5806 74.8783 56.778C79.4021 60.5115 84.3281 63.7303 89.5651 66.3749C92.2538 67.7558 95.0385 68.9416 97.8976 69.9233C98.9307 70.2752 99.9834 70.5673 101.05 70.7982L101.052 70.7822C101.054 70.7718 101.059 70.7624 101.067 70.7556C101.075 70.7488 101.085 70.7449 101.096 70.7448ZM46.6522 23.7941C46.308 23.7866 45.967 23.8617 45.6577 24.0129C45.3262 24.1894 45.0535 24.4587 44.873 24.7877C44.5259 25.3834 44.2786 26.0318 44.1408 26.7071L44.1248 26.7957L44.1208 26.8196C44.0876 27.0161 44.0535 27.2194 44.1921 27.3682C44.3522 27.5424 44.766 27.6519 45.0991 27.7399C45.2325 27.7751 45.3474 27.8055 45.4298 27.8359L47.2626 28.5005L48.1778 28.8338C48.2364 28.8552 48.2958 28.876 48.3586 28.8978C48.7413 29.032 49.1753 29.1841 49.4397 29.4717C49.992 28.7768 50.6704 28.1919 51.4393 27.7477C52.2134 27.2967 53.0167 26.8975 53.8438 26.5528C53.3915 26.3426 52.9361 26.1201 52.4957 25.9048L52.4936 25.9037C51.5177 25.4269 50.5078 24.9338 49.4705 24.5441L48.9157 24.3346C48.1659 24.055 47.3726 23.7964 46.6513 23.7962L46.6522 23.7941ZM55.6235 54.4849H55.6188C54.909 54.461 54.2186 54.2477 53.6193 53.867C53.0159 53.4924 52.4824 53.0158 52.0426 52.4585C52.0195 52.4329 52.0045 52.401 51.9994 52.3669C51.9943 52.3327 51.9994 52.2979 52.0139 52.2666C52.0274 52.2375 52.0489 52.2128 52.0758 52.1953C52.1027 52.1778 52.134 52.1683 52.1661 52.1677C52.2106 52.1688 52.2532 52.1859 52.2862 52.2157C53.2074 52.9945 54.2377 53.3802 55.329 53.7883C55.4422 53.8307 55.5705 53.8787 55.6944 53.9257C55.7624 53.9521 55.8189 54.0013 55.8543 54.0649C55.8897 54.1285 55.9017 54.2024 55.8882 54.274C55.8782 54.3357 55.8456 54.3915 55.7966 54.4305C55.7477 54.4695 55.686 54.4889 55.6235 54.4849ZM59.0476 37.1362C59.0372 37.1364 59.027 37.1341 59.0176 37.1296C59.0083 37.1251 59.0002 37.1185 58.9939 37.1102C58.9891 37.1033 58.9861 37.0953 58.9853 37.0869C58.9844 37.0785 58.9857 37.07 58.9891 37.0623C59.2684 36.3063 59.6831 35.6075 60.213 34.9999C60.7496 34.388 61.3605 33.8453 62.0314 33.3844C63.4342 32.4015 65.0914 31.6748 66.3783 31.1515L66.4805 31.1105C67.1862 30.8191 67.9394 30.6594 68.7028 30.6393C69.6426 30.6393 70.3925 30.9547 70.9314 31.5769C71.436 32.1918 71.6799 32.9793 71.6108 33.7713C71.5938 34.0399 71.5211 34.302 71.3973 34.541C71.2735 34.7801 71.1012 34.9908 70.8916 35.1598C70.796 35.226 70.6792 35.2544 70.5639 35.2396C70.4485 35.2248 70.3428 35.1679 70.267 35.0798C70.2396 35.0364 70.2237 34.9867 70.2209 34.9354C70.2181 34.8841 70.2285 34.833 70.251 34.7868C70.4062 34.4179 70.5065 34.0283 70.5485 33.6304C70.5951 33.2563 70.5393 32.8767 70.3873 32.5317C70.2835 32.3251 70.1362 32.1434 69.9553 31.9993C69.7745 31.8551 69.5644 31.7519 69.3397 31.6967C69.0934 31.6252 68.838 31.5897 68.5814 31.5915C68.0654 31.6049 67.555 31.7021 67.0703 31.8794C66.5698 32.0483 66.0726 32.2716 65.6338 32.4685C65.5467 32.5077 65.4647 32.5445 65.3817 32.5805L65.0468 32.7279C62.7899 33.7286 60.5073 34.9512 59.1 37.1088C59.0942 37.1174 59.0865 37.1243 59.0773 37.1291C59.0682 37.1339 59.058 37.1363 59.0477 37.1362H59.0476Z" fill="black"/>
</svg>
