<svg width="127" height="127" viewBox="0 0 132 116" fill="none" xmlns="http://www.w3.org/2000/svg">
<path d="M121.88 94.0623C121.23 90.4022 120.634 86.7329 120.092 83.0545C119.835 81.3084 119.584 79.5608 119.358 77.8102C119.2 76.5838 118.959 75.1812 119.797 74.273C120.975 72.9944 122.046 71.9001 122.19 70.0688C122.326 68.3456 121.741 66.4672 121.376 64.795C120.609 61.2874 119.654 57.8231 118.599 54.3923C117.527 50.906 116.352 47.4525 115.16 44.0056C114.046 40.7829 112.975 37.531 111.523 34.439C108.768 28.5703 104.108 24.2256 98.3484 21.3241C96.916 20.6025 93.9944 18.0264 92.4978 17.4492C91.122 16.9186 91.1262 18.4675 89.7728 17.8833C88.6903 17.417 87.6824 16.7953 87.0763 15.7539C86.4183 14.6231 84.7687 13.0416 84.5167 11.7254C83.9842 8.93568 84.5611 6.56105 82.5627 4.46137C80.7886 2.59627 78.404 1.31948 75.9367 0.633736C70.5089 -0.874742 63.2702 0.179842 59.9953 5.20532C58.4314 7.60502 57.8845 10.5059 55.7741 12.4644C53.9311 14.1745 54.3435 15.3437 51.9566 16.2252C51.8213 16.2752 48.157 15.4921 48.0219 15.5421C45.4106 14.985 42.9149 16.5446 40.5192 17.4484C36.9512 18.8045 33.5423 20.5442 30.3529 22.6367C23.9113 26.8421 18.394 32.3028 13.8449 38.4822C9.25877 44.7124 5.70041 51.6958 3.16676 58.9944C2.55183 60.7672 2.00011 62.5603 1.51159 64.3735C1.23872 65.3875 0.9468 66.4392 1.27938 67.4774C1.55113 68.3267 2.15562 68.959 2.86548 69.4687C3.82772 70.1601 5.75786 70.6087 5.72026 71.998C5.69154 73.0545 5.33185 74.1662 5.15628 75.2102C4.9465 76.4534 4.77561 77.7039 4.60391 78.9528C3.82288 84.6365 3.21501 90.3524 2.94616 96.0842C2.68152 101.728 2.46206 107.487 2.85483 113.129C2.87699 113.484 2.98579 113.828 3.17176 114.132C3.1312 114.151 3.09749 114.183 3.07489 114.222C3.0523 114.261 3.04184 114.306 3.04485 114.351C3.04786 114.396 3.0642 114.439 3.09179 114.474C3.11938 114.51 3.15699 114.537 3.19984 114.551L3.63812 114.644C3.96145 114.885 4.3526 115.019 4.7564 115.027C5.05187 115.036 5.34718 115.049 5.64232 115.064C8.75675 115.713 11.8712 116.326 15.0263 116.79C18.8617 117.354 22.7086 117.82 26.5671 118.188C34.4959 118.955 42.3624 118.701 50.3017 118.287C58.2288 117.873 66.1571 117.772 74.0866 117.982C82.0289 118.188 89.9682 118.533 97.9123 118.674C106.788 118.831 115.649 118.589 124.498 117.886C125.712 117.789 126.463 116.828 126.223 115.627C124.789 108.433 123.165 101.287 121.88 94.0623Z" fill="white"/>
<path d="M26.1009 118.652C26.046 118.652 25.9911 118.649 25.9366 118.643C25.5844 118.599 25.2609 118.427 25.0281 118.16C24.7918 117.895 24.66 117.554 24.6569 117.199C24.6508 115.854 24.7699 114.479 24.885 113.15V113.148C24.9334 112.588 24.9835 112.009 25.0234 111.442C25.1346 109.859 25.2593 108.182 25.4268 106.005C25.7518 101.807 26.1138 97.5418 26.4636 93.4171V93.4159C26.6647 91.0455 26.8727 88.5943 27.072 86.1769C27.2413 84.1213 27.437 81.8877 27.6881 79.1476C25.8811 79.0848 24.0816 78.8825 22.3059 78.5426C20.541 78.2024 18.7985 77.7553 17.0881 77.2039C15.4681 76.6862 13.8099 76.0699 12.0188 75.3195C10.5065 74.6846 8.89278 73.9515 7.08415 73.0767C6.99459 75.1026 6.78126 77.1561 6.57487 79.1423L6.5426 79.4489C5.85871 86.0367 5.34846 91.8454 4.98199 97.2088C4.80449 99.8076 4.65538 102.583 4.49789 106.206C4.43447 107.675 4.38202 109.164 4.34233 110.631C4.32877 111.13 4.31667 111.626 4.30634 112.107L4.28407 113.234C4.26632 113.932 4.19984 114.603 3.59018 115.129C3.30392 115.384 2.9351 115.528 2.55097 115.535C2.1757 115.533 1.81564 115.387 1.54451 115.129C1.22074 114.831 1.00598 114.435 0.934371 114.002C0.872103 113.573 0.85706 113.138 0.88951 112.706V112.704C0.893544 112.595 0.89774 112.481 0.900483 112.37C0.92017 111.541 0.944376 110.69 0.972615 109.841C1.02813 108.167 1.10026 106.466 1.18707 104.784C1.47012 99.305 2.02845 93.5478 2.8942 87.1831L3.20435 84.9275C3.48352 82.9063 3.7898 80.7534 4.19112 78.6087C4.56878 76.5114 5.07766 74.4396 5.71477 72.4056C5.22663 72.1644 4.71929 71.9099 4.20678 71.6514C3.94439 71.519 3.67426 71.3867 3.41397 71.2589C2.79012 70.9534 2.14512 70.6365 1.53676 70.2881C0.715393 69.8176 0.235642 69.2534 0.0699159 68.5629C-0.113722 67.7985 0.0994465 66.9886 0.305676 66.2053L0.306645 66.2016C0.338918 66.0789 0.369417 65.963 0.398625 65.8462L0.417344 65.7702C0.619862 64.9391 0.849006 64.0659 1.09816 63.1732C2.07826 59.679 3.27942 56.2501 4.69443 52.9071C7.50955 46.1943 11.1872 39.8739 15.6353 34.1044C17.6401 31.5041 19.8394 29.0585 22.2143 26.7887C23.4246 25.6405 24.6758 24.5557 25.9339 23.5641C27.2233 22.5469 28.5642 21.5962 29.9515 20.7159C31.3071 19.8552 32.7122 19.0745 34.1596 18.3779C35.6077 17.6823 37.1001 17.0824 38.6272 16.5819C40.0843 16.086 41.5878 15.7375 43.115 15.5417C43.8332 15.4613 44.6056 15.4055 45.5454 15.3648C45.6362 15.3609 45.7311 15.3588 45.8273 15.3588C46.3698 15.3694 46.9113 15.4099 47.4494 15.4802H47.455C47.6412 15.5011 47.8337 15.5227 48.0217 15.541C48.0396 15.5434 48.0561 15.5519 48.0684 15.5652C48.0806 15.5784 48.0879 15.5954 48.0889 15.6134C48.0902 15.6278 48.0859 15.6422 48.0769 15.6536C48.0679 15.6649 48.0549 15.6724 48.0405 15.6745C46.5867 15.9769 45.152 16.3891 43.6867 16.8204L43.0705 17.0021C41.5449 17.4522 39.9113 17.9581 38.3012 18.6118C35.1664 19.9088 32.1981 21.5737 29.4591 23.5712C24.4396 27.1873 19.8514 31.8566 15.8215 37.4498C13.9124 40.1093 12.1743 42.8865 10.6177 45.7649C9.07418 48.6173 7.6922 51.5535 6.47821 54.5598C5.17053 57.7938 4.06419 61.1051 3.16546 64.4747C2.95455 65.2674 2.7459 66.0977 2.54742 66.9423C2.53483 66.9957 2.51321 67.0666 2.48803 67.1488C2.4017 67.4314 2.27131 67.8585 2.37782 68.0517C2.46625 68.2125 2.74477 68.3287 2.96843 68.4225C3.05024 68.4567 3.12738 68.4891 3.18563 68.519L3.92164 68.8992C5.35427 69.635 7.74286 70.8447 7.98814 70.9664L8.3622 71.1499C11.9569 72.9056 14.9698 74.1461 17.8439 75.0534C19.4698 75.5712 21.1263 75.9887 22.8038 76.3033C24.4858 76.6171 26.19 76.799 27.9006 76.8474L27.9545 76.2617C28.249 73.1534 28.6453 69.8351 29.5434 66.6289C29.5492 66.6002 29.5648 66.5744 29.5874 66.5557C29.61 66.537 29.6384 66.5265 29.6678 66.526C29.7066 66.527 29.7439 66.5417 29.7728 66.5676C29.8017 66.5935 29.8205 66.6288 29.8256 66.6672C30.0572 68.5215 30.1671 70.3889 30.1546 72.2575C30.1546 74.0583 30.0796 75.861 29.9879 77.8608C29.7793 82.422 29.5192 87.0559 29.2676 91.5372V91.541C29.1546 93.5563 29.0375 95.641 28.9268 97.6899C28.8015 100.005 28.6482 102.358 28.4999 104.633V104.637C28.4367 105.607 28.3708 106.609 28.3086 107.604C28.2545 108.462 28.209 109.34 28.1651 110.189V110.193C28.0389 112.634 27.9084 115.158 27.555 117.59C27.5275 117.75 27.4661 117.903 27.3747 118.038C27.2834 118.173 27.1642 118.287 27.0252 118.373C26.7505 118.553 26.4295 118.65 26.1009 118.652ZM125.046 116.006C124.905 116.004 124.765 115.972 124.637 115.912L124.536 115.865C124.008 115.62 123.555 115.365 123.356 114.731C123.277 114.457 123.218 114.179 123.178 113.897C123.156 113.762 123.133 113.623 123.107 113.491C122.95 112.711 122.802 111.926 122.665 111.16C122.387 109.605 122.113 108.031 121.849 106.481L121.602 105.02C120.785 100.18 119.952 95.0217 119.535 89.824C119.346 87.4677 119.144 85.0932 118.968 83.0526L118.823 81.3598C118.794 81.0222 118.764 80.6783 118.734 80.345V80.3385C118.575 78.5378 118.41 76.6771 118.383 74.8494L117.652 75.1081L114.084 76.3647C113.863 76.4424 113.631 76.5392 113.384 76.6416C112.741 76.9092 112.013 77.2122 111.358 77.2122C111.279 77.2124 111.2 77.2077 111.121 77.1983C110.713 77.1704 110.327 77.0052 110.025 76.7297C110.366 81.52 110.826 86.1697 111.391 90.5496C111.991 95.1886 112.594 99.2756 113.235 103.044C113.521 104.726 113.904 106.945 114.334 109.2C114.526 110.21 114.73 111.242 114.938 112.269C114.97 112.428 115.005 112.589 115.039 112.746C115.113 113.091 115.19 113.449 115.245 113.802C115.337 114.385 115.182 114.742 114.845 115.237C114.756 115.372 114.635 115.484 114.493 115.563C114.351 115.642 114.192 115.686 114.029 115.69C113.875 115.69 113.724 115.647 113.593 115.564C113.336 115.417 113.106 115.228 112.911 115.006C112.729 114.776 112.601 114.508 112.537 114.223C112.429 113.805 112.349 113.369 112.272 112.947L112.271 112.943C112.238 112.759 112.203 112.568 112.166 112.383C111.947 111.273 111.731 110.136 111.522 109.003C111.074 106.566 110.674 104.18 110.332 101.908C109.714 97.8036 109.193 93.5713 108.782 89.3285C108.382 85.1999 108.076 80.9466 107.873 76.6866C107.684 72.7276 107.61 68.6391 107.648 64.1871C107.667 61.8643 107.746 59.7675 107.887 57.7768C108.014 56.0041 108.256 54.2284 108.491 52.5113L108.493 52.4952C108.543 52.1254 108.596 51.7445 108.646 51.3684C108.647 51.3525 108.655 51.3377 108.667 51.3269C108.679 51.3162 108.694 51.3103 108.71 51.3104C108.718 51.3103 108.725 51.3118 108.733 51.3147C108.74 51.3176 108.746 51.3219 108.751 51.3273C108.757 51.3327 108.761 51.3391 108.764 51.3462C108.766 51.3533 108.768 51.3608 108.768 51.3684C108.824 52.3606 108.894 53.369 108.961 54.3444V54.3463C109.058 55.7258 109.157 57.152 109.217 58.5579C109.278 59.9591 109.318 61.3851 109.358 62.7642V62.7659C109.382 63.6408 109.408 64.5453 109.438 65.4372C109.544 68.5125 109.691 71.5547 109.875 74.4791C110.021 74.3167 110.198 74.1863 110.397 74.096C110.596 74.0057 110.812 73.9575 111.03 73.9544C111.106 73.9544 111.181 73.9605 111.256 73.9726C111.762 73.8487 112.258 73.6841 112.738 73.4804C113.015 73.3719 113.277 73.2693 113.532 73.1843L116.233 72.2855C117.577 71.8379 119.024 71.359 120.496 70.8889C119.394 67.1938 118.502 63.1848 117.605 57.8905L117.273 55.9128C116.958 54.0477 116.609 52.0509 116.194 50.0897C115.742 47.9513 115.258 46.0768 114.715 44.359C114.093 42.3895 113.309 40.4745 112.371 38.6335C111.43 36.7939 110.336 35.0363 109.1 33.3791C107.865 31.738 106.522 30.1803 105.081 28.7163C103.788 27.3895 102.363 26.0463 100.598 24.4888C99.0659 23.1382 97.4453 21.8423 95.878 20.5893C94.7562 19.6925 93.5963 18.7651 92.4772 17.8238C92.507 17.9871 92.5102 18.1541 92.4867 18.3184C92.3428 19.3558 92.1028 20.3777 91.7697 21.371C91.4363 22.3645 91.0185 23.3277 90.5207 24.2504C90.0223 25.1744 89.4503 26.0572 88.8102 26.8901C86.5065 29.8931 83.3936 32.1819 79.8344 33.4897C78.5768 33.9556 77.279 34.3054 75.9572 34.5348C74.6298 34.7646 73.2849 34.8798 71.9376 34.879C70.5591 34.878 69.183 34.7613 67.8242 34.53C66.4562 34.297 65.11 33.951 63.7996 33.4955C61.8951 32.8296 60.0708 31.955 58.36 30.8879C56.6312 29.8133 55.0253 28.554 53.5706 27.1324C52.1188 25.7175 50.8378 24.1385 49.7537 22.4274C48.6752 20.7273 47.8272 18.8926 47.2317 16.9709C47.226 16.9555 47.2241 16.939 47.2263 16.9228C47.2284 16.9066 47.2344 16.8912 47.2438 16.8778C47.2551 16.8637 47.2695 16.8524 47.2859 16.8448C47.3023 16.8372 47.3203 16.8335 47.3383 16.834C47.3579 16.8338 47.3773 16.8381 47.3948 16.8468C47.4124 16.8555 47.4276 16.8682 47.4392 16.8839C47.5522 17.0376 47.6651 17.1924 47.7823 17.3502L47.8328 17.4186C47.8282 17.3797 47.8372 17.3403 47.8583 17.3072C47.8794 17.2741 47.9113 17.2492 47.9486 17.2368C51.0894 16.0288 53.6158 14.4547 55.4575 12.5575C56.4676 11.5215 57.3328 10.3545 58.0297 9.08793C58.3654 8.48373 58.6551 7.85528 58.8964 7.20788L58.9566 7.04034C58.9889 6.94837 59.0223 6.85351 59.0513 6.76974C59.2974 6.06229 59.5516 5.32992 60.086 4.75849C60.2088 4.62497 60.3586 4.5188 60.5254 4.44692C60.6923 4.37505 60.8725 4.3391 61.0542 4.34141C61.3077 4.34513 61.5568 4.40705 61.7823 4.52237C62.0078 4.63768 62.2036 4.80327 62.3544 5.00626C62.4773 5.17223 62.5577 5.36562 62.5884 5.5696C62.6192 5.77358 62.5995 5.98196 62.5309 6.17661C61.9968 7.792 61.2638 9.33519 60.3486 10.7709C59.89 11.4797 59.3764 12.1517 58.8125 12.7807C58.2401 13.4169 57.6131 14.0021 56.9385 14.5297C55.7851 15.4447 54.5075 16.1923 53.1438 16.7504C51.7903 17.3029 50.3431 17.5916 48.8806 17.601C48.5854 17.601 48.2867 17.5884 47.993 17.5637C47.9698 17.5618 47.947 17.5557 47.9259 17.5458L48.2107 17.9306C49.1334 19.1742 50.364 20.8015 51.7016 22.361C52.9153 23.7957 54.2343 25.1386 55.6477 26.3785C56.7779 27.3581 57.9851 28.2459 59.2576 29.0334C60.5256 29.8184 61.8578 30.4955 63.24 31.0575C64.614 31.6161 66.0366 32.0481 67.4898 32.3478C68.9412 32.6462 70.4192 32.7978 71.9012 32.8002C73.6003 32.8015 75.2929 32.5922 76.9402 32.1774C78.4451 31.7943 79.8945 31.2205 81.253 30.4702C82.6168 29.7201 83.8809 28.8029 85.016 27.7399C86.1478 26.6836 87.1333 25.4817 87.9466 24.1661C88.7604 22.8508 89.3724 21.4217 89.7625 19.9262C89.609 19.9944 89.4428 20.0293 89.2748 20.0285C89.1774 20.0281 89.0803 20.0173 88.9851 19.9963C87.7481 19.7286 86.5248 18.4395 85.7123 17.4929C84.8522 16.5023 84.163 15.3764 83.6729 14.161C83.1943 12.9841 82.9286 11.7321 82.888 10.463C82.8693 9.82757 82.926 9.1922 83.0568 8.57004C83.1856 7.95614 83.4071 7.36525 83.7137 6.81749C83.7346 6.77543 83.7668 6.73993 83.8066 6.71488C83.8465 6.68984 83.8925 6.67622 83.9396 6.67552C84.017 6.67872 84.0907 6.70934 84.1475 6.76186C84.2043 6.81438 84.2404 6.88536 84.2493 6.96204L84.2966 7.37236C84.5343 9.40805 84.8283 11.3905 85.802 13.2666C86.2669 14.1937 86.8498 15.0573 87.5362 15.836C87.9056 16.2495 88.3086 16.6319 88.741 16.9794C88.9088 17.1122 89.0936 17.2325 89.2724 17.3492C89.5528 17.5177 89.8144 17.7155 90.0526 17.9394L90.122 18.0131L90.1239 17.9999C90.1505 17.6685 90.3001 17.359 90.5435 17.1316C90.7531 16.9503 91.0218 16.8514 91.2993 16.8535C91.3155 16.8535 91.3316 16.8535 91.3487 16.8545C91.8399 16.8969 92.3201 17.0227 92.7688 17.2263L92.792 17.2373C96.2122 18.8731 99.6484 21.0836 103.297 23.9952C106.647 26.6503 109.593 29.7752 112.043 33.2725C114.487 36.7727 116.351 40.6411 117.564 44.73C118.68 48.5066 119.365 52.4505 120.028 56.2645L120.036 56.308C120.086 56.5974 120.136 56.8869 120.187 57.1763L120.635 59.7353C120.945 61.4916 121.317 63.5321 121.803 65.5235C122.25 67.4321 122.855 69.3005 123.612 71.1098C123.712 71.3161 123.769 71.5408 123.779 71.7699C123.789 71.999 123.751 72.2276 123.668 72.4416C123.577 72.637 123.447 72.8116 123.285 72.9546C123.124 73.0976 122.934 73.2059 122.729 73.2727C121.67 73.6695 120.507 74.0927 119.068 74.6053C119.501 76.4561 119.816 78.3763 120.121 80.2327L120.122 80.2387C120.239 80.9514 120.36 81.6883 120.485 82.4061C121.023 85.492 121.64 88.6181 122.236 91.6415L122.237 91.6471C122.7 93.9936 123.179 96.4199 123.618 98.8115C123.876 100.22 124.126 101.655 124.367 103.041C124.606 104.411 124.853 105.828 125.108 107.22C125.259 108.047 125.421 108.907 125.564 109.666L125.577 109.735C125.671 110.236 125.769 110.754 125.864 111.263C125.953 111.742 126.038 112.229 126.12 112.7C126.16 112.93 126.205 113.19 126.25 113.446L126.273 113.567C126.278 113.596 126.284 113.626 126.29 113.655C126.359 114.01 126.431 114.377 126.333 114.733C126.225 115.125 125.938 115.415 125.66 115.695L125.658 115.698C125.625 115.731 125.594 115.763 125.563 115.795C125.496 115.863 125.415 115.917 125.326 115.954C125.238 115.99 125.142 116.008 125.046 116.006Z" fill="black"/>
</svg>
