<svg width="124" height="124" viewBox="0 0 120 110" fill="none" xmlns="http://www.w3.org/2000/svg">
<path d="M22.5152 123.219C22.4597 123.219 22.3991 123.217 22.3352 123.214C19.0252 123.027 15.7332 122.6 12.4853 121.936C9.63977 121.37 6.66681 120.641 2.84587 119.571C2.44461 119.454 2.09139 119.212 1.83823 118.881C1.58019 118.552 1.43997 118.146 1.43994 117.728C1.55941 108.482 1.82429 99.167 2.22818 90.0422C2.58979 81.8655 3.07296 73.5784 3.66438 65.4111C3.92189 61.8567 4.20439 58.2595 4.50419 54.719L4.63487 53.1925C4.66962 52.7905 4.70181 52.3826 4.73288 51.9881C4.85539 50.4328 4.98207 48.8244 5.29099 47.2777C5.47827 46.3407 5.79067 45.4331 6.21984 44.5792C6.65288 43.7279 7.18557 42.9309 7.80673 42.2049C8.07482 41.8889 9.01023 41.0469 10.5121 39.7698C11.9033 38.5865 13.7072 37.0937 15.5918 35.5656C18.9835 32.8153 23.1951 29.4997 24.8431 28.4437C26.7894 27.1965 28.8346 26.0583 30.8124 24.9579C31.8374 24.3872 32.8984 23.7972 33.9337 23.1982C34.4573 22.9178 35.0221 22.7219 35.6071 22.6178C36.2694 22.4675 36.8951 22.3255 37.4858 21.8343C37.8072 21.5671 40.6198 20.4186 43.3399 19.3079C45.4143 18.4604 47.5591 17.585 48.5261 17.1285L48.5916 17.0965C49.4281 16.7082 50.2369 16.263 51.0124 15.7641C51.7713 15.2733 52.4541 14.6743 53.0392 13.986C53.2544 13.7279 53.5586 12.7722 53.7714 11.9638C54.0364 10.9564 54.2081 10.022 54.2088 9.58224C54.2088 9.29442 54.2059 8.99781 54.2025 8.71127C54.1865 7.28561 54.1694 5.81151 54.5961 4.44374C54.7452 3.96273 54.9526 3.50173 55.2138 3.07101C55.7228 2.23273 56.4386 1.53875 57.2927 1.05533C57.7327 0.806813 58.2017 0.613473 58.6892 0.479695C59.8558 0.15718 61.2216 0 62.8644 0C63.8733 0 64.8651 0.0602817 65.5236 0.105693C66.4685 0.170772 67.7109 0.271987 68.9517 0.478096C70.0884 0.652837 71.203 0.948961 72.2763 1.36138C73.1795 1.71338 74.0201 2.20831 74.7657 2.82716C75.5099 3.44936 76.1284 4.20769 76.588 5.06143C76.9662 5.77597 77.2633 6.53046 77.4737 7.31088C77.6841 8.09055 77.8432 8.88309 77.9502 9.68345C78.0485 10.3771 78.1289 11.0698 78.1947 11.6558L78.3469 13.0256C78.4064 13.5485 78.459 13.9425 78.5627 14.5266C78.6871 15.2869 78.8764 16.0352 79.1287 16.7633C79.3695 17.4476 79.7147 18.0906 80.152 18.6697C80.6103 19.2676 81.1422 19.8054 81.7352 20.2703C82.3188 20.7271 82.9432 21.1293 83.6006 21.4716C84.9156 22.1683 86.3657 22.6909 87.7681 23.1963C88.2084 23.3549 88.6637 23.519 89.1047 23.6851C90.1077 24.0402 91.0225 24.6066 91.787 25.3458C92.5427 26.1 93.0557 27.0622 93.2604 28.1092C93.3611 28.6082 94.3301 29.9944 96.1406 32.2293C97.6423 34.0832 99.6718 36.4602 102.173 39.2943C106.575 44.2831 111.159 49.2305 111.982 50.0031L112.027 50.0444C113.044 50.959 113.15 52.5259 113.243 53.9082C113.266 54.2545 113.288 54.5817 113.323 54.8909C113.511 56.5527 113.694 58.2465 113.866 59.9255C114.213 63.3243 114.527 66.7707 114.798 70.169C115.329 76.8226 115.72 83.5778 115.96 90.2473C116.2 96.9199 116.297 103.686 116.245 110.357L116.239 111.116C116.235 111.532 116.233 111.951 116.231 112.357C116.224 113.626 116.217 114.94 116.159 116.226C116.069 118.234 115.367 119.621 114.074 120.348C113.47 120.672 112.811 120.882 112.13 120.967C111.44 121.057 110.745 121.108 110.049 121.119C109.81 121.128 109.563 121.137 109.324 121.149L109.23 121.153C107.624 121.241 105.923 121.319 104.174 121.383C99.382 121.56 94.1999 121.643 87.8653 121.643C86.5406 121.643 85.1478 121.64 83.6075 121.632C81.1339 121.621 78.6178 121.602 76.1847 121.583H76.1687C72.3495 121.553 68.4002 121.522 64.5168 121.522C60.475 121.522 56.9226 121.556 53.6567 121.625C49.7676 121.708 46.2174 121.841 42.8034 122.032C42.5461 122.046 42.2346 122.054 41.8776 122.054C40.1234 122.054 37.4483 121.884 34.6162 121.705L34.3542 121.689C31.6489 121.518 28.5826 121.324 26.4816 121.324C25.809 121.324 25.2576 121.344 24.8439 121.384C23.9889 121.467 23.4656 121.644 23.2439 121.926C23.0702 122.146 23.1057 122.397 23.1371 122.618C23.163 122.801 23.1851 122.959 23.09 123.069C22.9997 123.171 22.8174 123.219 22.5152 123.219ZM62.338 44.3219L49.1598 69.946H57.7289L51.5867 84.1829H65.0757L60.2905 104.124L87.6546 69.946H77.3861L87.6546 56.4891H80.5325L87.6546 45.0928L62.338 44.3219Z" fill="white"/>
<path d="M22.4241 123.708C22.3503 123.708 22.2765 123.703 22.2034 123.693C21.7469 123.618 21.3388 123.366 21.0684 122.992C20.9489 122.839 20.8615 122.665 20.8113 122.478C20.7611 122.291 20.7493 122.096 20.7765 121.904C20.5995 117.896 20.6735 113.807 20.7444 109.851V109.832C20.7505 109.495 20.7566 109.158 20.7625 108.821C20.8296 105.12 20.9661 101.349 21.18 97.2927C21.3709 93.6721 21.6195 89.9064 21.9398 85.78C22.3054 81.0864 22.6654 77.4935 23.1072 74.13C23.1606 73.7235 23.2117 73.3091 23.2611 72.9084C23.4208 71.3981 23.6597 69.8972 23.9768 68.4119C24.0928 67.9147 24.1959 67.3901 24.2957 66.8829C24.3786 66.4614 24.4642 66.0262 24.5582 65.5994L24.5064 65.5177C24.3127 65.2115 24.1125 64.8952 23.9064 64.5954C23.194 63.5581 22.4671 62.5677 21.746 61.6517C17.5128 56.2733 12.0714 51.3013 5.57278 46.8739C5.69991 47.1405 5.72889 47.4433 5.65461 47.7292C5.6245 47.8697 5.56498 48.0024 5.47995 48.1184C5.39492 48.2344 5.2863 48.3312 5.1612 48.4023C5.08113 51.6762 4.84475 54.9981 4.6167 58.2105V58.2132C4.56866 58.8982 4.51773 59.6064 4.46969 60.3037C3.95466 67.7916 3.75111 71.8561 3.63132 74.5604C3.40007 79.7827 3.30334 84.4529 3.33585 88.8376C3.37188 93.6964 3.48399 98.5027 3.66896 103.123C3.77593 105.759 3.88547 108.12 4.00382 110.339C4.05187 111.244 4.1084 112.163 4.16269 113.053V113.057C4.18126 113.362 4.20449 113.741 4.22675 114.101C4.23112 114.173 4.23566 114.246 4.24036 114.318C4.29573 114.849 4.29084 115.385 4.22579 115.915C4.18765 116.161 4.10874 116.399 3.99229 116.619C3.86787 116.848 3.69548 117.047 3.48687 117.204L3.48511 117.214V117.216C3.48415 117.223 3.48319 117.229 3.48222 117.234C3.45135 117.47 3.33327 117.687 3.15104 117.841C2.98528 117.983 2.77514 118.063 2.5569 118.066C2.39751 118.068 2.24193 118.018 2.11425 117.922C1.96696 117.805 1.86242 117.642 1.8167 117.46C1.80933 117.433 1.80068 117.406 1.79428 117.382V117.381C1.78691 117.355 1.77922 117.329 1.77218 117.303C0.73747 116.678 0.674853 115.443 0.614157 114.249C0.60647 114.098 0.598142 113.941 0.588694 113.789C0.507179 112.532 0.430148 111.199 0.353118 109.713C0.218915 107.122 0.121385 104.377 0.0634124 101.553C-0.0326756 96.8824 -0.0197038 92.0215 0.103289 87.1062C0.219876 82.446 0.438636 77.5897 0.753485 72.6722C1.08883 67.423 1.51098 62.7121 2.04427 58.2703C2.50965 54.4048 3.03077 51.2728 3.68401 48.4142C3.31738 48.3082 2.98184 48.1153 2.70599 47.852C2.41264 47.5668 2.18611 47.2204 2.04267 46.8376C1.9125 46.5037 1.83905 46.1506 1.82535 45.7926C1.81386 45.4472 1.8571 45.1021 1.95346 44.7701C1.86229 44.9838 1.78891 45.2047 1.73406 45.4305C1.73079 45.4502 1.72055 45.4682 1.7052 45.4811C1.68985 45.494 1.67039 45.5011 1.65031 45.501C1.63466 45.5008 1.61924 45.4973 1.60507 45.4907C1.5909 45.484 1.57831 45.4745 1.56815 45.4626C1.55831 45.451 1.55114 45.4374 1.54715 45.4228C1.54317 45.4081 1.54246 45.3928 1.54509 45.3778C1.66211 44.7307 1.89495 44.1098 2.23244 43.5451C2.57138 42.9709 2.94172 42.4157 3.34178 41.8821V41.8812C3.44235 41.7418 3.54644 41.5977 3.64605 41.4581C4.50485 40.2421 5.42529 39.0706 6.40378 37.9483C7.23494 36.9992 8.12584 36.0606 9.05149 35.1584C9.94398 34.2887 10.8959 33.4266 11.881 32.596C13.827 30.9654 15.8687 29.4522 17.9954 28.0645C20.0084 26.7439 22.1581 25.4716 24.5673 24.1748C26.6199 23.0701 28.8605 21.9492 31.4173 20.7482C32.0202 20.4642 32.6504 20.1726 33.3453 19.8542C33.4716 19.7955 33.609 19.7646 33.7484 19.7636C33.8121 19.7636 33.8756 19.7704 33.9378 19.784C33.9382 19.7841 33.9387 19.7841 33.9391 19.784C34.049 19.7519 34.1629 19.7358 34.2773 19.7361C34.6443 19.7463 34.9977 19.8771 35.2827 20.1083L35.3088 20.1288C35.6483 20.3722 35.9531 20.6606 36.2148 20.986C36.2923 21.0999 36.3462 21.2283 36.3731 21.3634C36.4001 21.4985 36.3996 21.6376 36.3717 21.7725C37.4213 21.4903 38.5126 21.1358 39.7076 20.6886C42.2598 19.734 44.6973 18.5893 46.975 17.4988C47.122 17.4282 47.2766 17.3548 47.413 17.2909C48.3389 16.8769 49.2357 16.4008 50.0973 15.866C51.0645 15.2346 51.7628 14.5549 52.2326 13.7894C52.8476 12.7893 53.0638 11.6102 53.2736 10.4699L53.2754 10.4603C53.2873 10.3952 53.2993 10.3302 53.3112 10.2653C53.3929 9.82363 53.4699 9.37192 53.5444 8.93507C53.7046 7.99167 53.8716 7.01549 54.096 6.07289C54.168 5.79652 54.3346 5.55398 54.5668 5.38725C54.7936 5.21557 55.0694 5.12078 55.3539 5.1167C55.5843 5.12662 55.8096 5.18728 56.0137 5.29435C56.1438 5.35511 56.2593 5.44312 56.3523 5.55241C56.4453 5.66169 56.5137 5.78969 56.5528 5.9277C56.6367 6.19929 56.6572 6.48645 56.6127 6.76717C56.4514 7.84505 56.2145 8.93491 55.9854 9.98912V9.99008C55.8984 10.3898 55.8084 10.8044 55.724 11.2109C55.4695 12.4408 55.1348 13.8524 54.3772 15.0405C53.7539 16.017 52.8888 16.8689 51.7325 17.6447C50.6805 18.3191 49.5764 18.9088 48.4308 19.4084C45.8044 20.6152 43.0899 21.8629 40.2521 22.6625C38.8764 23.0527 37.4684 23.3186 36.045 23.4571C36.0005 23.4614 35.942 23.4666 35.8849 23.4698C36.5267 23.8216 37.183 24.1681 37.8001 24.4932C40.0761 25.6934 42.108 26.6856 44.0122 27.5263C47.6378 29.1245 51.4187 30.3454 55.295 31.1696C59.171 31.9975 63.1233 32.4172 67.0871 32.4219C67.3875 32.4219 67.6921 32.4194 67.9925 32.4144C70.0384 32.3816 72.0808 32.2341 74.1101 31.9726C76.1399 31.7099 78.1521 31.3261 80.136 30.8233C82.2824 30.2968 84.3804 29.5897 86.4073 28.7096C87.512 28.2211 88.5873 27.669 89.6279 27.056C89.8958 26.8961 90.1533 26.7305 90.3918 26.5746C88.5384 25.9489 86.685 25.2314 84.8928 24.5386H84.8918L84.7157 24.4706C83.5807 24.0535 82.4924 23.5192 81.4686 22.8765C80.448 22.2289 79.5513 21.4048 78.8207 20.4428C78.1825 19.5847 77.6851 18.6305 77.3473 17.6163C77.0116 16.6019 76.7875 15.5539 76.679 14.4911C76.5029 12.8786 76.385 10.4762 76.8296 8.18787C76.8361 8.15186 76.8556 8.11949 76.8844 8.09684C76.9132 8.07419 76.9493 8.06284 76.9859 8.06491C77.0245 8.06381 77.0624 8.07519 77.0939 8.09735C77.1255 8.11951 77.1491 8.15126 77.1611 8.18787C77.4173 9.08426 77.6082 10.0118 77.7929 10.9089C78.0035 11.9322 78.2213 12.9891 78.5367 14.0083C78.8036 14.8914 79.1245 15.7574 79.4976 16.6012C79.8684 17.4456 80.3345 18.245 80.8869 18.9837C81.5245 19.7992 82.3227 20.4754 83.2324 20.9706C84.141 21.4641 85.0891 21.8813 86.067 22.2178C87.2614 22.6571 88.487 23.0704 89.6722 23.47L89.6769 23.4716C90.4633 23.7369 91.2766 24.0111 92.0725 24.2901C93.1125 24.3904 94.1362 24.6187 95.1201 24.9699C94.7069 24.6923 94.3565 24.439 94.0487 24.1961C94.0372 24.1874 94.0288 24.1751 94.0249 24.1612C94.021 24.1473 94.0218 24.1325 94.0271 24.119C94.0335 24.1014 94.045 24.086 94.0601 24.0748C94.0753 24.0636 94.0933 24.0571 94.1121 24.056C94.1184 24.0561 94.1245 24.0569 94.1306 24.0584C95.3983 24.3835 96.71 25.0212 97.8674 25.5837L97.95 25.6238C99.2709 26.2679 100.442 26.9013 101.529 27.5604C102.873 28.3758 104.03 29.1397 105.069 29.8974C106.215 30.7257 107.303 31.6321 108.324 32.6101C110.066 34.2881 111.709 36.2995 113.495 38.9402C114.174 39.9437 114.869 41.0348 115.622 42.2758C115.924 42.7715 116.247 43.3108 116.637 43.9739C116.722 44.1178 116.814 44.2637 116.902 44.4057C117.22 44.9153 117.549 45.4417 117.687 46.016C117.71 46.1132 117.65 46.4615 117.514 47.0234C117.386 47.5483 117.201 48.2196 116.993 48.9137C116.611 50.1838 116.089 51.7252 115.768 52.2429C115.716 52.3254 115.665 52.4028 115.613 52.481C115.516 52.6388 115.381 52.7696 115.22 52.8614C115.059 52.9532 114.877 53.0029 114.692 53.0061C114.535 53.004 114.38 52.97 114.236 52.906C114.092 52.842 113.963 52.7494 113.857 52.6339C113.755 52.5249 113.677 52.3958 113.629 52.2549C113.58 52.114 113.561 51.9645 113.574 51.816C113.486 51.8939 113.402 51.9676 113.327 52.0349L113.328 52.0402C113.954 55.7818 114.601 59.6493 115.06 63.5252C116.032 71.728 116.686 80.0955 117.319 88.1875V88.1884L117.321 88.2191C117.396 89.1743 117.473 90.162 117.549 91.1334C117.906 95.6784 118.171 100.186 118.433 104.789C118.576 107.312 118.695 109.598 118.799 111.778C118.855 112.953 118.911 114.142 118.96 115.191L118.964 115.273C118.976 115.559 118.999 115.847 119.023 116.153C119.096 117.092 119.172 118.063 118.948 118.934C118.857 119.324 118.632 119.67 118.312 119.912C118.019 120.12 117.668 120.23 117.308 120.225C116.915 120.223 116.53 120.107 116.201 119.891C115.852 119.662 115.588 119.326 115.449 118.932C115.254 118.383 115.239 117.777 115.226 117.19C115.222 117.029 115.218 116.862 115.21 116.701L115.162 115.662L115.114 114.637C115.051 113.335 114.988 112.052 114.926 110.823C114.862 109.549 114.8 108.26 114.74 107.013L114.738 106.982C114.678 105.742 114.616 104.46 114.553 103.199C114.317 98.4577 114.073 93.637 113.835 88.9753L113.833 88.9248C113.616 84.658 113.392 80.2459 113.174 75.8946C113.141 75.2258 113.106 74.5416 113.076 73.9381V73.937C112.88 70.0577 112.678 66.0462 112.571 62.0967C112.496 59.3125 112.491 56.482 112.486 53.7444C112.485 53.4291 112.485 53.1137 112.484 52.7983C112.43 52.8477 112.374 52.8992 112.321 52.9489L112.32 52.9498L112.229 53.0333C111.008 54.1785 110.03 55.1384 109.153 56.0539C108.729 56.4964 108.174 57.0818 107.635 57.6865C107.529 57.8053 107.424 57.9288 107.323 58.0482C106.989 58.4851 106.591 58.8702 106.144 59.1912C105.968 59.3116 105.758 59.3745 105.545 59.3709C105.181 59.3628 104.833 59.2269 104.56 58.9871C104.525 58.9551 104.489 58.9243 104.455 58.8949C104.411 58.8565 104.37 58.814 104.334 58.7679C104.33 59.5424 104.325 60.4588 104.321 61.3824C104.307 66.6947 104.367 71.4763 104.507 76.0005C104.668 81.1868 104.929 85.9609 105.305 90.5957C105.662 95.014 106.128 99.6883 106.772 105.306C107.039 107.642 107.338 110.055 107.662 112.481C107.818 113.648 107.984 114.833 108.17 116.104C108.201 116.318 108.242 116.54 108.282 116.756V116.757C108.375 117.193 108.433 117.636 108.456 118.081C108.466 118.393 108.399 118.702 108.261 118.982C108.118 119.255 107.942 119.509 107.736 119.739C107.643 119.837 107.53 119.914 107.405 119.965C107.279 120.016 107.145 120.04 107.009 120.036C106.918 120.036 106.828 120.025 106.739 120.004C106.629 120.254 106.473 120.48 106.278 120.672C105.562 121.372 104.591 121.466 103.735 121.466C103.449 121.466 103.163 121.455 102.887 121.443H102.873H102.872C102.59 121.432 102.324 121.421 102.061 121.421C101.977 121.421 101.901 121.422 101.826 121.425L97.948 121.539L97.9171 121.54L92.0677 121.712L91.0551 121.742C79.8564 122.073 68.2763 122.415 56.8785 122.751C51.1143 122.922 45.1944 123.074 39.2832 123.203C37.5056 123.241 35.6245 123.26 33.532 123.26C32.5785 123.26 31.5822 123.256 30.4865 123.248C28.2751 123.238 26.0662 123.1 23.8708 122.836C23.7321 123.099 23.524 123.319 23.2691 123.473C23.0142 123.626 22.7222 123.708 22.4244 123.708L22.4241 123.708ZM70.4111 80.3556C70.576 80.3536 70.7386 80.3944 70.8829 80.4741C71.0273 80.5537 71.1485 80.6694 71.2345 80.8099C71.3178 80.9489 71.3629 81.1073 71.3653 81.2692C71.3677 81.4311 71.3274 81.5908 71.2483 81.7322L71.1802 81.8625C71.1064 82.0035 71.0307 82.1486 70.957 82.2918C69.6992 84.7044 68.4374 87.1662 67.2171 89.5468L67.2153 89.5501C66.6258 90.7001 66.0163 91.8893 65.411 93.0655C64.9072 94.045 64.4035 95.0242 63.8998 96.003L63.8255 96.1469C63.3819 97.0089 62.9384 97.8711 62.4949 98.7334C62.4923 98.7376 62.49 98.7419 62.488 98.746C62.4859 98.7502 62.4841 98.7537 62.4819 98.7575C63.5355 97.4669 64.6083 96.1192 65.6704 94.7505C66.2203 94.0413 66.7914 93.3058 67.2967 92.6569C70.8555 88.079 74.5353 83.3456 77.9202 78.5031C78.9379 77.0464 79.9196 75.562 80.8381 74.1664C81.3203 73.4328 81.8132 72.6743 82.3034 71.9119C82.3185 71.8892 82.3551 71.8217 82.4014 71.736C82.4877 71.577 82.6182 71.3362 82.7198 71.1826C82.645 71.1786 82.5686 71.1723 82.4948 71.1666C82.3614 71.1559 82.2241 71.1448 82.0867 71.1448C81.9655 71.144 81.8445 71.1547 81.7253 71.1768C81.1608 71.2862 80.5913 71.4434 80.0404 71.5954C79.7793 71.6674 79.51 71.7417 79.2446 71.81C77.9397 72.1428 76.6139 72.4816 75.3316 72.8108L75.3264 72.8121L74.7877 72.9501C74.5886 72.9997 74.3873 73.0515 74.1923 73.1015L74.1535 73.1114C73.9752 73.159 73.7915 73.184 73.6069 73.186C73.2428 73.186 72.9757 73.0681 72.874 72.8625C72.7619 72.6354 72.8504 72.3228 73.1302 71.9586L73.1419 71.9434C73.3313 71.6973 73.5272 71.4429 73.7243 71.1919C74.8812 69.7067 76.0162 68.0909 77.1137 66.5283C78.8325 64.081 80.6097 61.5508 82.5675 59.3722C80.8935 59.4988 79.3842 59.6099 77.8672 59.6904C77.8512 59.6912 77.8351 59.6916 77.8191 59.6916C77.6217 59.682 77.4306 59.6191 77.2662 59.5095C77.1017 59.3999 76.9702 59.2479 76.8856 59.0695C76.7955 58.9125 76.7512 58.7334 76.7577 58.5525C76.7642 58.3717 76.8213 58.1963 76.9225 58.0461C77.0945 57.8076 77.2538 57.5906 77.4093 57.3827C77.9653 56.6397 78.5572 55.5148 79.1298 54.427C79.7462 53.2557 80.3837 52.0445 80.9948 51.2648L81.1909 51.0149C82.3769 49.5026 83.603 47.9391 84.8582 46.4409L84.7062 46.3129C84.4303 46.6738 83.9523 46.7156 83.6172 46.7156C83.4411 46.7156 83.2678 46.7031 83.1001 46.6909H83.0992C83.0297 46.686 82.9642 46.6812 82.9004 46.6775C82.2035 46.6395 81.4653 46.5932 80.7064 46.5401C79.4337 46.4519 76.509 46.3911 73.4127 46.3268C69.3078 46.2416 65.0638 46.1535 64.5172 45.9933C64.4802 46.0951 64.4434 46.1967 64.4067 46.2982C64.1144 47.1062 63.8383 47.8691 63.4906 48.6444C63.0558 49.6164 62.5969 50.6403 62.0461 51.8664C61.1125 53.945 60.1173 56.0212 59.1811 57.9551C58.7018 58.946 58.2226 59.9365 57.7433 60.9267L57.575 61.2746C57.1111 62.2334 56.6471 63.1922 56.1831 64.151C56.0252 64.476 55.8629 64.8034 55.7048 65.1202C55.3712 65.7903 55.0264 66.4833 54.7178 67.1766C54.6413 67.3489 54.3929 67.94 54.4119 68.3166C56.279 67.7905 58.1776 67.3831 60.0963 67.0969C62.0145 66.8127 63.948 66.6445 65.8864 66.593C65.9936 66.5898 66.1021 66.5879 66.2067 66.5861H66.2083H66.2299L66.3147 66.5845C64.5357 69.0776 62.9071 71.6742 61.4376 74.3607C59.9764 77.0303 58.6891 79.7912 57.5838 82.6262C57.5372 82.7274 57.5248 82.8409 57.5485 82.9497C57.5723 83.0585 57.6308 83.1567 57.7153 83.2293C57.6939 83.272 57.6728 83.3146 57.652 83.3572L57.6502 83.3608C57.6253 83.4113 57.5993 83.4634 57.5743 83.5152C57.6642 83.488 57.7574 83.4607 57.8395 83.4366C57.9036 83.4177 57.968 83.3987 58.0328 83.3796C58.0821 83.3893 58.1322 83.3941 58.1824 83.3942C58.2749 83.3959 58.3667 83.3785 58.4522 83.3431C58.5376 83.3078 58.6148 83.2551 58.6789 83.1886C62.4599 82.0821 66.3377 81.1353 70.2046 80.3743C70.2727 80.3615 70.3418 80.3552 70.4111 80.3556ZM106.606 58.6716C106.578 58.7242 106.547 58.7749 106.513 58.8236C106.535 58.8005 106.558 58.7778 106.578 58.7578L106.606 58.7308V58.6716ZM33.3241 21.8342H33.3227C33.2682 21.8592 33.2066 21.8876 33.1448 21.915C33.3184 22.0197 33.5064 22.1312 33.7197 22.2556C33.6604 22.1982 33.6021 22.1366 33.5456 22.0771L33.5448 22.0762C33.5072 22.0365 33.4683 21.9962 33.4298 21.9564C33.3915 21.9181 33.3562 21.877 33.3241 21.8333V21.8342Z" fill="black"/>
</svg>
